<!DOCTYPE svg PUBLIC "-//W3C//DTD SVG 20010904//EN" "http://www.w3.org/TR/2001/REC-SVG-20010904/DTD/svg10.dtd">
<svg version="1.0" xmlns="http://www.w3.org/2000/svg" width="650px" height="300px" viewBox="0 0 6500 3000" preserveAspectRatio="xMidYMid meet">
<g id="layer1" fill="#bd5b52" stroke="none">
 <path d="M3200 964 c-30 -19 -92 -46 -137 -60 -64 -19 -88 -32 -112 -60 -32 -36 -37 -49 -22 -59 5 -3 19 8 30 24 17 23 42 36 115 61 51 17 114 44 140 61 l47 29 29 -20 c16 -11 75 -42 133 -69 57 -27 115 -61 129 -76 28 -29 47 -20 28 14 -15 29 -63 60 -152 98 -45 18 -101 47 -125 63 -24 17 -45 30 -46 29 -1 -1 -27 -16 -57 -35z"/>
 <path d="M3234 769 c-10 -12 -31 -28 -47 -35 -15 -8 -25 -19 -22 -24 8 -12 53 10 79 39 18 19 21 20 37 5 10 -9 20 -11 23 -6 3 5 -1 15 -9 22 -8 7 -15 9 -15 5 0 -4 -6 -2 -13 4 -11 8 -18 6 -33 -10z"/>
 <path d="M2945 740 c-6 -10 52 -50 72 -50 20 0 25 20 6 26 -10 3 -30 11 -45 19 -16 8 -30 10 -33 5z"/>
 <path d="M3335 740 c-7 -12 32 -33 45 -25 6 4 8 10 5 14 -7 13 -44 20 -50 11z"/>
 <path d="M3415 721 c-7 -12 12 -24 25 -16 11 7 4 25 -10 25 -5 0 -11 -4 -15 -9z"/>
 <path d="M3495 721 c-7 -12 12 -24 25 -16 11 7 4 25 -10 25 -5 0 -11 -4 -15 -9z"/>
 </g>
<g id="layer2" fill="#d28e4a" stroke="none">
 <path d="M2286 2171 c-3 -4 11 -19 32 -32 41 -27 80 -93 74 -125 -5 -26 16 -42 24 -20 3 9 3 24 -2 34 -4 9 -6 20 -6 25 5 20 -41 87 -71 106 -38 23 -44 25 -51 12z"/>
 <path d="M1335 2131 c-7 -12 12 -24 25 -16 11 7 4 25 -10 25 -5 0 -11 -4 -15 -9z"/>
 <path d="M1546 2042 c-3 -5 8 -19 24 -31 16 -12 37 -35 46 -52 11 -22 19 -28 26 -21 7 7 4 21 -10 44 -22 35 -77 74 -86 60z"/>
 <path d="M1846 2042 c-3 -5 8 -18 24 -30 31 -23 51 -14 22 10 -27 23 -40 29 -46 20z"/>
 <path d="M2225 2040 c-3 -5 8 -16 24 -25 36 -18 51 -3 19 19 -26 18 -35 20 -43 6z"/>
 <path d="M2835 2041 c-7 -12 12 -24 25 -16 11 7 4 25 -10 25 -5 0 -11 -4 -15 -9z"/>
 <path d="M3355 2040 c-3 -5 12 -17 34 -26 25 -10 49 -29 62 -50 26 -43 47 -34 21 9 -19 33 -75 77 -98 77 -7 0 -16 -4 -19 -10z"/>
 <path d="M4416 2042 c-3 -5 8 -20 24 -35 29 -28 54 -20 29 9 -17 21 -47 36 -53 26z"/>
 <path d="M5066 2042 c-3 -5 8 -20 24 -35 29 -28 54 -20 29 9 -17 21 -47 36 -53 26z"/>
 <path d="M4585 2029 c-10 -26 -1 -259 10 -259 14 0 19 250 6 263 -7 7 -12 5 -16 -4z"/>
 <path d="M5235 2029 c-10 -26 -1 -359 10 -359 14 0 19 350 6 363 -7 7 -12 5 -16 -4z"/>
 <path d="M1405 2020 c-4 -6 -3 -16 3 -22 6 -6 12 -6 17 2 4 6 3 16 -3 22 -6 6 -12 6 -17 -2z"/>
 <path d="M3954 2006 c-3 -8 -2 -21 2 -28 4 -6 9 -26 11 -42 2 -17 8 -35 13 -40 16 -16 22 18 9 50 -7 16 -11 36 -10 46 3 22 -18 33 -25 14z"/>
 <path d="M4154 2005 c-4 -9 -2 -21 4 -27 6 -6 8 -16 6 -23 -7 -16 12 -29 21 -15 3 5 3 16 -2 23 -4 6 -6 19 -5 29 4 22 -17 33 -24 13z"/>
 <path d="M2575 1938 c-10 -25 -1 -173 10 -171 13 4 19 163 6 176 -7 7 -12 5 -16 -5z"/>
 <path d="M1785 1910 c-19 -31 33 -96 57 -72 7 7 3 14 -11 21 -12 7 -21 20 -21 31 0 22 -16 35 -25 20z"/>
 <path d="M4175 1910 c-4 -6 -3 -16 3 -22 6 -6 12 -6 17 2 4 6 3 16 -3 22 -6 6 -12 6 -17 -2z"/>
 <path d="M1406 1891 c-9 -14 4 -40 26 -52 33 -18 38 4 8 34 -16 15 -31 23 -34 18z"/>
 <path d="M4355 1890 c-9 -14 21 -60 40 -60 26 0 24 17 -4 44 -19 18 -31 24 -36 16z"/>
 <path d="M4765 1890 c-12 -19 41 -62 72 -58 35 4 33 21 -5 29 -18 4 -39 15 -46 24 -10 14 -15 15 -21 5z"/>
 <path d="M5006 1891 c-9 -14 4 -40 26 -52 33 -18 38 4 8 34 -16 15 -31 23 -34 18z"/>
 <path d="M3264 1869 c-8 -13 29 -49 52 -49 21 0 27 20 7 27 -10 3 -25 12 -35 20 -12 11 -18 12 -24 2z"/>
 <path d="M3646 1871 c-7 -11 22 -36 31 -28 3 4 12 2 19 -4 16 -13 48 -4 39 11 -4 6 -14 10 -23 8 -10 -1 -27 3 -39 10 -12 7 -24 8 -27 3z"/>
 <path d="M4185 1860 c-4 -6 -3 -16 3 -22 6 -6 12 -6 17 2 4 6 3 16 -3 22 -6 6 -12 6 -17 -2z"/>
 <path d="M2804 1838 c-4 -5 -2 -14 4 -20 12 -12 63 -7 63 7 0 14 -60 25 -67 13z"/>
 <path d="M3054 1838 c-10 -15 7 -28 36 -28 22 0 29 -5 32 -22 5 -34 23 -23 23 15 0 30 -2 32 -43 38 -24 3 -45 2 -48 -3z"/>
 <path d="M4195 1810 c-4 -6 -3 -16 3 -22 6 -6 12 -6 17 2 4 6 3 16 -3 22 -6 6 -12 6 -17 -2z"/>
 <path d="M2525 1720 c-3 -6 2 -13 12 -17 10 -3 25 -12 35 -20 10 -9 18 -10 22 -4 3 5 -6 19 -20 30 -30 23 -40 26 -49 11z"/>
 <path d="M3037 1723 c-4 -6 0 -18 7 -28 8 -11 16 -14 19 -8 4 6 0 18 -7 28 -8 11 -16 14 -19 8z"/>
 </g>
<g id="layer3" fill="#dba36d" stroke="none">
 <path d="M2206 2182 c-9 -15 4 -21 55 -23 24 -1 55 -8 68 -16 35 -22 51 0 16 23 -31 20 -129 32 -139 16z"/>
 <path d="M1296 2142 c-8 -13 10 -25 43 -27 50 -4 56 -9 61 -53 7 -60 24 -57 28 5 2 42 -1 54 -15 61 -29 16 -110 25 -117 14z"/>
 <path d="M2369 2126 c-5 -25 -4 -34 8 -53 7 -13 11 -23 7 -23 -4 0 -1 -7 6 -15 21 -26 34 -2 21 38 -11 32 -39 68 -42 53z"/>
 <path d="M1465 2050 c-3 -6 0 -12 7 -14 21 -7 92 -20 100 -18 4 1 17 -11 31 -27 17 -20 24 -42 25 -77 2 -52 17 -79 28 -50 12 30 -2 102 -26 134 -13 17 -38 38 -56 47 -36 17 -100 20 -109 5z"/>
 <path d="M1775 2050 c-7 -11 2 -15 50 -24 17 -4 37 -8 45 -10 8 -1 15 -8 15 -14 0 -18 18 -15 21 3 5 37 -111 77 -131 45z"/>
 <path d="M1927 2054 c-13 -14 6 -24 44 -24 l39 0 0 -133 c0 -74 3 -137 7 -140 3 -4 12 -2 20 4 16 14 19 250 3 280 -8 15 -21 19 -59 19 -26 0 -51 -3 -54 -6z"/>
 <path d="M2172 2049 c-35 -14 -16 -30 31 -26 34 4 44 0 60 -20 15 -18 22 -22 31 -13 8 8 7 14 -5 23 -9 7 -18 17 -20 22 -2 6 -9 10 -16 10 -6 0 -15 4 -19 8 -10 9 -33 8 -62 -4z"/>
 <path d="M2525 2050 c-8 -12 8 -18 60 -23 39 -3 40 -4 37 -39 -4 -44 14 -59 28 -22 7 19 7 30 -1 40 -6 8 -8 14 -3 14 5 1 -2 10 -15 20 -25 21 -95 28 -106 10z"/>
 <path d="M2756 2052 c-9 -15 4 -21 53 -23 48 -3 52 -7 53 -49 2 -54 25 -48 34 8 7 44 -16 64 -78 70 -33 2 -58 0 -62 -6z"/>
 <path d="M2957 2054 c-14 -14 6 -24 49 -24 l44 0 0 -94 c0 -71 4 -97 15 -106 18 -15 17 -22 15 105 -1 55 -6 105 -12 112 -11 13 -99 18 -111 7z"/>
 <path d="M3251 2049 c-42 -17 -9 -28 62 -20 l67 7 38 -37 c39 -38 40 -40 51 -104 3 -22 11 -40 16 -40 15 0 18 74 4 106 -15 37 -77 92 -95 85 -7 -3 -16 -1 -19 4 -8 13 -93 12 -124 -1z"/>
 <path d="M3547 2054 c-13 -14 6 -24 44 -24 l39 0 0 -78 c0 -76 1 -79 31 -101 24 -18 34 -20 42 -11 9 9 7 16 -10 27 -20 14 -23 24 -23 85 0 94 -9 108 -69 108 -26 0 -51 -3 -54 -6z"/>
 <path d="M3847 2054 c-14 -14 6 -24 47 -24 45 0 90 -30 66 -45 -8 -5 -8 -10 0 -20 7 -8 9 -19 5 -25 -4 -6 -1 -18 7 -27 7 -9 12 -18 11 -20 -2 -1 -1 -3 2 -3 3 0 8 0 11 0 4 0 1 6 -5 14 -8 10 -9 16 -1 21 10 6 4 53 -11 69 -4 5 -5 15 -2 24 9 23 -25 42 -77 42 -26 0 -50 -3 -53 -6z"/>
 <path d="M4037 2054 c-14 -15 7 -24 52 -24 34 0 53 -5 65 -19 12 -13 14 -21 6 -26 -8 -5 -8 -10 0 -20 7 -8 9 -19 5 -25 -4 -6 -1 -17 5 -25 6 -8 9 -19 5 -25 -4 -6 -2 -16 3 -23 5 -7 10 -19 10 -27 5 -64 23 -103 36 -81 8 13 -32 221 -44 235 -5 5 -6 15 -3 24 10 24 -26 42 -82 42 -29 0 -55 -3 -58 -6z"/>
 <path d="M4327 2049 c-28 -16 -13 -25 44 -23 57 2 82 -3 74 -16 -9 -15 12 -20 24 -6 30 36 -91 75 -142 45z"/>
 <path d="M4497 2054 c-14 -14 6 -24 48 -24 24 0 47 -5 50 -10 12 -19 25 0 15 21 -8 15 -21 19 -59 19 -26 0 -51 -3 -54 -6z"/>
 <path d="M4665 2050 c-9 -14 19 -23 62 -19 l38 4 0 -89 c0 -78 2 -90 21 -102 17 -12 23 -12 40 0 19 14 19 15 -1 22 -30 11 -35 23 -35 95 0 51 -4 70 -18 82 -20 19 -97 23 -107 7z"/>
 <path d="M4977 2049 c-28 -17 -12 -25 45 -22 32 1 62 -4 75 -13 32 -20 38 1 7 25 -29 23 -96 28 -127 10z"/>
 <path d="M5147 2054 c-14 -14 6 -24 48 -24 24 0 47 -5 50 -10 12 -19 25 0 15 21 -8 15 -21 19 -59 19 -26 0 -51 -3 -54 -6z"/>
 <path d="M2402 1998 c-13 -13 -17 -229 -5 -241 3 -4 12 -2 20 4 9 8 13 42 13 125 0 111 -6 134 -28 112z"/>
 <path d="M2201 1936 c-14 -17 -11 -175 4 -179 11 -2 24 182 14 189 -4 2 -12 -2 -18 -10z"/>
 <path d="M2807 1944 c-14 -14 -7 -101 8 -114 17 -14 17 -13 15 55 -1 50 -10 72 -23 59z"/>
 <path d="M1412 1927 c-18 -22 -7 -70 21 -91 25 -18 27 -18 52 -2 30 20 26 35 -9 29 -26 -5 -52 27 -42 52 7 19 -9 28 -22 12z"/>
 <path d="M3261 1921 c-16 -28 -13 -42 13 -75 16 -19 26 -24 31 -17 5 9 10 9 20 1 9 -7 16 -6 24 4 13 16 -2 32 -19 21 -17 -11 -40 15 -40 46 0 35 -16 46 -29 20z"/>
 <path d="M5012 1927 c-18 -22 -7 -70 21 -91 25 -18 27 -18 52 -2 30 20 26 35 -9 29 -26 -5 -52 27 -42 52 7 19 -9 28 -22 12z"/>
 <path d="M3899 1930 c-1 -3 -3 -14 -4 -25 -2 -11 -8 -44 -14 -74 -12 -60 0 -93 18 -50 12 31 25 99 22 119 -3 15 -20 38 -22 30z"/>
 <path d="M4076 1922 c-13 -21 -34 -147 -26 -156 11 -11 24 18 39 88 9 38 10 61 3 68 -6 6 -12 6 -16 0z"/>
 <path d="M4356 1922 c-4 -7 -2 -39 3 -71 1 -2 7 2 15 8 7 6 11 22 8 36 -5 27 -18 40 -26 27z"/>
 <path d="M1792 1883 c-9 -17 -8 -24 8 -38 11 -10 20 -14 20 -10 0 5 5 4 12 -3 8 -8 17 -8 30 -1 22 12 15 29 -11 29 -10 0 -25 10 -33 22 l-15 22 -11 -21z"/>
 <path d="M4422 1859 c-24 -9 -22 -29 2 -29 17 0 40 27 29 33 -4 3 -18 1 -31 -4z"/>
 <path d="M3725 1851 c-6 -11 1 -15 19 -12 5 1 4 -5 -3 -13 -14 -17 -11 -62 4 -59 6 1 13 16 16 32 5 22 1 35 -11 46 -12 11 -20 13 -25 6z"/>
 <path d="M4860 1858 c-6 -44 -6 -99 1 -103 13 -9 30 33 27 67 -2 17 -9 33 -15 36 -7 2 -13 2 -13 0z"/>
 <path d="M2859 1844 c-2 -20 3 -79 8 -87 8 -14 33 14 33 38 0 21 -39 68 -41 49z"/>
 <path d="M2915 1831 c-7 -12 12 -24 25 -16 11 7 4 25 -10 25 -5 0 -11 -4 -15 -9z"/>
 <path d="M3634 1796 c-4 -10 -2 -22 4 -28 8 -8 13 -7 18 6 4 10 2 22 -4 28 -8 8 -13 7 -18 -6z"/>
 <path d="M1404 1786 c-4 -10 -2 -22 4 -28 8 -8 13 -7 18 6 4 10 2 22 -4 28 -8 8 -13 7 -18 -6z"/>
 <path d="M4764 1786 c-4 -10 -2 -22 4 -28 8 -8 13 -7 18 6 4 10 2 22 -4 28 -8 8 -13 7 -18 -6z"/>
 <path d="M4591 1776 c-7 -8 -8 -17 -3 -20 6 -3 15 1 21 8 7 8 8 17 3 20 -6 3 -15 -1 -21 -8z"/>
 <path d="M2805 1748 c-9 -24 -1 -103 10 -103 14 0 19 95 6 108 -7 7 -12 5 -16 -5z"/>
 <path d="M3042 1747 c-26 -31 8 -81 49 -72 25 6 28 3 31 -22 4 -37 32 -37 36 0 5 38 -14 57 -54 57 -27 0 -34 4 -34 19 0 25 -15 34 -28 18z"/>
 <path d="M2503 1730 c-23 -9 -29 -21 -17 -33 3 -3 16 -2 29 3 13 5 26 6 30 2 4 -4 12 -7 18 -7 7 0 12 -9 12 -20 0 -21 26 -28 32 -9 5 16 -37 61 -62 67 -11 3 -30 2 -42 -3z"/>
 <path d="M3565 780 c-4 -6 -3 -16 3 -22 6 -6 12 -6 17 2 4 6 3 16 -3 22 -6 6 -12 6 -17 -2z"/>
 <path d="M3395 721 c-7 -12 12 -24 25 -16 11 7 4 25 -10 25 -5 0 -11 -4 -15 -9z"/>
 </g>
<g id="layer4" fill="#f6af6c" stroke="none">
 <path d="M2195 2171 c-7 -12 12 -24 25 -16 11 7 4 25 -10 25 -5 0 -11 -4 -15 -9z"/>
 <path d="M1295 2131 c-7 -12 12 -24 25 -16 11 7 4 25 -10 25 -5 0 -11 -4 -15 -9z"/>
 <path d="M1355 2121 c-7 -12 12 -24 25 -16 11 7 4 25 -10 25 -5 0 -11 -4 -15 -9z"/>
 <path d="M1396 2113 c-10 -11 -7 -121 5 -128 6 -4 20 2 32 13 13 12 39 22 62 24 22 2 39 8 38 13 -3 15 -50 18 -84 6 -29 -10 -29 -10 -29 29 0 37 -10 56 -24 43z"/>
 <path d="M2194 2095 c-8 -19 0 -28 26 -32 30 -4 32 13 5 31 -23 15 -26 15 -31 1z"/>
 <path d="M1903 2038 c-8 -9 -19 -16 -23 -15 -17 5 -10 -19 10 -32 19 -13 22 -12 27 7 4 17 14 22 57 24 65 4 63 21 -4 28 -40 5 -54 2 -67 -12z"/>
 <path d="M2943 2047 c-11 -18 15 -28 63 -25 27 2 48 8 47 13 -3 13 -103 24 -110 12z"/>
 <path d="M3528 2043 c-7 -9 -6 -14 5 -18 23 -10 112 -1 110 10 -4 16 -102 23 -115 8z"/>
 <path d="M3829 2044 c-15 -18 1 -24 61 -24 39 0 62 5 70 15 7 8 11 15 9 16 -42 6 -133 1 -140 -7z"/>
 <path d="M4019 2044 c-15 -18 1 -24 66 -24 43 0 66 5 75 15 7 8 11 15 9 16 -45 6 -143 1 -150 -7z"/>
 <path d="M4478 2043 c-7 -9 -6 -14 5 -18 23 -10 112 -1 110 10 -4 16 -102 23 -115 8z"/>
 <path d="M4649 2044 c-15 -18 1 -24 67 -24 60 0 87 11 63 25 -18 12 -120 11 -130 -1z"/>
 <path d="M5128 2043 c-7 -9 -6 -14 5 -18 23 -10 112 -1 110 10 -4 16 -102 23 -115 8z"/>
 <path d="M1711 2005 c-23 -25 -39 -50 -35 -56 3 -6 20 6 38 27 27 31 41 39 80 43 61 8 64 25 5 29 -43 3 -48 0 -88 -43z"/>
 <path d="M2385 2040 c-4 -6 -3 -16 3 -22 6 -6 12 -6 17 2 4 6 3 16 -3 22 -6 6 -12 6 -17 -2z"/>
 <path d="M2515 2040 c-8 -12 20 -24 35 -15 6 3 8 11 5 16 -8 12 -32 12 -40 -1z"/>
 <path d="M2575 2041 c-7 -12 12 -24 24 -16 6 3 15 -4 21 -15 13 -24 28 -26 36 -5 9 22 -15 48 -31 35 -9 -8 -15 -8 -20 0 -8 13 -22 13 -30 1z"/>
 <path d="M2745 2041 c-7 -12 12 -24 25 -16 11 7 4 25 -10 25 -5 0 -11 -4 -15 -9z"/>
 <path d="M2816 2041 c-4 -5 -2 -12 4 -16 5 -3 10 -3 10 1 0 3 6 1 14 -5 10 -8 16 -9 21 -1 3 5 4 11 1 11 -3 1 -9 2 -13 3 -5 1 -13 5 -20 9 -6 4 -14 3 -17 -2z"/>
 <path d="M3266 2041 c-4 -6 -13 -8 -20 -5 -17 7 -30 -12 -16 -21 6 -4 16 -2 23 3 7 6 15 11 20 11 8 1 11 11 4 17 -3 3 -8 1 -11 -5z"/>
 <path d="M3346 2041 c-4 -5 -2 -12 4 -16 5 -3 10 -3 10 1 0 3 6 1 14 -5 10 -8 16 -9 21 -1 3 5 4 11 1 11 -3 1 -9 2 -13 3 -5 1 -13 5 -20 9 -6 4 -14 3 -17 -2z"/>
 <path d="M2121 2014 c-17 -14 -28 -30 -25 -36 4 -5 15 -1 28 10 11 10 29 22 39 25 10 4 15 11 12 17 -10 15 -21 12 -54 -16z"/>
 <path d="M2234 2028 c-5 -8 3 -12 20 -9 4 1 14 -3 21 -9 14 -12 33 5 20 18 -9 10 -55 10 -61 0z"/>
 <path d="M3181 1996 c-13 -13 -18 -26 -13 -30 5 -3 19 5 31 18 13 13 18 26 13 30 -5 3 -19 -5 -31 -18z"/>
 <path d="M3995 2000 c-4 -6 -3 -16 3 -22 6 -6 12 -6 17 2 4 6 3 16 -3 22 -6 6 -12 6 -17 -2z"/>
 <path d="M1597 1994 c-3 -3 2 -18 11 -32 18 -28 19 -99 2 -131 -9 -18 -4 -31 12 -31 5 0 14 11 20 25 6 14 17 24 24 21 16 -6 28 10 19 24 -5 8 -11 7 -21 -1 -11 -9 -14 -8 -15 7 -1 11 -1 23 0 28 1 5 -1 16 -5 25 -4 9 -8 22 -10 30 -4 19 -29 43 -37 35z"/>
 <path d="M2455 1970 c-4 -6 -3 -16 3 -22 6 -6 12 -6 17 2 4 6 3 16 -3 22 -6 6 -12 6 -17 -2z"/>
 <path d="M3274 1945 c-14 -14 -22 -30 -18 -37 5 -8 12 -5 22 10 15 23 51 29 69 11 7 -7 13 -7 17 -1 7 12 -31 42 -52 42 -7 0 -24 -11 -38 -25z"/>
 <path d="M1411 1934 c-23 -29 -27 -49 -11 -59 6 -4 8 -10 5 -15 -14 -23 68 -48 92 -28 19 16 5 30 -18 17 -16 -8 -26 -7 -44 5 -25 17 -25 47 2 78 9 10 10 18 4 22 -5 3 -19 -6 -30 -20z"/>
 <path d="M3985 1950 c-4 -6 -3 -16 3 -22 6 -6 12 -6 17 2 4 6 3 16 -3 22 -6 6 -12 6 -17 -2z"/>
 <path d="M1793 1938 c-16 -21 -23 -47 -14 -53 13 -8 45 45 34 56 -6 6 -14 5 -20 -3z"/>
 <path d="M1876 1942 c-3 -6 1 -15 9 -22 7 -6 12 -17 9 -25 -7 -16 12 -29 21 -15 4 6 2 17 -4 24 -6 7 -9 15 -6 18 3 3 -1 11 -9 17 -8 7 -17 8 -20 3z"/>
 <path d="M2190 1930 c-13 -25 -9 -180 5 -180 11 0 24 190 13 196 -4 3 -12 -5 -18 -16z"/>
 <path d="M3045 1938 c-10 -24 -1 -123 10 -121 14 4 19 113 6 126 -7 7 -12 5 -16 -5z"/>
 <path d="M4365 1940 c-4 -6 -3 -16 3 -22 6 -6 12 -6 17 2 4 6 3 16 -3 22 -6 6 -12 6 -17 -2z"/>
 <path d="M3145 1930 c-4 -6 -3 -16 3 -22 6 -6 12 -6 17 2 4 6 3 16 -3 22 -6 6 -12 6 -17 -2z"/>
 <path d="M3898 1934 c-9 -14 11 -56 22 -49 13 8 13 18 -3 40 -8 10 -16 14 -19 9z"/>
 <path d="M2795 1918 c-9 -24 -1 -103 10 -103 14 0 19 95 6 108 -7 7 -12 5 -16 -5z"/>
 <path d="M3469 1929 c0 -2 -2 -17 -4 -34 -2 -16 -7 -40 -10 -52 -6 -27 8 -38 24 -19 12 15 10 90 -2 103 -4 3 -7 4 -8 2z"/>
 <path d="M3785 1920 c-4 -6 -3 -16 3 -22 6 -6 12 -6 17 2 4 6 3 16 -3 22 -6 6 -12 6 -17 -2z"/>
 <path d="M2275 1908 c-10 -24 -1 -163 10 -163 13 0 19 155 6 168 -7 7 -12 5 -16 -5z"/>
 <path d="M4065 1900 c-3 -5 3 -14 14 -20 20 -10 41 3 27 18 -10 10 -35 11 -41 2z"/>
 <path d="M3145 1880 c-4 -6 -1 -17 5 -25 7 -8 9 -15 6 -15 -4 0 -2 -9 4 -20 6 -11 15 -18 21 -15 5 4 4 15 -3 28 -7 12 -11 27 -10 34 3 16 -15 26 -23 13z"/>
 <path d="M3885 1880 c-4 -7 -2 -17 4 -23 6 -6 11 -7 11 -3 0 5 6 3 14 -3 18 -15 34 5 17 22 -6 6 -11 7 -11 3 0 -5 -6 -3 -14 3 -11 9 -16 9 -21 1z"/>
 <path d="M5086 1855 c-16 -13 -24 -25 -18 -29 6 -3 23 4 38 17 36 31 18 42 -20 12z"/>
 <path d="M3645 1861 c-3 -6 3 -15 14 -21 12 -6 22 -6 26 -1 3 6 -3 15 -14 21 -12 6 -22 6 -26 1z"/>
 <path d="M4055 1860 c-4 -6 -3 -16 3 -22 6 -6 12 -6 17 2 4 6 3 16 -3 22 -6 6 -12 6 -17 -2z"/>
 <path d="M4440 1860 c-8 -5 -23 -11 -33 -14 -20 -6 -14 -26 7 -26 19 0 61 36 50 42 -5 3 -16 2 -24 -2z"/>
 <path d="M4886 1861 c-4 -5 -2 -12 4 -16 6 -4 8 -10 5 -15 -3 -5 -1 -11 4 -14 5 -4 12 -2 15 3 4 5 2 12 -4 16 -6 4 -8 10 -5 15 3 5 1 11 -4 14 -5 4 -12 2 -15 -3z"/>
 <path d="M1867 1854 c-3 -3 -11 -6 -19 -7 -23 -4 -24 -20 -2 -23 23 -4 51 20 36 30 -5 3 -12 3 -15 0z"/>
 <path d="M3724 1846 c-17 -13 -16 -14 4 -25 12 -6 22 -9 22 -5 0 3 6 1 13 -5 13 -10 27 -6 27 10 0 3 -11 14 -24 22 -20 13 -27 14 -42 3z"/>
 <path d="M4095 1840 c-4 -6 -3 -16 3 -22 6 -6 12 -6 17 2 4 6 3 16 -3 22 -6 6 -12 6 -17 -2z"/>
 <path d="M2900 1826 c-13 -17 -10 -81 5 -81 12 0 25 84 14 90 -4 3 -12 -2 -19 -9z"/>
 <path d="M4185 1830 c-4 -6 -3 -16 3 -22 6 -6 12 -6 17 2 4 6 3 16 -3 22 -6 6 -12 6 -17 -2z"/>
 <path d="M1284 1816 c-3 -8 -4 -27 -2 -43 3 -26 6 -28 57 -31 38 -2 58 1 71 13 15 13 19 13 29 1 16 -19 57 -25 97 -14 57 15 56 47 -2 54 -16 1 -51 6 -79 10 -27 4 -61 8 -75 9 -14 2 -40 6 -58 9 -23 5 -34 2 -38 -8z"/>
 <path d="M3875 1820 c-4 -6 -3 -16 3 -22 6 -6 12 -6 17 2 4 6 3 16 -3 22 -6 6 -12 6 -17 -2z"/>
 <path d="M3925 1820 c-4 -6 -3 -16 3 -22 6 -6 12 -6 17 2 4 6 3 16 -3 22 -6 6 -12 6 -17 -2z"/>
 <path d="M1863 1785 c-18 -19 -29 -36 -24 -39 11 -7 76 41 76 56 0 23 -21 16 -52 -17z"/>
 <path d="M4045 1809 c-4 -5 -4 -13 -1 -16 3 -3 1 -12 -6 -20 -8 -10 -8 -17 -1 -24 13 -13 26 4 29 38 3 25 -11 39 -21 22z"/>
 <path d="M4433 1784 c-41 -42 -25 -55 19 -15 21 19 30 33 23 39 -6 6 -22 -3 -42 -24z"/>
 <path d="M4855 1810 c-4 -6 -3 -16 3 -22 6 -6 12 -6 17 2 4 6 3 16 -3 22 -6 6 -12 6 -17 -2z"/>
 <path d="M1696 1801 c-5 -8 15 -30 41 -45 26 -14 20 12 -7 32 -16 12 -31 18 -34 13z"/>
 <path d="M4760 1791 c-8 -15 -23 -21 -60 -23 -72 -4 -62 -23 12 -23 59 0 62 1 69 27 9 34 -6 47 -21 19z"/>
 <path d="M4916 1802 c-3 -5 3 -17 13 -26 11 -10 22 -13 25 -8 3 5 -3 17 -13 26 -11 10 -22 13 -25 8z"/>
 <path d="M5105 1800 c-4 -6 -3 -16 3 -22 6 -6 12 -6 17 2 4 6 3 16 -3 22 -6 6 -12 6 -17 -2z"/>
 <path d="M3647 1793 c-12 -11 -8 -22 12 -33 11 -5 22 -6 25 -1 7 11 -28 43 -37 34z"/>
 <path d="M3724 1786 c-8 -22 2 -33 28 -31 22 2 34 30 13 30 -5 0 -16 4 -23 8 -7 5 -14 2 -18 -7z"/>
 <path d="M3395 1776 c-11 -8 -14 -16 -8 -19 6 -4 18 0 28 7 11 8 14 16 8 19 -6 4 -18 0 -28 -7z"/>
 <path d="M4105 1780 c-4 -6 -3 -16 3 -22 6 -6 12 -6 17 2 4 6 3 16 -3 22 -6 6 -12 6 -17 -2z"/>
 <path d="M4195 1780 c-4 -6 -3 -16 3 -22 6 -6 12 -6 17 2 4 6 3 16 -3 22 -6 6 -12 6 -17 -2z"/>
 <path d="M4286 1782 c-3 -6 1 -15 8 -21 8 -7 17 -8 20 -3 3 6 -1 15 -8 21 -8 7 -17 8 -20 3z"/>
 <path d="M3865 1770 c-11 -17 5 -32 21 -19 7 6 11 15 8 20 -7 12 -21 11 -29 -1z"/>
 <path d="M3935 1770 c-4 -6 -3 -16 3 -22 6 -6 12 -6 17 2 4 6 3 16 -3 22 -6 6 -12 6 -17 -2z"/>
 <path d="M3515 1760 c-3 -5 0 -13 8 -16 23 -9 122 0 122 11 0 14 -122 19 -130 5z"/>
 <path d="M4841 1756 c-7 -8 -8 -17 -3 -20 6 -3 15 1 21 8 7 8 8 17 3 20 -6 3 -15 -1 -21 -8z"/>
 <path d="M2795 1748 c-9 -24 -1 -103 10 -103 14 0 19 95 6 108 -7 7 -12 5 -16 -5z"/>
 <path d="M2697 1744 c-9 -10 22 -66 33 -59 6 4 4 18 -5 36 -17 31 -18 32 -28 23z"/>
 <path d="M2536 1711 c-3 -5 5 -16 19 -25 24 -16 45 -6 22 11 -24 19 -36 23 -41 14z"/>
 <path d="M2935 1700 c-3 -5 -3 -16 2 -22 4 -7 8 -19 9 -26 3 -20 35 -52 45 -46 5 3 -2 20 -15 37 -13 18 -22 37 -19 44 5 15 -14 26 -22 13z"/>
 <path d="M3036 1702 c-3 -6 1 -15 8 -21 8 -7 17 -8 20 -3 3 6 -1 15 -8 21 -8 7 -17 8 -20 3z"/>
 <path d="M3085 1691 c-7 -12 12 -24 25 -16 11 7 4 25 -10 25 -5 0 -11 -4 -15 -9z"/>
 <path d="M2459 1689 c-11 -55 15 -99 58 -99 28 0 63 17 63 30 0 14 -38 31 -73 34 -18 1 -32 7 -32 13 0 11 -14 30 -16 22z"/>
 <path d="M5145 1661 c-7 -12 12 -24 25 -16 11 7 4 25 -10 25 -5 0 -11 -4 -15 -9z"/>
 <path d="M5222 1659 c-24 -9 -22 -29 2 -29 17 0 40 27 29 33 -4 3 -18 1 -31 -4z"/>
 </g>
<g id="layer5" fill="#f7e7d4" stroke="none">
 <path d="M2191 2186 c-13 -16 -11 -73 2 -68 4 1 10 12 13 25 3 12 12 26 20 30 16 9 9 27 -10 27 -8 0 -19 -6 -25 -14z"/>
 <path d="M2265 2190 c-6 -9 33 -30 55 -30 18 0 60 -55 73 -95 18 -51 23 -281 7 -300 -15 -18 6 -31 25 -15 12 10 15 40 15 136 0 67 -4 125 -9 128 -5 3 -7 14 -4 25 5 21 -19 75 -51 109 -38 43 -97 65 -111 42z"/>
 <path d="M1280 2145 c-14 -17 -9 -394 5 -398 6 -1 12 70 15 193 4 140 8 194 17 193 6 -1 26 -5 44 -8 19 -3 41 -13 50 -21 13 -12 19 -12 25 -3 10 16 -35 52 -58 46 -10 -3 -20 -1 -23 3 -8 13 -64 9 -75 -5z"/>
 <path d="M2205 2068 c-27 -5 -63 -20 -80 -32 -39 -30 -62 -73 -48 -87 7 -7 16 0 30 24 28 47 84 72 134 59 46 -12 61 1 33 27 -16 15 -27 16 -69 9z"/>
 <path d="M1450 2061 c-8 -6 -17 -8 -21 -5 -11 7 -22 -15 -15 -32 5 -12 12 -12 46 6 22 11 38 25 35 30 -8 12 -26 12 -45 1z"/>
 <path d="M1525 2060 c-4 -6 9 -17 27 -24 58 -25 81 -59 86 -127 l4 -60 -49 -48 c-43 -41 -54 -47 -90 -46 -24 0 -50 8 -61 18 -18 16 -20 16 -36 -2 -20 -22 -12 -30 26 -26 16 2 30 0 33 -5 3 -4 28 -7 55 -5 78 5 140 64 155 148 13 64 19 80 42 108 14 16 41 36 61 45 26 11 33 17 24 26 -8 8 -19 8 -41 -2 -32 -13 -91 -73 -91 -92 0 -6 -10 4 -23 23 -24 35 -81 79 -103 79 -7 0 -16 -5 -19 -10z"/>
 <path d="M1836 2061 c-3 -5 9 -18 28 -29 31 -18 36 -19 55 -6 13 9 38 14 64 12 l42 -3 3 -129 c2 -107 0 -132 -13 -146 -22 -24 0 -38 24 -16 13 12 20 13 29 4 18 -18 23 9 20 103 -2 61 -6 83 -15 82 -9 -2 -13 13 -13 50 0 70 -17 87 -91 87 -30 0 -60 -5 -67 -12 -9 -9 -15 -9 -24 0 -14 14 -35 16 -42 3z"/>
 <path d="M2508 2054 c-33 -18 -64 -72 -50 -86 7 -7 14 -2 23 13 14 28 35 46 67 59 13 6 20 14 17 20 -8 14 -25 12 -57 -6z"/>
 <path d="M2585 2059 c-4 -5 7 -15 24 -22 17 -6 31 -18 31 -27 0 -32 -12 -58 -24 -54 -16 6 -40 -22 -31 -36 5 -8 13 -6 26 6 10 9 19 13 19 8 1 -23 40 42 40 66 0 43 -67 90 -85 59z"/>
 <path d="M2726 2049 c-34 -27 -51 -58 -38 -71 7 -7 14 -3 21 10 6 11 27 30 46 42 19 12 33 26 29 31 -9 15 -29 10 -58 -12z"/>
 <path d="M2815 2060 c-3 -5 10 -16 30 -24 31 -13 35 -19 31 -43 -2 -15 -5 -32 -5 -36 -1 -5 -9 -6 -20 -2 -21 6 -46 -18 -36 -35 5 -8 13 -6 25 5 10 9 23 14 28 11 13 -7 36 20 28 33 -4 5 -2 12 4 16 18 11 10 43 -16 64 -28 22 -59 27 -69 11z"/>
 <path d="M2937 2052 c-12 -13 -17 -42 -19 -112 l-3 -95 -30 -1 c-16 0 -37 5 -47 13 -11 10 -18 11 -23 3 -10 -16 14 -40 38 -37 25 2 36 -35 17 -58 -8 -9 -8 -15 0 -20 17 -11 40 15 40 45 0 19 6 29 20 33 17 4 20 15 22 108 l3 104 48 3 c27 2 55 -2 62 -8 18 -15 31 6 15 25 -19 23 -122 20 -143 -3z"/>
 <path d="M3234 2051 c-60 -28 -110 -99 -86 -123 7 -7 15 0 25 24 15 35 51 65 102 84 30 11 37 27 13 31 -7 2 -31 -6 -54 -16z"/>
 <path d="M3346 2061 c-4 -6 5 -16 21 -22 65 -25 79 -36 100 -78 28 -54 31 -58 39 -38 9 25 -26 87 -65 112 -44 29 -86 40 -95 26z"/>
 <path d="M3520 2055 c-16 -19 -3 -40 15 -25 7 6 35 10 62 8 l48 -3 3 -82 c3 -79 4 -84 30 -97 16 -8 37 -14 47 -13 11 1 20 -4 19 -10 -1 -7 -2 -24 -2 -38 -2 -17 -10 -29 -28 -35 -14 -6 -22 -14 -19 -20 10 -16 41 -12 59 9 18 19 51 140 41 149 -3 3 0 11 5 18 6 6 12 27 14 46 6 65 20 78 85 78 l58 0 9 -47 c12 -62 34 -63 48 -3 l11 45 66 3 c66 3 67 3 72 -25 3 -15 8 -39 11 -53 3 -14 8 -38 11 -55 3 -16 10 -53 16 -81 5 -28 9 -57 7 -64 -5 -19 21 -24 28 -5 4 9 2 38 -3 65 -7 34 -7 48 1 47 6 -1 12 9 14 23 6 52 13 69 39 101 15 17 42 38 61 46 25 10 32 17 24 25 -29 29 -121 -49 -143 -122 -7 -21 -16 -37 -20 -34 -4 2 -6 11 -3 19 3 8 2 19 -2 26 -4 7 -8 28 -10 47 -5 59 -27 73 -108 70 -64 -3 -72 -5 -83 -28 -9 -18 -13 -20 -13 -8 0 26 -32 38 -99 38 -54 0 -62 -3 -77 -25 -9 -14 -14 -28 -10 -32 3 -3 1 -12 -4 -19 -6 -6 -12 -28 -14 -48 -2 -20 -6 -39 -10 -43 -3 -3 -6 -14 -6 -23 0 -17 -26 -19 -67 -5 -21 7 -23 13 -23 85 0 62 -4 80 -18 93 -24 22 -124 23 -142 2z"/>
 <path d="M4396 2061 c-3 -5 12 -18 34 -29 33 -16 42 -17 51 -6 14 17 100 19 116 3 16 -16 28 8 13 26 -15 18 -120 21 -137 4 -8 -8 -17 -8 -31 0 -25 13 -39 14 -46 2z"/>
 <path d="M4646 2051 c-14 -16 -16 -39 -14 -162 4 -192 22 -188 26 6 l3 145 52 0 c29 0 58 -5 64 -11 16 -16 28 8 13 26 -19 23 -122 20 -144 -4z"/>
 <path d="M4959 2047 c-42 -28 -82 -86 -76 -109 3 -10 1 -21 -5 -24 -5 -3 -8 -15 -5 -25 9 -33 -27 -29 -75 9 -23 19 -31 -1 -10 -27 9 -12 31 -23 47 -25 24 -2 31 -8 33 -29 3 -27 -13 -69 -26 -64 -4 1 -8 -2 -10 -8 -1 -5 8 -10 20 -10 16 0 28 10 39 33 8 19 18 33 22 33 4 -1 9 -1 12 -1 2 0 -3 15 -13 33 -39 69 4 168 86 204 18 7 30 18 27 23 -10 16 -29 12 -66 -13z"/>
 <path d="M5046 2061 c-3 -5 12 -18 34 -29 33 -16 42 -17 51 -6 14 17 100 19 116 3 16 -16 28 8 13 26 -15 18 -120 21 -137 4 -8 -8 -17 -8 -31 0 -25 13 -39 14 -46 2z"/>
 <path d="M1431 1946 c-35 -42 -4 -106 50 -102 34 3 54 27 44 54 -5 14 -9 12 -28 -12 l-22 -27 -23 24 c-20 21 -21 26 -8 36 8 7 23 12 33 11 31 -4 36 0 23 15 -16 19 -54 19 -69 1z"/>
 <path d="M1806 1938 c-21 -29 -20 -40 4 -70 33 -43 114 -28 96 18 -6 15 -9 15 -30 -5 -22 -21 -23 -21 -40 -3 -20 23 -12 50 17 54 29 4 24 22 -7 26 -16 2 -29 -4 -40 -20z"/>
 <path d="M2211 1941 c-13 -24 -4 -33 19 -19 14 9 22 9 33 0 21 -18 30 -1 10 20 -21 23 -50 23 -62 -1z"/>
 <path d="M2676 1953 c-3 -3 -6 -26 -6 -51 0 -31 -5 -49 -17 -58 -24 -17 -6 -35 25 -23 19 7 22 15 22 68 0 56 -9 79 -24 64z"/>
 <path d="M3282 1948 c-19 -19 -14 -76 9 -99 35 -35 92 -6 87 45 -4 37 -22 41 -27 6 -3 -28 -18 -41 -38 -33 -15 6 -18 59 -3 68 11 7 4 25 -9 25 -4 0 -12 -5 -19 -12z"/>
 <path d="M4381 1946 c-50 -60 25 -135 85 -85 21 17 17 53 -9 77 -27 25 -59 28 -76 8z m67 -39 c2 -10 -2 -25 -9 -33 -10 -13 -15 -12 -35 7 -19 17 -21 25 -12 36 15 19 52 12 56 -10z"/>
 <path d="M5026 1938 c-21 -29 -20 -40 5 -72 15 -19 27 -25 46 -22 57 11 71 60 27 95 -34 27 -59 27 -78 -1z m72 -34 c2 -11 -3 -26 -11 -32 -18 -16 -50 17 -41 42 9 24 48 16 52 -10z"/>
 <path d="M3480 1876 c-5 -15 -10 -31 -10 -36 0 -18 -71 -69 -105 -76 -40 -7 -54 -21 -30 -30 45 -18 156 62 171 122 10 37 -12 55 -26 20z"/>
 <path d="M3905 1881 c-3 -5 -9 -31 -15 -58 -5 -27 -10 -54 -12 -59 -5 -16 14 -20 23 -4 31 59 38 83 29 106 -10 26 -16 29 -25 15z"/>
 <path d="M4077 1883 c-5 -8 -29 -119 -28 -128 2 -14 17 -5 28 16 7 13 18 24 25 24 7 0 13 7 13 15 0 8 -6 14 -13 12 -10 -2 -10 2 -2 19 7 11 9 27 6 35 -6 15 -22 19 -29 7z"/>
 <path d="M3065 1860 c-10 -17 22 -47 35 -34 7 7 4 16 -9 28 -14 12 -21 14 -26 6z"/>
 <path d="M3137 1852 c-15 -17 -16 -21 -3 -31 12 -10 17 -8 26 9 16 30 -1 46 -23 22z"/>
 <path d="M3166 1812 c-3 -5 5 -19 18 -31 13 -13 26 -18 30 -13 3 5 -5 19 -18 31 -13 13 -26 18 -30 13z"/>
 <path d="M1869 1778 c-15 -11 -40 -21 -55 -22 -39 -2 -37 -20 2 -23 31 -2 94 29 94 46 0 19 -15 18 -41 -1z"/>
 <path d="M4438 1777 c-15 -11 -43 -20 -62 -21 -51 -1 -50 -21 0 -23 57 -2 128 42 97 60 -5 3 -20 -4 -35 -16z"/>
 <path d="M2201 1772 c-13 -25 2 -38 19 -16 9 10 10 18 3 25 -8 8 -14 5 -22 -9z"/>
 <path d="M4771 1771 c-14 -24 0 -35 23 -18 16 12 16 14 3 26 -13 10 -17 9 -26 -8z"/>
 <path d="M5089 1775 c-9 -9 -32 -17 -52 -18 -48 -3 -53 -21 -7 -23 43 -2 103 21 98 38 -6 18 -22 20 -39 3z"/>
 <path d="M2581 1766 c-9 -10 -9 -16 -1 -21 17 -10 37 12 24 25 -8 8 -15 6 -23 -4z"/>
 <path d="M3131 1766 c-9 -10 -9 -16 -1 -21 17 -10 37 12 24 25 -8 8 -15 6 -23 -4z"/>
 <path d="M3634 1769 c-10 -17 13 -36 27 -22 12 12 4 33 -11 33 -5 0 -12 -5 -16 -11z"/>
 <path d="M4586 1761 c-12 -14 -14 -21 -6 -26 17 -10 47 22 34 35 -7 7 -16 4 -28 -9z"/>
 <path d="M3235 1760 c-3 -5 -4 -11 -1 -11 13 -3 22 -6 39 -14 11 -4 23 -3 29 3 8 8 7 13 -6 18 -9 4 -20 4 -23 0 -3 -3 -12 -1 -19 5 -8 7 -14 7 -19 -1z"/>
 <path d="M2687 1754 c-9 -10 42 -106 53 -99 6 4 -1 27 -15 56 -27 51 -28 53 -38 43z"/>
 <path d="M2815 1750 c-11 -17 5 -32 21 -19 7 6 11 15 8 20 -7 12 -21 11 -29 -1z"/>
 <path d="M2924 1746 c-4 -10 -2 -22 4 -28 8 -8 13 -7 18 6 4 10 2 22 -4 28 -8 8 -13 7 -18 -6z"/>
 <path d="M3053 1744 c-10 -27 11 -49 51 -52 30 -3 36 -7 36 -26 0 -32 -22 -48 -75 -54 -49 -5 -67 -18 -40 -28 27 -11 124 15 135 36 15 28 12 76 -6 91 -9 7 -30 12 -46 10 -23 -2 -29 1 -26 15 4 23 -20 30 -29 8z"/>
 <path d="M2504 1740 c-27 -11 -64 -57 -64 -80 0 -19 37 -71 48 -68 4 1 15 -2 25 -7 26 -11 85 19 98 49 17 36 3 74 -34 96 -35 22 -42 23 -73 10z m74 -48 c16 -21 15 -25 -8 -54 -37 -47 -101 -36 -100 18 1 56 73 80 108 36z"/>
 <path d="M2935 1680 c-4 -6 -3 -16 3 -22 6 -6 12 -6 17 2 4 6 3 16 -3 22 -6 6 -12 6 -17 -2z"/>
 <path d="M2811 1662 c-13 -25 2 -38 19 -16 9 10 10 18 3 25 -8 8 -14 5 -22 -9z"/>
 <path d="M5241 1662 c-13 -25 2 -38 19 -16 9 10 10 18 3 25 -8 8 -14 5 -22 -9z"/>
 <path d="M5115 1661 c-7 -12 12 -24 25 -16 11 7 4 25 -10 25 -5 0 -11 -4 -15 -9z"/>
 <path d="M5185 1651 c-7 -12 12 -24 25 -16 11 7 4 25 -10 25 -5 0 -11 -4 -15 -9z"/>
 <path d="M2956 1632 c-3 -6 1 -15 8 -21 8 -7 17 -8 20 -3 3 6 -1 15 -8 21 -8 7 -17 8 -20 3z"/>
 <path d="M3785 1411 c-7 -12 12 -24 25 -16 11 7 4 25 -10 25 -5 0 -11 -4 -15 -9z"/>
 <path d="M3886 1372 c-3 -6 1 -15 8 -21 8 -7 17 -8 20 -3 3 6 -1 15 -8 21 -8 7 -17 8 -20 3z"/>
 <path d="M3404 1346 c-8 -21 3 -49 16 -41 5 3 10 15 10 25 0 25 -18 36 -26 16z"/>
 <path d="M3927 1343 c-4 -6 11 -27 32 -47 21 -21 41 -34 44 -29 4 6 -11 27 -32 47 -21 21 -41 34 -44 29z"/>
 <path d="M3517 1293 c-4 -5 16 -31 42 -57 27 -26 51 -44 54 -39 4 5 -16 31 -42 57 -27 26 -51 44 -54 39z"/>
 <path d="M3745 1290 c-4 -6 -3 -16 3 -22 6 -6 12 -6 17 2 4 6 3 16 -3 22 -6 6 -12 6 -17 -2z"/>
 <path d="M3755 1239 c-4 -6 -3 -15 3 -21 6 -6 8 -16 6 -23 -3 -7 -1 -16 5 -19 14 -9 25 14 13 26 -6 6 -8 16 -6 23 7 17 -12 29 -21 14z"/>
 <path d="M4017 1244 c-3 -6 4 -23 17 -39 13 -15 25 -24 29 -19 3 6 -4 23 -17 39 -13 15 -25 24 -29 19z"/>
 <path d="M3425 1220 c-4 -6 -3 -16 3 -22 6 -6 12 -6 17 2 4 6 3 16 -3 22 -6 6 -12 6 -17 -2z"/>
 <path d="M3706 1102 c-3 -5 3 -17 13 -26 11 -10 22 -13 25 -8 3 5 -3 17 -13 26 -11 10 -22 13 -25 8z"/>
 <path d="M3795 1100 c-4 -6 -3 -16 3 -22 6 -6 12 -6 17 2 4 6 3 16 -3 22 -6 6 -12 6 -17 -2z"/>
 <path d="M4107 1094 c-8 -9 34 -75 44 -68 5 3 2 18 -6 34 -16 31 -29 43 -38 34z"/>
 <path d="M3476 1082 c-3 -6 1 -15 8 -21 8 -7 17 -8 20 -3 3 6 -1 15 -8 21 -8 7 -17 8 -20 3z"/>
 <path d="M3766 1051 c-8 -13 31 -40 52 -37 9 2 17 9 17 17 0 8 -8 13 -18 11 -10 -2 -24 2 -32 8 -8 7 -15 7 -19 1z"/>
 <path d="M3507 1042 c-4 -5 9 -23 27 -41 19 -18 36 -29 39 -23 4 5 -9 23 -27 41 -19 18 -36 29 -39 23z"/>
 <path d="M3266 991 c-8 -12 21 -34 34 -26 8 5 8 11 -1 21 -13 16 -25 18 -33 5z"/>
 <path d="M3191 966 c-9 -10 -9 -16 -1 -21 13 -8 42 14 34 26 -8 13 -20 11 -33 -5z"/>
 <path d="M3325 950 c-5 -9 50 -50 67 -50 22 0 14 23 -14 40 -37 23 -44 24 -53 10z"/>
 <path d="M3636 942 c-3 -6 1 -15 8 -21 8 -7 17 -8 20 -3 3 6 -1 15 -8 21 -8 7 -17 8 -20 3z"/>
 <path d="M3095 928 c-16 -6 -36 -15 -43 -21 -22 -18 3 -28 39 -16 42 15 61 28 53 40 -6 11 -10 10 -49 -3z"/>
 <path d="M3726 882 c-3 -6 1 -15 8 -21 8 -7 17 -8 20 -3 3 6 -1 15 -8 21 -8 7 -17 8 -20 3z"/>
 <path d="M2951 866 c-9 -10 -9 -16 -1 -21 13 -8 42 14 34 26 -8 13 -20 11 -33 -5z"/>
 <path d="M4206 872 c-3 -6 -1 -23 6 -39 6 -15 10 -33 9 -40 -2 -16 16 -26 24 -13 3 5 3 15 -1 22 -4 7 -9 23 -10 37 -3 29 -19 47 -28 33z"/>
 <path d="M3786 822 c-3 -6 1 -15 8 -21 8 -7 17 -8 20 -3 3 6 -1 15 -8 21 -8 7 -17 8 -20 3z"/>
 <path d="M3237 762 c-30 -31 -25 -53 5 -25 17 15 21 15 55 -1 24 -11 39 -14 46 -7 7 7 1 14 -19 21 -16 6 -36 18 -45 26 -13 12 -19 10 -42 -14z"/>
 <path d="M3565 757 c-9 -14 -26 -27 -38 -31 -16 -4 -19 -8 -10 -17 13 -13 38 -2 67 30 14 16 16 25 9 32 -8 8 -16 4 -28 -14z"/>
 <path d="M3817 763 c-8 -14 -2 -53 8 -56 12 -3 17 51 5 58 -5 3 -11 2 -13 -2z"/>
 <path d="M2926 752 c-3 -5 3 -17 13 -26 11 -10 22 -13 25 -8 3 5 -3 17 -13 26 -11 10 -22 13 -25 8z"/>
 <path d="M4235 740 c-4 -6 -3 -16 3 -22 6 -6 12 -6 17 2 4 6 3 16 -3 22 -6 6 -12 6 -17 -2z"/>
 <path d="M3375 721 c-7 -12 12 -24 25 -16 11 7 4 25 -10 25 -5 0 -11 -4 -15 -9z"/>
 <path d="M3146 711 c-3 -5 -15 -7 -25 -4 -10 3 -22 0 -26 -6 -8 -14 20 -25 37 -15 7 5 18 9 23 9 14 0 19 19 7 23 -6 2 -13 -1 -16 -7z"/>
 <path d="M3025 701 c-7 -12 12 -24 25 -16 11 7 4 25 -10 25 -5 0 -11 -4 -15 -9z"/>
 <path d="M3745 651 c-7 -12 12 -24 25 -16 11 7 4 25 -10 25 -5 0 -11 -4 -15 -9z"/>
 <path d="M4235 650 c-4 -6 -3 -16 3 -22 6 -6 12 -6 17 2 4 6 3 16 -3 22 -6 6 -12 6 -17 -2z"/>
 <path d="M4191 526 c-7 -8 -8 -17 -3 -20 6 -3 15 1 21 8 7 8 8 17 3 20 -6 3 -15 -1 -21 -8z"/>
 <path d="M4055 431 c-7 -12 12 -24 25 -16 11 7 4 25 -10 25 -5 0 -11 -4 -15 -9z"/>
 <path d="M3825 411 c-7 -12 12 -24 25 -16 11 7 4 25 -10 25 -5 0 -11 -4 -15 -9z"/>
 <path d="M4016 332 c-3 -6 1 -15 8 -21 8 -7 17 -8 20 -3 3 6 -1 15 -8 21 -8 7 -17 8 -20 3z"/>
 <path d="M3905 260 c-4 -6 -3 -16 3 -22 6 -6 12 -6 17 2 4 6 3 16 -3 22 -6 6 -12 6 -17 -2z"/>
 <path d="M3945 220 c-8 -12 20 -24 35 -15 6 3 8 11 5 16 -8 12 -32 12 -40 -1z"/>
 </g>
<g id="layer6" fill="#bc2121" stroke="none">
 <path d="M3243 977 c-14 -25 -63 -50 -166 -86 -82 -30 -105 -43 -130 -73 -29 -36 -29 -38 -13 -62 30 -47 64 -61 146 -61 78 0 120 15 160 55 19 19 20 19 68 -6 108 -56 245 -52 266 8 16 45 -12 72 -142 134 -64 31 -131 67 -149 80 -25 19 -34 21 -40 11z"/>
 </g>
<g id="layer7" fill="#0157ad" stroke="none">
 <path d="M2721 886 c-7 -8 -8 -17 -3 -20 6 -3 15 1 21 8 7 8 8 17 3 20 -6 3 -15 -1 -21 -8z"/>
 <path d="M2459 851 c-1 -3 0 -15 1 -26 2 -16 -1 -17 -13 -7 -10 9 -17 10 -22 2 -8 -13 4 -32 16 -25 5 4 9 -1 9 -10 0 -9 -5 -13 -10 -10 -11 7 -22 -15 -24 -48 -1 -13 -8 -22 -17 -22 -23 0 -121 -63 -115 -74 3 -5 -1 -14 -9 -21 -8 -7 -15 -16 -15 -21 0 -16 66 -77 105 -98 22 -11 36 -20 32 -21 -4 0 -22 7 -39 16 -21 11 -33 13 -41 5 -7 -7 -3 -13 15 -20 33 -12 43 -52 23 -91 -41 -79 89 -137 164 -74 51 42 57 62 29 91 -21 23 -21 25 -3 20 76 -23 206 -48 294 -58 195 -21 368 15 477 97 l36 28 -23 18 c-12 11 -29 16 -38 13 -40 -16 -123 -20 -211 -10 -91 11 -63 3 -195 56 -67 27 -142 83 -167 125 -11 18 -24 32 -29 29 -8 -6 -13 9 -23 70 -12 75 -4 70 -109 71 -54 1 -98 -2 -98 -5z m32 -416 c34 -16 34 -16 4 -10 -16 4 -34 11 -39 16 -14 13 -3 11 35 -6z"/>
 </g>
<g id="layer8" fill="#014991" stroke="none">
 <path d="M2655 1384 c-257 -209 -359 -377 -286 -474 61 -83 75 -136 46 -178 -9 -12 -47 -42 -86 -67 -75 -49 -78 -56 -43 -113 20 -31 36 -18 19 15 -19 36 -7 54 59 92 61 34 84 62 106 130 l15 46 73 1 c81 1 92 -7 92 -66 0 -35 11 -59 47 -108 30 -40 52 -32 23 8 -32 46 -37 110 -10 162 26 53 69 81 250 164 139 64 243 128 308 191 81 77 44 104 -141 104 -127 0 -215 -11 -288 -36 -23 -8 -42 -15 -43 -15 -1 0 -2 31 -2 69 1 56 -3 75 -20 98 -12 15 -27 29 -35 31 -8 1 -46 -23 -84 -54z"/>
 <path d="M3327 524 c-23 -12 -26 -18 -17 -35 12 -21 21 -19 57 14 38 34 11 49 -40 21z"/>
 <path d="M2336 481 c-7 -11 28 -43 37 -34 12 11 8 22 -12 33 -11 5 -22 6 -25 1z"/>
 </g>
<g id="layer9" fill="#8db13e" stroke="none">
 <path d="M3767 1393 c-8 -10 -18 -29 -22 -43 -7 -31 16 -151 50 -249 13 -39 20 -71 15 -71 -17 0 -109 82 -239 214 -142 143 -161 152 -161 81 0 -57 31 -189 53 -225 39 -64 101 -122 197 -184 137 -89 178 -148 151 -214 -22 -53 -40 -57 -241 -57 -163 0 -189 -2 -214 -18 -25 -17 -26 -20 -13 -40 41 -64 307 -162 519 -192 46 -6 47 -7 36 -31 -14 -29 5 -126 28 -145 35 -29 134 12 134 56 0 19 -48 74 -82 95 l-28 17 66 17 c217 53 286 211 203 462 -80 241 -227 457 -357 523 -50 26 -74 26 -95 4z"/>
 </g>
<g id="layer10" fill="#fe9b3b" stroke="none">
 <path d="M2208 2170 c-30 -19 -15 -116 16 -104 15 6 56 -28 56 -46 0 -6 -11 -3 -25 6 -40 26 -100 13 -144 -30 l-36 -36 0 -108 0 -107 60 0 60 0 3 85 c3 87 12 110 43 110 27 0 34 -18 39 -110 l5 -85 60 0 60 0 3 110 c5 186 -11 248 -78 296 -31 23 -99 33 -122 19z"/>
 <path d="M1285 2132 c-10 -10 -5 -311 5 -317 13 -8 45 -15 92 -20 20 -2 56 -6 80 -10 23 -3 54 -8 68 -9 14 -2 30 -5 35 -6 24 -6 36 3 56 41 27 54 27 119 0 163 -29 47 -59 64 -119 67 -43 2 -54 -1 -71 -22 l-20 -24 -1 58 c0 37 -5 59 -12 62 -27 10 -108 22 -113 17z m217 -217 c22 -49 -25 -96 -68 -67 -18 12 -26 50 -14 72 16 30 67 27 82 -5z"/>
 <path d="M2485 2018 c-28 -34 -37 -85 -33 -193 l3 -80 59 -3 c32 -2 63 1 69 7 5 5 10 49 11 98 1 81 3 88 21 88 16 0 21 8 23 41 4 52 -12 65 -78 68 -45 2 -54 -1 -75 -26z"/>
 <path d="M2752 2043 c-12 -2 -33 -19 -47 -37 -21 -28 -25 -44 -25 -105 0 -40 -4 -70 -9 -67 -16 10 -32 -22 -29 -56 2 -27 8 -34 29 -36 20 -2 31 -14 50 -55 22 -48 27 -52 59 -52 l34 0 -3 52 -2 52 33 3 c31 3 33 5 33 43 0 38 -2 40 -32 43 -32 3 -33 5 -33 47 0 45 11 60 45 60 16 0 21 8 23 43 3 40 1 43 -32 57 -35 15 -51 16 -94 8z"/>
 <path d="M3253 2038 c-17 -6 -48 -27 -68 -48 -32 -33 -37 -45 -38 -87 -1 -60 22 -105 70 -138 65 -44 181 -28 235 32 24 26 38 97 27 136 -17 61 -100 119 -168 116 -14 -1 -40 -6 -58 -11z m91 -104 c19 -18 21 -65 4 -82 -7 -7 -21 -12 -33 -12 -29 0 -45 19 -45 51 0 29 23 59 45 59 7 0 21 -7 29 -16z"/>
 <path d="M4335 2043 c-51 -12 -105 -92 -105 -154 0 -107 128 -188 203 -129 25 20 25 20 30 -1 5 -18 12 -20 69 -17 l63 3 0 145 0 145 -58 3 c-32 2 -64 -1 -70 -7 -8 -6 -21 -5 -37 4 -25 14 -58 17 -95 8z m118 -124 c14 -23 1 -67 -23 -74 -46 -15 -82 49 -48 83 17 17 58 11 71 -9z"/>
 <path d="M4983 2043 c-13 -2 -38 -23 -58 -45 -61 -72 -59 -143 7 -214 38 -41 44 -44 93 -44 37 0 57 5 66 17 12 14 15 9 19 -43 l5 -59 52 -9 c87 -15 84 -23 81 196 l-3 193 -58 3 c-32 2 -64 -1 -70 -7 -8 -6 -21 -5 -37 4 -25 14 -54 16 -97 8z m115 -115 c21 -21 15 -67 -12 -79 -34 -16 -66 3 -66 39 0 33 16 52 45 52 12 0 26 -5 33 -12z"/>
 <path d="M1735 2020 c-17 -11 -41 -38 -54 -60 -19 -34 -22 -49 -16 -90 6 -43 13 -56 52 -90 53 -47 103 -54 146 -20 25 20 25 20 30 -1 5 -18 12 -20 69 -17 l63 3 0 145 0 145 -58 3 c-51 3 -58 1 -65 -18 l-8 -21 -18 20 c-25 28 -99 28 -141 1z m141 -88 c33 -22 15 -92 -24 -92 -45 0 -76 69 -41 91 17 11 50 11 65 1z"/>
 <path d="M2937 2034 c-4 -4 -7 -51 -7 -105 0 -77 -3 -98 -15 -103 -20 -7 -20 -75 -1 -82 8 -3 18 -24 21 -46 4 -22 20 -54 37 -74 25 -28 37 -34 70 -34 21 0 53 7 69 16 26 13 30 20 27 52 -3 37 -3 37 -45 34 -40 -4 -43 -2 -43 22 0 23 4 26 38 26 48 0 61 13 53 53 -6 28 -11 32 -45 35 l-38 3 4 102 3 102 -60 3 c-34 2 -64 0 -68 -4z"/>
 <path d="M3515 2027 c-3 -7 -4 -71 -3 -143 l3 -129 63 -3 c50 -2 63 0 68 13 6 14 9 13 29 -5 33 -31 57 -22 69 24 7 33 6 41 -10 53 -10 7 -28 13 -40 13 -34 0 -43 20 -46 105 l-3 80 -63 3 c-45 2 -64 -1 -67 -11z"/>
 <path d="M3814 2029 c-4 -7 -13 -44 -21 -83 -8 -39 -20 -99 -27 -133 -7 -35 -11 -65 -8 -68 3 -3 29 -5 58 -5 62 0 69 8 80 88 8 62 19 60 29 -5 11 -73 19 -83 70 -83 24 0 47 5 51 12 4 7 15 44 24 83 l16 70 8 -59 c13 -97 18 -106 70 -106 25 0 47 3 49 8 6 12 -48 271 -59 282 -6 6 -40 10 -80 8 l-69 -3 -11 -55 -10 -55 -8 45 c-5 25 -13 51 -18 58 -13 15 -134 16 -144 1z"/>
 <path d="M4645 2027 c-3 -7 -4 -71 -3 -143 l3 -129 55 -3 c40 -2 57 1 66 12 10 14 13 14 29 -4 37 -41 71 -20 77 45 3 36 1 40 -22 43 -71 8 -69 4 -72 100 l-3 87 -63 3 c-45 2 -64 -1 -67 -11z"/>
 <path d="M2475 1695 c-38 -37 -31 -55 24 -60 14 -2 38 -6 52 -10 55 -14 60 42 7 79 -32 22 -55 20 -83 -9z"/>
 </g>
<g id="layer11" fill="#ffffff" stroke="none">
 <path d="M0 1500 l0 -1500 3250 0 3250 0 0 1500 0 1500 -3250 0 -3250 0 0 -1500z m2343 657 c32 -21 71 -92 64 -118 -3 -11 -1 -22 4 -25 5 -3 9 -61 9 -130 l0 -124 -65 0 -65 0 0 77 c0 57 -4 81 -17 95 -21 23 -36 23 -58 -2 -14 -15 -17 -33 -13 -95 l3 -75 -64 0 -64 0 5 103 c6 140 34 178 132 183 28 1 53 3 55 3 11 3 -24 31 -39 31 -12 0 -20 11 -24 31 -13 65 -11 66 52 65 37 -1 69 -8 85 -19z m-987 -28 c3 -5 10 -7 15 -4 5 4 18 3 29 0 15 -5 18 -12 13 -36 -7 -35 12 -62 36 -50 28 14 117 6 146 -13 15 -10 36 -38 46 -62 11 -24 22 -44 24 -44 2 0 13 20 24 44 10 24 31 52 46 62 30 20 122 27 143 11 8 -6 17 -5 26 2 9 7 38 11 73 9 l58 -3 0 -145 0 -145 -60 3 c-33 2 -64 8 -69 12 -5 5 -21 3 -36 -5 -31 -16 -84 -14 -125 6 -26 13 -64 69 -69 104 -3 20 -19 20 -22 0 -5 -36 -42 -89 -73 -106 -23 -12 -48 -16 -84 -13 -29 2 -87 4 -129 3 l-78 0 0 189 0 189 30 1 c16 0 32 -4 36 -9z m1282 -93 c22 -14 12 -86 -13 -86 -6 0 -20 -9 -29 -19 -14 -16 -17 -34 -14 -95 l3 -76 -57 0 -58 0 0 110 c0 116 9 152 44 168 24 11 105 10 124 -2z m243 -3 c16 -16 1 -83 -19 -83 -25 0 -52 -31 -52 -60 0 -48 65 -82 112 -58 14 7 18 26 20 111 l3 102 60 3 60 3 -4 -91 c-3 -85 -1 -93 20 -116 13 -14 30 -23 39 -21 11 3 15 -5 15 -30 0 -29 -3 -33 -26 -33 -31 0 -54 -23 -45 -46 4 -11 16 -15 43 -12 37 3 38 2 41 -34 3 -41 -8 -51 -70 -63 -76 -14 -117 19 -132 107 -8 44 -18 52 -64 50 -51 -2 -75 -28 -69 -74 5 -37 5 -38 -29 -38 -30 0 -36 5 -60 51 -14 28 -34 54 -45 56 -24 7 -27 68 -4 77 10 4 15 20 15 53 1 68 16 125 39 144 23 19 134 20 152 2z m546 -8 c42 -24 55 -50 59 -115 6 -103 -61 -162 -176 -155 -104 6 -150 52 -150 147 0 66 22 106 71 127 51 23 154 21 196 -4z m233 -64 c5 -81 6 -85 35 -101 32 -18 70 -20 84 -4 5 5 14 34 20 64 7 30 16 72 22 93 l10 37 64 0 65 0 15 -36 c16 -40 30 -38 40 6 7 30 7 30 75 30 38 0 72 -4 75 -10 3 -5 7 -24 9 -42 2 -18 7 -41 11 -51 4 -10 5 -21 1 -24 -3 -3 -2 -11 3 -17 9 -11 31 -105 31 -131 0 -11 -13 -15 -49 -15 l-49 0 -8 46 c-5 25 -13 46 -19 47 -5 1 -16 -19 -24 -45 l-15 -48 -52 0 c-51 0 -52 0 -58 34 -7 34 -30 64 -39 49 -2 -4 -7 -25 -11 -46 l-7 -38 -67 1 c-37 1 -75 -1 -86 -5 -11 -5 -29 -2 -46 9 -18 10 -31 13 -35 6 -3 -5 -33 -10 -66 -10 l-59 0 0 145 0 146 63 -3 62 -3 5 -84z m791 75 c10 -4 20 -3 24 3 3 6 32 11 63 11 l57 0 0 -148 0 -148 -55 4 c-30 2 -59 8 -64 13 -5 4 -21 2 -35 -5 -30 -15 -84 -15 -121 1 -37 16 -57 43 -71 95 -12 42 -11 53 7 95 26 64 68 92 132 88 26 -1 54 -6 63 -9z m321 -56 c-5 -77 5 -97 58 -123 43 -22 63 -8 66 46 4 56 25 101 60 124 30 19 109 26 138 11 12 -7 22 -6 29 1 6 6 36 11 66 11 l56 0 0 -201 0 -201 -42 6 c-22 3 -47 7 -55 8 -8 2 -15 22 -18 53 -4 43 -8 50 -25 47 -101 -14 -150 -2 -187 49 -26 35 -34 31 -42 -22 -6 -39 -8 -41 -34 -34 -15 3 -64 6 -109 5 l-83 -2 0 140 c0 76 3 142 7 145 3 4 32 7 62 7 l57 0 -4 -70z m-2208 -262 c48 -21 46 -87 -2 -107 -36 -15 -79 -5 -93 21 -12 22 -4 69 10 65 5 -1 9 2 9 8 0 8 26 22 44 24 4 1 18 -4 32 -11z m203 -338 c8 -21 11 -58 7 -93 -3 -31 -3 -61 0 -66 4 -5 28 -1 54 9 75 29 165 41 292 41 180 0 203 -13 136 -76 -59 -55 -166 -119 -319 -190 -194 -90 -267 -155 -267 -239 0 -90 111 -189 280 -252 66 -24 89 -27 200 -28 93 0 137 4 170 16 l45 17 -35 -31 c-69 -60 -183 -100 -323 -114 -152 -15 -438 42 -600 119 -150 71 -161 105 -56 172 110 71 121 126 46 232 -51 72 -41 138 37 247 71 98 274 280 306 274 8 -2 21 -19 27 -38z m1088 -6 c61 -28 161 -121 190 -177 9 -18 27 -50 40 -72 14 -22 34 -60 45 -85 12 -25 25 -53 30 -62 6 -10 10 -22 10 -28 0 -5 11 -33 24 -62 29 -66 37 -101 41 -186 9 -234 -174 -336 -485 -268 -129 28 -209 55 -310 106 -138 69 -116 85 120 85 155 0 180 2 215 20 44 22 65 64 57 117 -5 34 -96 131 -148 158 -95 50 -169 115 -203 180 -30 60 -68 237 -53 252 6 6 65 -47 163 -144 147 -147 218 -205 232 -191 10 9 9 40 -2 61 -45 88 -71 271 -42 305 17 21 8 22 76 -9z m-567 -406 c-2 -6 19 -19 46 -29 26 -10 55 -24 65 -32 9 -7 47 -28 84 -46 56 -27 72 -40 84 -69 14 -34 14 -37 -7 -54 -17 -14 -40 -18 -96 -18 -40 0 -83 4 -96 9 -13 5 -42 17 -65 26 -34 14 -46 15 -57 6 -64 -53 -179 -71 -257 -41 -36 14 -42 22 -45 49 -2 18 1 42 8 54 7 12 11 25 10 30 -1 4 5 7 15 7 9 0 40 11 70 26 30 14 67 27 83 29 34 4 70 22 70 35 0 6 9 10 19 10 11 0 23 5 26 10 9 14 46 13 43 -2z m-837 -550 c4 -6 22 -13 40 -15 33 -3 59 -19 59 -35 0 -5 -13 -23 -29 -39 -23 -22 -39 -29 -69 -29 -77 0 -104 28 -76 81 12 25 14 37 5 55 l-11 24 37 -15 c21 -9 40 -21 44 -27z m1536 -75 c65 -42 68 -90 8 -112 -52 -18 -71 -3 -80 64 -10 84 4 93 72 48z"/>
 <path d="M1431 1926 l-22 -23 32 -32 c30 -31 32 -31 51 -14 36 32 40 51 18 73 -26 26 -52 25 -79 -4z"/>
 <path d="M1815 1926 c-18 -27 -12 -49 20 -70 21 -14 25 -13 49 9 31 28 33 46 8 68 -26 24 -59 21 -77 -7z"/>
 <path d="M3297 1942 c-24 -26 -21 -68 5 -86 19 -13 25 -14 43 -2 26 17 31 62 9 87 -21 24 -36 24 -57 1z"/>
 <path d="M4381 1926 l-22 -23 32 -32 32 -32 23 22 c29 27 30 50 6 72 -25 23 -45 21 -71 -7z"/>
 <path d="M5036 1928 c-21 -30 -20 -35 11 -64 l26 -24 24 22 c28 26 29 49 5 71 -25 23 -48 21 -66 -5z"/>
 </g>

</svg>