<!DOCTYPE svg PUBLIC "-//W3C//DTD SVG 20010904//EN" "http://www.w3.org/TR/2001/REC-SVG-20010904/DTD/svg10.dtd">
<svg version="1.0" xmlns="http://www.w3.org/2000/svg" width="800px" height="400px" viewBox="0 0 8000 4000" preserveAspectRatio="xMidYMid meet">
<g id="layer1" fill="#a03b3b" stroke="none">
 <path d="M4046 1352 c-3 -6 1 -15 8 -21 8 -7 17 -8 20 -3 3 6 -1 15 -8 21 -8 7 -17 8 -20 3z"/>
 <path d="M3935 1336 c-11 -8 -14 -16 -8 -19 6 -4 18 0 28 7 11 8 14 16 8 19 -6 4 -18 0 -28 -7z"/>
 <path d="M3852 1299 c-13 -5 -28 -7 -32 -4 -13 8 -24 -15 -12 -27 12 -12 86 18 77 32 -3 5 -7 10 -8 9 -1 0 -13 -4 -25 -10z"/>
 <path d="M4125 1299 c-7 -10 55 -40 68 -32 12 7 -1 20 -33 31 -19 7 -32 7 -35 1z"/>
 <path d="M3712 1249 c-13 -5 -20 -13 -17 -19 8 -13 18 -13 40 3 23 17 8 28 -23 16z"/>
 <path d="M4245 1250 c-3 -5 8 -16 24 -25 18 -9 32 -11 36 -5 3 5 -8 16 -24 25 -18 9 -32 11 -36 5z"/>
 </g>
<g id="layer2" fill="#b25d5b" stroke="none">
 <path d="M3976 1381 c-26 -28 -131 -77 -231 -106 -72 -21 -121 -55 -127 -89 -8 -39 0 -38 41 3 26 26 54 42 87 50 27 7 55 17 62 23 7 6 15 8 18 5 5 -4 85 35 160 79 32 18 32 18 65 -8 29 -21 112 -69 129 -73 49 -13 151 -67 179 -96 37 -36 34 -59 -10 -82 -27 -14 -48 -17 -101 -13 -64 5 -92 -4 -67 -20 7 -4 37 -9 68 -11 44 -3 66 1 101 19 25 13 46 29 46 36 1 6 2 13 4 15 1 1 3 13 5 27 4 34 -65 100 -130 124 -62 23 -205 94 -225 111 -29 24 -56 26 -74 6z"/>
 <path d="M3974 1119 c-15 -16 -49 -36 -75 -44 -27 -9 -51 -20 -54 -25 -22 -36 94 3 135 45 l33 34 39 -26 c21 -15 47 -27 56 -28 10 0 23 -4 29 -8 6 -4 14 -3 18 3 3 5 4 11 1 11 -28 6 -73 26 -102 46 -39 25 -49 24 -80 -8z"/>
 <path d="M3616 1112 c-8 -13 54 -69 85 -77 44 -11 45 14 2 31 -21 9 -48 25 -59 36 -12 11 -24 15 -28 10z"/>
 </g>
<g id="layer3" fill="#d6873a" stroke="none">
 <path d="M2857 2823 c-6 -13 72 -83 79 -72 6 11 -29 55 -58 70 -9 5 -19 6 -21 2z"/>
 <path d="M5436 2672 c-6 -10 49 -63 58 -55 3 4 6 10 6 14 0 13 -58 50 -64 41z"/>
 <path d="M6226 2672 c-3 -5 11 -20 30 -36 29 -23 35 -25 40 -11 4 9 3 20 -2 24 -18 15 -63 30 -68 23z"/>
 <path d="M5635 2659 c-10 -26 -1 -304 10 -302 14 4 19 293 6 306 -7 7 -12 5 -16 -4z"/>
 <path d="M6425 2659 c-10 -26 -1 -434 10 -432 14 4 19 423 6 436 -7 7 -12 5 -16 -4z"/>
 <path d="M1745 2650 c-4 -6 -3 -16 3 -22 6 -6 12 -6 17 2 4 6 3 16 -3 22 -6 6 -12 6 -17 -2z"/>
 <path d="M2955 2650 c-4 -6 -3 -16 3 -22 6 -6 12 -6 17 2 4 6 3 16 -3 22 -6 6 -12 6 -17 -2z"/>
 <path d="M4196 2651 c-3 -5 5 -16 19 -25 24 -16 45 -6 22 11 -24 19 -36 23 -41 14z"/>
 <path d="M4865 2640 c-4 -6 -3 -16 3 -22 6 -6 12 -6 17 2 4 6 3 16 -3 22 -6 6 -12 6 -17 -2z"/>
 <path d="M5104 2636 c-4 -10 -2 -22 4 -28 8 -8 13 -7 18 6 4 10 2 22 -4 28 -8 8 -13 7 -18 -6z"/>
 <path d="M4257 2593 c-4 -6 0 -18 7 -28 8 -11 16 -14 19 -8 4 6 0 18 -7 28 -8 11 -16 14 -19 8z"/>
 <path d="M4875 2580 c-4 -6 -3 -16 3 -22 6 -6 12 -6 17 2 4 6 3 16 -3 22 -6 6 -12 6 -17 -2z"/>
 <path d="M3175 2528 c-10 -24 -1 -163 10 -163 13 0 19 155 6 168 -7 7 -12 5 -16 -5z"/>
 <path d="M4885 2531 c-7 -12 12 -24 25 -16 11 7 4 25 -10 25 -5 0 -11 -4 -15 -9z"/>
 <path d="M1745 2490 c-4 -6 -3 -16 3 -22 6 -6 12 -6 17 2 4 6 3 16 -3 22 -6 6 -12 6 -17 -2z"/>
 <path d="M5356 2492 c-14 -23 33 -80 54 -67 8 5 6 12 -5 24 -9 9 -22 25 -29 35 -9 13 -15 15 -20 8z"/>
 <path d="M5855 2489 c-10 -15 32 -56 44 -44 7 7 1 18 -14 33 -16 15 -26 19 -30 11z"/>
 <path d="M6146 2491 c-11 -17 13 -53 30 -47 8 3 12 2 9 -3 -3 -5 -1 -12 4 -15 22 -14 17 12 -9 42 -16 20 -30 29 -34 23z"/>
 <path d="M4486 2472 c-3 -6 1 -15 8 -21 8 -7 17 -8 20 -3 3 6 -1 15 -8 21 -8 7 -17 8 -20 3z"/>
 <path d="M4015 2461 c-6 -11 41 -51 61 -51 25 0 25 20 1 29 -14 6 -28 15 -32 20 -8 13 -22 14 -30 2z"/>
 <path d="M5144 2456 c-4 -10 -2 -22 4 -28 8 -8 13 -7 18 6 4 10 2 22 -4 28 -8 8 -13 7 -18 -6z"/>
 <path d="M4545 2441 c-7 -12 12 -24 25 -16 11 7 4 25 -10 25 -5 0 -11 -4 -15 -9z"/>
 <path d="M5915 2440 c-8 -12 20 -24 35 -15 6 3 8 11 5 16 -8 12 -32 12 -40 -1z"/>
 <path d="M3454 2428 c-4 -5 -2 -14 4 -20 12 -12 63 -7 63 7 0 14 -60 25 -67 13z"/>
 <path d="M3764 2428 c-4 -6 -2 -14 4 -20 12 -12 77 -7 77 7 0 13 -74 25 -81 13z"/>
 <path d="M3845 2390 c-4 -6 -3 -16 3 -22 6 -6 12 -6 17 2 4 6 3 16 -3 22 -6 6 -12 6 -17 -2z"/>
 </g>
<g id="layer4" fill="#2c6cac" stroke="none">
 <path d="M3345 1930 c-8 -13 20 -24 41 -16 20 8 9 26 -16 26 -10 0 -22 -5 -25 -10z"/>
 <path d="M3307 1902 c-10 -10 -14 -21 -11 -25 9 -9 55 23 48 34 -8 14 -19 11 -37 -9z"/>
 <path d="M3405 1891 c-4 -8 -1 -19 8 -28 19 -20 30 -1 13 22 -10 14 -15 15 -21 6z"/>
 <path d="M3244 1855 c-14 -10 -16 -17 -8 -25 7 -7 15 -5 28 9 21 23 6 36 -20 16z"/>
 <path d="M3182 1803 c-17 -6 -34 -41 -23 -47 4 -3 18 5 30 18 22 23 19 38 -7 29z"/>
 <path d="M3121 1746 c-9 -10 -9 -16 -1 -21 17 -10 37 12 24 25 -8 8 -15 6 -23 -4z"/>
 <path d="M3647 1749 c-9 -5 -22 -7 -27 -4 -5 3 -20 0 -32 -7 -13 -7 -28 -11 -35 -10 -16 3 -26 -15 -13 -23 6 -4 17 -2 24 4 7 6 16 8 19 5 3 -4 14 -3 24 1 10 4 44 9 76 11 64 4 81 10 72 25 -8 12 -85 11 -108 -2z"/>
 <path d="M3916 1751 c-8 -13 9 -23 37 -20 12 1 29 -1 37 -4 8 -3 24 -7 35 -9 11 -2 20 -9 20 -16 0 -15 19 -11 21 5 4 27 -23 43 -82 48 -38 4 -64 3 -68 -4z"/>
 <path d="M3412 1708 c-34 -34 1 -57 47 -33 31 16 34 42 4 31 -9 -4 -21 -2 -28 4 -8 6 -15 6 -23 -2z"/>
 <path d="M3071 1696 c-9 -10 -9 -16 -1 -21 17 -10 37 12 24 25 -8 8 -15 6 -23 -4z"/>
 <path d="M3025 1650 c-11 -17 5 -32 21 -19 7 6 11 15 8 20 -7 12 -21 11 -29 -1z"/>
 <path d="M3917 1583 c-31 -24 -55 -49 -51 -54 6 -10 124 70 125 86 1 20 -18 12 -74 -32z"/>
 <path d="M2978 1582 c-31 -36 -68 -109 -78 -158 -13 -59 -8 -76 45 -159 26 -40 40 -54 48 -46 7 7 2 21 -17 46 -47 61 -59 100 -47 156 11 48 35 102 67 146 19 26 3 40 -18 15z"/>
 <path d="M3808 1514 c-28 -15 -35 -28 -20 -38 12 -7 73 34 66 45 -7 12 -14 11 -46 -7z"/>
 <path d="M3685 1452 c-16 -10 -51 -27 -77 -37 -26 -9 -52 -23 -58 -30 -22 -27 9 -23 81 11 96 45 101 47 101 59 -1 17 -16 16 -47 -3z"/>
 <path d="M3461 1344 c-72 -39 -114 -75 -102 -87 7 -7 20 -1 42 17 17 15 54 38 81 52 27 14 46 29 43 34 -8 13 -13 12 -64 -16z"/>
 <path d="M3314 1215 c-12 -18 -14 -29 -6 -37 7 -7 15 -1 26 20 20 39 3 52 -20 17z"/>
 <path d="M2995 1180 c-4 -6 -3 -16 3 -22 6 -6 12 -6 17 2 4 6 3 16 -3 22 -6 6 -12 6 -17 -2z"/>
 <path d="M2995 1130 c-4 -6 -4 -14 -1 -17 3 -4 -4 -17 -16 -30 -15 -16 -18 -27 -11 -34 11 -11 33 9 37 33 1 7 5 19 10 26 5 8 4 18 -2 24 -6 6 -12 6 -17 -2z"/>
 <path d="M3296 1081 c-5 -8 5 -34 27 -69 5 -7 13 -10 18 -7 5 4 0 24 -11 46 -21 41 -25 45 -34 30z"/>
 <path d="M2914 1027 c-17 -15 -23 -26 -16 -31 6 -3 23 4 38 17 17 15 23 26 16 31 -6 3 -23 -4 -38 -17z"/>
 <path d="M2845 986 c-14 -10 -15 -15 -6 -21 8 -4 19 -1 28 8 20 19 1 30 -22 13z"/>
 <path d="M3346 992 c-7 -11 48 -65 57 -56 9 10 -10 42 -33 54 -10 5 -21 6 -24 2z"/>
 <path d="M2797 944 c-12 -12 -8 -51 6 -63 19 -15 28 -3 21 28 -8 31 -18 44 -27 35z"/>
 <path d="M3425 921 c-7 -12 35 -42 47 -35 5 3 2 15 -8 25 -19 21 -30 24 -39 10z"/>
 <path d="M3495 880 c-7 -11 43 -46 52 -36 4 3 13 0 22 -8 22 -18 140 -58 152 -51 5 4 7 10 4 15 -5 8 -142 53 -149 48 -2 -2 -12 4 -22 13 -25 21 -52 30 -59 19z"/>
 <path d="M2845 841 c-7 -12 35 -42 47 -35 5 3 2 15 -8 25 -19 21 -30 24 -39 10z"/>
 <path d="M4080 820 c-30 -10 -56 -17 -59 -15 -2 2 -13 0 -23 -6 -14 -7 -17 -14 -10 -21 6 -6 16 -7 24 -2 7 5 28 10 47 11 31 2 32 1 17 -16 -22 -24 -9 -33 20 -14 20 13 22 18 12 31 -11 13 -10 15 9 10 22 -6 59 22 46 35 -9 10 -21 8 -83 -13z"/>
 <path d="M3746 801 c-9 -15 23 -36 35 -24 8 8 5 14 -9 22 -12 6 -23 7 -26 2z"/>
 <path d="M2946 791 c-3 -5 0 -13 7 -19 10 -8 78 -39 92 -42 3 0 21 -8 41 -16 22 -9 40 -12 46 -6 13 13 -16 34 -50 37 -16 1 -35 6 -43 11 -16 10 -82 44 -86 44 -1 0 -4 -4 -7 -9z"/>
 <path d="M2896 772 c-5 -9 10 -48 22 -56 5 -3 15 1 22 9 11 14 15 14 31 -1 14 -13 16 -20 8 -30 -8 -9 -5 -15 11 -24 11 -6 26 -8 32 -4 16 10 61 10 77 0 7 -5 17 -4 23 2 7 7 3 14 -13 23 -13 7 -25 12 -26 11 -2 -1 -5 -1 -8 -1 -3 1 -8 2 -12 3 -5 1 -27 12 -50 24 -24 12 -43 19 -43 16 0 -4 -8 0 -17 8 -23 19 -51 29 -57 20z"/>
 <path d="M4011 727 c-6 -8 -8 -17 -5 -20 10 -9 45 13 39 24 -9 13 -21 11 -34 -4z"/>
 <path d="M3186 701 c-8 -12 20 -34 33 -27 5 4 12 2 16 -3 3 -5 13 -10 23 -10 9 0 37 -4 62 -10 53 -11 78 3 34 19 -16 6 -43 13 -60 14 -17 2 -36 6 -43 10 -6 4 -15 5 -20 1 -5 -3 -12 -1 -16 5 -8 12 -22 13 -29 1z"/>
 <path d="M3950 696 c-6 -8 -17 -13 -25 -10 -18 7 -88 -24 -80 -36 7 -12 51 -3 83 16 12 8 22 12 22 9 0 -3 9 -1 20 5 11 6 18 15 15 21 -9 13 -21 11 -35 -5z"/>
 <path d="M2905 640 c-15 -29 -15 -34 -1 -56 23 -34 65 -59 77 -47 11 11 -36 48 -50 39 -9 -6 -7 41 3 65 13 31 -13 30 -29 -1z"/>
 <path d="M3415 650 c-8 -12 20 -24 35 -15 6 3 8 11 5 16 -8 12 -32 12 -40 -1z"/>
 <path d="M3785 651 c-7 -12 12 -24 25 -16 11 7 4 25 -10 25 -5 0 -11 -4 -15 -9z"/>
 <path d="M3535 641 c-10 -18 33 -31 98 -31 61 0 98 16 80 33 -10 11 -171 8 -178 -2z"/>
 <path d="M3080 573 c-35 -24 -40 -35 -22 -41 14 -4 78 53 66 60 -5 3 -25 -6 -44 -19z"/>
 </g>
<g id="layer5" fill="#d4dee0" stroke="none">
 <path d="M3297 1905 c-34 -27 -55 -50 -51 -57 5 -7 3 -8 -5 -3 -14 8 -73 -43 -65 -56 3 -5 -1 -6 -9 -3 -17 6 -41 -21 -32 -35 3 -6 37 16 78 52 100 87 141 117 160 117 18 0 36 -28 43 -68 7 -36 14 -46 26 -34 6 6 7 19 3 29 -4 10 -9 25 -10 35 -3 30 -35 68 -58 68 -12 0 -48 -20 -80 -45z"/>
 <path d="M3777 1771 c-82 -10 -58 -26 42 -29 52 -1 101 0 109 3 45 17 -64 36 -151 26z"/>
 <path d="M3425 1756 c-3 -9 -7 -22 -9 -30 -3 -8 -2 -17 1 -20 10 -10 33 15 33 35 0 23 -19 35 -25 15z"/>
 <path d="M3625 1750 c-8 -12 20 -24 35 -15 6 3 8 11 5 16 -8 12 -32 12 -40 -1z"/>
 <path d="M3995 1750 c-8 -12 20 -24 35 -15 6 3 8 11 5 16 -8 12 -32 12 -40 -1z"/>
 <path d="M3091 1726 c-16 -17 -19 -26 -11 -31 17 -10 57 32 44 45 -7 7 -17 3 -33 -14z"/>
 <path d="M3530 1736 c-58 -16 -92 -35 -85 -46 3 -5 38 0 77 11 82 23 90 27 83 40 -8 11 -18 11 -75 -5z"/>
 <path d="M4049 1740 c0 -3 -2 -17 -3 -32 -1 -15 -13 -39 -26 -54 -40 -42 -199 -149 -275 -184 -245 -114 -278 -131 -268 -141 8 -8 22 -5 50 9 21 11 67 34 103 50 151 69 182 85 252 131 87 56 184 144 194 173 4 13 0 26 -10 36 -9 9 -16 14 -17 12z"/>
 <path d="M3040 1675 c-6 -8 -9 -19 -5 -25 4 -6 1 -9 -6 -8 -22 5 -108 -121 -129 -190 -19 -62 -19 -68 -5 -113 9 -26 23 -53 32 -61 26 -21 53 -89 53 -134 0 -48 -25 -86 -73 -110 -48 -25 -118 -84 -111 -95 3 -5 18 1 34 13 15 13 53 38 82 56 118 70 130 134 52 258 -42 68 -49 85 -47 127 2 62 41 143 109 223 47 55 56 74 34 74 -4 0 -13 -7 -20 -15z"/>
 <path d="M3973 1396 c-39 -33 -118 -71 -188 -91 -140 -41 -200 -94 -191 -168 4 -39 23 -70 36 -62 4 2 4 24 0 49 -11 77 10 99 138 140 102 33 185 71 208 97 21 23 47 24 65 3 15 -18 158 -91 233 -119 62 -24 116 -74 116 -108 0 -31 14 -42 29 -23 31 37 -25 106 -126 155 -34 17 -65 31 -69 31 -14 0 -150 74 -177 96 -35 30 -39 30 -74 0z"/>
 <path d="M3410 1301 c-19 -15 -29 -30 -23 -34 5 -3 25 6 43 22 19 15 29 30 23 34 -5 3 -25 -6 -43 -22z"/>
 <path d="M3343 1243 c-56 -80 -64 -133 -28 -203 14 -27 29 -51 34 -54 18 -11 23 15 7 33 -9 9 -19 32 -22 49 -4 18 -11 35 -16 38 -5 4 -5 10 0 17 5 7 12 28 16 47 3 19 16 44 28 57 15 16 19 26 11 34 -7 7 -16 2 -30 -18z"/>
 <path d="M3386 961 c-6 -9 11 -25 69 -63 65 -42 212 -104 223 -93 3 3 11 0 17 -5 7 -6 25 -12 41 -14 16 -2 43 -7 60 -11 36 -8 52 6 29 25 -9 8 -29 10 -50 7 -19 -3 -37 -1 -41 4 -3 6 -13 9 -22 8 -10 -1 -28 3 -42 8 -14 6 -50 21 -80 33 -67 26 -153 75 -170 95 -14 17 -26 19 -34 6z"/>
 <path d="M2806 872 c-3 -5 6 -19 19 -32 17 -16 22 -27 15 -35 -7 -8 3 -23 30 -50 44 -43 51 -78 24 -120 -12 -18 -13 -28 -5 -44 16 -29 77 -73 97 -69 27 5 19 22 -15 31 -17 4 -38 18 -47 31 -14 23 -14 27 5 64 18 35 18 41 5 67 -8 15 -13 30 -11 31 6 7 92 -38 100 -52 4 -7 20 -12 37 -12 33 1 80 -26 80 -46 0 -23 -42 -68 -77 -83 -19 -7 -31 -18 -28 -23 9 -15 22 -12 65 15 50 32 76 79 61 111 -10 22 -9 24 17 21 15 -2 33 -7 40 -11 7 -4 17 -4 22 -1 14 9 1 27 -15 21 -8 -3 -19 1 -25 9 -6 7 -29 16 -50 20 -43 7 -57 5 -52 -8 1 -5 -2 -6 -8 -2 -6 3 -8 11 -4 16 3 5 -12 16 -33 25 -87 35 -190 89 -214 111 -15 14 -29 20 -33 15z"/>
 <path d="M4140 850 c-19 -10 -52 -22 -72 -25 -21 -4 -40 -11 -43 -16 -3 -4 -19 -6 -35 -2 -31 6 -64 -12 -54 -29 3 -5 18 -6 33 -3 14 4 37 9 51 11 14 2 46 10 72 18 56 16 54 9 -7 -35 -39 -28 -50 -49 -26 -49 15 0 101 82 95 91 -3 5 -1 9 5 9 13 0 33 37 24 43 -5 3 -24 -3 -43 -13z"/>
 <path d="M3958 695 c-37 -18 -68 -31 -70 -30 -2 2 -23 -1 -48 -6 -25 -5 -64 -11 -87 -14 -48 -4 -66 -12 -58 -26 7 -10 58 -12 69 -2 3 4 26 7 49 8 24 1 54 8 68 15 13 8 34 15 45 16 25 3 100 40 108 53 14 22 -13 17 -76 -14z"/>
 <path d="M3265 670 c-3 -5 -3 -11 2 -12 4 0 13 -2 18 -3 6 -1 22 -7 36 -13 42 -17 116 -25 123 -13 10 16 -25 30 -88 34 -31 3 -60 7 -63 11 -9 9 -21 7 -28 -4z"/>
 <path d="M3467 644 c-13 -14 16 -34 49 -34 31 0 53 14 37 23 -16 9 -80 17 -86 11z"/>
 </g>
<g id="layer6" fill="#e9ba8d" stroke="none">
 <path d="M2721 2846 c-9 -10 -9 -16 -1 -21 13 -8 42 14 34 26 -8 13 -20 11 -33 -5z"/>
 <path d="M2805 2850 c-3 -6 2 -13 12 -16 56 -18 76 -30 99 -57 14 -16 28 -43 31 -59 3 -15 8 -30 12 -32 3 -2 4 -81 1 -176 -3 -95 -2 -174 3 -177 22 -13 27 19 27 172 0 100 -4 166 -10 170 -6 4 -8 11 -4 16 3 5 1 24 -5 42 -23 69 -143 153 -166 117z"/>
 <path d="M1645 2800 c-7 -12 20 -24 34 -16 5 4 12 2 16 -4 3 -5 13 -10 22 -10 9 0 24 -7 34 -16 26 -23 34 1 8 27 -14 14 -29 19 -45 16 -14 -2 -27 0 -30 4 -7 12 -31 11 -39 -1z"/>
 <path d="M1808 2689 c-10 -5 -26 -9 -35 -7 -21 4 -30 -30 -10 -38 16 -6 80 27 79 41 -1 14 -15 16 -34 4z"/>
 <path d="M1905 2691 c-3 -6 9 -17 28 -24 38 -17 87 -70 87 -97 0 -10 3 -21 8 -23 11 -7 7 -64 -5 -79 -16 -20 -20 -61 -6 -65 17 -6 34 40 38 98 6 83 -50 171 -122 193 -12 4 -24 2 -28 -3z"/>
 <path d="M2161 2679 c-21 -13 -30 -24 -24 -30 12 -12 96 28 88 41 -9 15 -27 12 -64 -11z"/>
 <path d="M2276 2691 c-3 -5 11 -18 32 -28 32 -17 40 -18 62 -6 37 19 110 17 126 -4 7 -10 9 -22 4 -28 -7 -8 -15 -255 -11 -309 1 -5 10 -1 21 9 19 17 21 30 19 179 0 88 -5 169 -10 178 -13 24 -140 26 -159 3 -11 -13 -15 -13 -33 0 -24 17 -43 19 -51 6z"/>
 <path d="M2665 2685 c-40 -21 -49 -31 -41 -44 5 -7 14 -6 29 3 31 20 110 30 135 17 25 -13 38 2 17 19 -25 21 -106 23 -140 5z"/>
 <path d="M3086 2679 c-40 -31 -18 -45 28 -19 20 12 33 26 30 31 -9 15 -30 10 -58 -12z"/>
 <path d="M3197 2694 c-11 -11 3 -24 25 -24 19 0 20 -5 16 -55 -7 -86 20 -80 36 7 6 31 3 39 -20 57 -27 21 -46 26 -57 15z"/>
 <path d="M3371 2684 c-15 -11 -19 -20 -13 -26 12 -12 75 19 67 32 -9 14 -27 12 -54 -6z"/>
 <path d="M3487 2694 c-10 -11 3 -24 24 -24 19 0 20 -3 23 -67 1 -31 21 -48 21 -19 0 8 4 18 8 22 16 16 6 54 -19 73 -27 21 -46 26 -57 15z"/>
 <path d="M3625 2689 c-12 -19 5 -24 66 -21 35 2 65 -1 73 -8 19 -15 32 6 16 25 -15 18 -145 21 -155 4z"/>
 <path d="M3995 2686 c-47 -22 -69 -42 -61 -55 6 -9 12 -9 25 3 9 8 34 21 56 28 22 7 39 18 38 23 -3 15 -25 16 -58 1z"/>
 <path d="M4135 2690 c-3 -5 6 -15 22 -20 54 -19 78 -38 98 -76 31 -59 36 -65 46 -59 12 8 -16 73 -44 103 -36 39 -110 71 -122 52z"/>
 <path d="M4340 2685 c-15 -18 -14 -18 73 -15 l67 2 0 -90 c0 -102 16 -135 66 -137 18 -1 35 -11 48 -28 19 -26 19 -27 2 -46 -12 -13 -16 -27 -11 -38 6 -16 8 -16 26 6 11 13 18 30 15 37 -3 7 -1 16 3 19 12 7 2 41 -14 55 -8 6 -28 13 -45 15 -54 7 -60 18 -60 119 0 58 -4 96 -12 104 -18 18 -142 16 -158 -3z"/>
 <path d="M4705 2690 c-12 -19 1 -22 82 -24 l77 -1 9 -45 c10 -52 26 -75 40 -61 9 9 -3 61 -27 111 -11 23 -17 25 -93 28 -52 2 -84 -1 -88 -8z"/>
 <path d="M4940 2685 c-14 -17 -19 -16 85 -18 l80 -2 13 -55 c7 -30 16 -62 19 -70 3 -8 5 -19 4 -24 -2 -9 25 -146 35 -175 3 -10 8 -11 15 -4 12 12 -15 168 -32 189 -5 6 -7 13 -4 16 9 9 -18 123 -33 141 -20 23 -163 25 -182 2z"/>
 <path d="M5314 2686 c-17 -13 -17 -15 -2 -21 20 -8 61 12 53 26 -9 13 -28 11 -51 -5z"/>
 <path d="M5416 2691 c-3 -5 12 -18 34 -29 47 -23 62 -13 24 17 -28 22 -49 27 -58 12z"/>
 <path d="M5501 2686 c-7 -8 -8 -16 -4 -18 16 -8 158 7 158 17 0 17 -140 18 -154 1z"/>
 <path d="M5720 2685 c-7 -8 -10 -15 -6 -15 3 -1 41 -1 84 -1 58 -1 77 2 77 13 0 20 -138 24 -155 3z"/>
 <path d="M6120 2693 c-23 -9 -50 -35 -45 -43 3 -5 23 1 45 11 23 11 38 24 35 29 -7 11 -12 11 -35 3z"/>
 <path d="M6215 2691 c-8 -13 56 -44 68 -32 6 6 -2 15 -21 25 -36 19 -39 19 -47 7z"/>
 <path d="M6295 2689 c-12 -18 3 -23 66 -20 45 2 66 -2 79 -14 25 -23 38 0 14 26 -14 15 -31 19 -85 19 -37 0 -71 -5 -74 -11z"/>
 <path d="M2581 2612 c-13 -25 2 -38 19 -16 9 10 10 18 3 25 -8 8 -14 5 -22 -9z"/>
 <path d="M2727 2562 c-11 -13 -16 -44 -18 -124 -1 -59 0 -110 3 -114 4 -3 14 6 23 19 13 20 16 46 14 114 -2 49 0 94 4 100 12 19 -9 24 -26 5z"/>
 <path d="M3191 2566 c-15 -18 -11 -232 4 -229 11 3 24 232 14 239 -4 2 -12 -2 -18 -10z"/>
 <path d="M3472 2568 c-16 -16 -16 -130 0 -146 7 -7 22 -12 35 -12 19 0 23 -5 23 -33 0 -40 8 -51 27 -36 34 29 2 99 -46 99 -22 0 -23 3 -20 64 4 69 0 83 -19 64z"/>
 <path d="M2226 2551 c-22 -24 -11 -76 22 -101 29 -23 75 -26 91 -6 14 17 0 29 -23 20 -47 -18 -90 31 -66 76 14 26 -3 34 -24 11z"/>
 <path d="M6166 2548 c-23 -33 -20 -56 13 -89 32 -32 71 -38 91 -14 13 16 9 18 -31 15 -46 -2 -71 38 -49 80 15 28 -6 35 -24 8z"/>
 <path d="M1757 2553 c-2 -5 -5 -22 -5 -40 0 -24 7 -39 30 -58 34 -28 83 -31 83 -5 0 11 -9 14 -31 12 -37 -4 -57 17 -56 58 1 29 -12 48 -21 33z"/>
 <path d="M4021 2541 c-16 -30 -13 -47 14 -80 33 -39 60 -47 91 -26 30 19 23 40 -8 24 -15 -8 -27 -8 -44 0 -19 8 -24 18 -24 50 0 46 -14 61 -29 32z"/>
 <path d="M5366 2552 c-2 -4 -3 -25 -2 -46 5 -61 74 -100 106 -61 13 16 9 18 -31 15 -33 -2 -61 34 -53 66 6 21 -10 42 -20 26z"/>
 <path d="M4801 2506 c-7 -8 -17 -45 -23 -83 -5 -37 -14 -73 -20 -80 -5 -7 -5 -13 0 -17 15 -9 39 26 46 69 4 22 12 55 19 72 13 39 -1 64 -22 39z"/>
 <path d="M5863 2504 c-8 -20 30 -58 59 -60 51 -3 60 -14 53 -58 -4 -22 -11 -46 -17 -53 -5 -7 -5 -14 1 -17 15 -9 39 33 47 81 6 36 3 43 -19 57 -13 9 -29 16 -33 15 -33 -6 -55 4 -64 26 -11 29 -18 31 -27 9z"/>
 <path d="M5005 2498 c-2 -7 -9 -38 -15 -68 -13 -69 -14 -72 -23 -87 -4 -6 -3 -14 2 -17 15 -10 38 28 50 86 7 32 17 60 22 64 6 4 6 11 -2 20 -14 17 -28 18 -34 2z"/>
 <path d="M4276 2478 c-19 -29 -25 -66 -11 -70 16 -5 49 72 37 84 -7 7 -15 3 -26 -14z"/>
 <path d="M3775 2441 c-11 -10 20 -31 46 -31 26 0 29 -3 29 -33 0 -18 -5 -38 -11 -44 -7 -7 -7 -13 -1 -17 13 -8 52 40 52 63 0 33 -29 59 -70 63 -23 2 -43 2 -45 -1z"/>
 <path d="M3281 2426 c-7 -8 -8 -17 -3 -20 6 -3 15 1 21 8 7 8 8 17 3 20 -6 3 -15 -1 -21 -8z"/>
 <path d="M3585 2426 c-14 -10 -15 -15 -6 -21 8 -4 19 -1 28 8 20 19 1 30 -22 13z"/>
 <path d="M1742 2378 c-14 -14 -16 -44 -3 -52 4 -3 16 3 25 12 13 15 14 21 3 36 -10 13 -15 14 -25 4z"/>
 <path d="M5471 2376 c-9 -10 -9 -16 -1 -21 17 -10 37 12 24 25 -8 8 -15 6 -23 -4z"/>
 <path d="M4480 2365 c-9 -11 -10 -19 -3 -26 7 -7 14 -5 23 6 9 11 10 19 3 26 -7 7 -14 5 -23 -6z"/>
 <path d="M5856 2351 c-10 -11 -13 -22 -8 -25 5 -3 17 3 26 13 10 11 13 22 8 25 -5 3 -17 -3 -26 -13z"/>
 <path d="M5641 2346 c-7 -8 -8 -17 -3 -20 6 -3 15 1 21 8 7 8 8 17 3 20 -6 3 -15 -1 -21 -8z"/>
 <path d="M3472 2328 c-7 -7 -12 -33 -12 -58 0 -25 -5 -51 -11 -57 -8 -8 -7 -13 1 -18 21 -13 39 19 41 77 3 63 -1 74 -19 56z"/>
 <path d="M3756 2321 c-14 -15 -15 -24 -7 -40 15 -26 67 -55 76 -41 12 20 26 -2 23 -35 -1 -19 1 -37 5 -41 13 -13 37 19 37 51 0 44 -29 69 -69 60 -34 -7 -52 14 -32 39 10 12 6 26 -9 26 -4 0 -15 -9 -24 -19z"/>
 <path d="M3091 2297 c-13 -6 -23 -16 -22 -22 2 -12 41 -7 58 6 7 7 14 6 18 -1 3 -6 11 -8 16 -4 5 3 7 10 3 15 -3 5 -9 7 -14 4 -5 -3 -11 -1 -15 5 -8 13 -15 12 -44 -3z"/>
 <path d="M3187 2263 c-13 -23 -17 -72 -6 -79 17 -10 40 25 33 50 -8 27 -20 40 -27 29z"/>
 <path d="M6440 2235 c-9 -11 -10 -19 -3 -26 7 -7 14 -5 23 6 9 11 10 19 3 26 -7 7 -14 5 -23 -6z"/>
 </g>
<g id="layer7" fill="#dba067" stroke="none">
 <path d="M2745 2850 c-7 -11 -2 -14 72 -30 44 -10 103 -47 103 -64 0 -3 5 -17 12 -33 18 -45 19 -60 21 -215 3 -204 21 -196 24 10 2 189 -6 223 -61 278 -51 52 -153 84 -171 54z"/>
 <path d="M1616 2801 c-9 -14 25 -30 79 -37 l45 -7 2 -56 c2 -83 2 -86 13 -86 5 0 11 31 13 68 4 80 -8 101 -66 112 -20 3 -47 9 -58 11 -12 3 -25 1 -28 -5z"/>
 <path d="M1835 2690 c-7 -11 3 -16 60 -25 30 -5 51 -18 81 -50 34 -37 41 -51 43 -91 2 -53 8 -67 22 -59 12 8 12 82 -1 90 -5 3 -7 12 -4 19 7 19 -63 96 -103 113 -38 15 -89 17 -98 3z"/>
 <path d="M2218 2695 c-13 -13 2 -25 32 -25 18 0 42 -12 65 -31 19 -17 35 -29 36 -28 7 33 3 42 -22 60 -31 22 -99 36 -111 24z"/>
 <path d="M3136 2691 c-8 -12 -4 -14 59 -27 37 -8 40 -11 40 -44 0 -19 5 -36 10 -37 14 -4 14 85 0 97 -19 16 -101 24 -109 11z"/>
 <path d="M3418 2695 c-12 -13 2 -25 28 -25 14 0 40 -6 59 -14 38 -16 58 -4 33 20 -16 16 -109 30 -120 19z"/>
 <path d="M4045 2690 c-7 -12 -2 -13 79 -28 32 -7 67 -19 77 -28 11 -10 19 -13 19 -8 1 20 42 -71 48 -107 4 -22 12 -39 17 -39 18 2 24 37 10 64 -8 14 -12 26 -9 26 2 0 -2 13 -11 29 -18 36 -67 74 -114 90 -42 14 -108 14 -116 1z"/>
 <path d="M5355 2691 c-7 -12 2 -17 49 -25 21 -4 49 -14 62 -22 27 -18 40 -3 16 19 -35 31 -114 49 -127 28z"/>
 <path d="M6148 2695 c-12 -13 2 -25 28 -25 14 0 41 -7 61 -15 45 -19 64 -5 27 20 -30 19 -104 32 -116 20z"/>
 <path d="M2727 2684 c-10 -10 2 -24 20 -24 9 0 27 -10 40 -22 17 -16 26 -19 34 -11 8 8 5 18 -14 37 -24 24 -65 34 -80 20z"/>
 <path d="M4847 2684 c-3 -4 -1 -16 6 -28 6 -11 13 -32 14 -46 7 -56 8 -66 16 -78 6 -9 12 -10 22 -2 10 8 10 17 1 43 -6 17 -15 38 -19 45 -5 6 -5 16 -2 22 7 11 -12 50 -24 50 -4 0 -11 -3 -14 -6z"/>
 <path d="M5096 2682 c-4 -6 -3 -20 3 -29 5 -10 12 -44 16 -76 4 -31 11 -59 15 -62 5 -3 6 -13 3 -23 -5 -21 22 -49 32 -33 3 6 1 19 -4 29 -6 11 -8 21 -6 24 3 3 -2 37 -11 76 -17 76 -36 113 -48 94z"/>
 <path d="M5635 2680 c-4 -6 -3 -16 3 -22 6 -6 12 -6 17 2 4 6 3 16 -3 22 -6 6 -12 6 -17 -2z"/>
 <path d="M6430 2686 c-10 -9 5 -461 15 -461 16 0 19 426 2 448 -7 10 -15 16 -17 13z"/>
 <path d="M4476 2673 c-3 -3 -6 -50 -6 -103 0 -93 1 -97 28 -116 30 -23 99 -38 107 -24 7 11 -27 30 -54 30 -40 0 -51 26 -51 120 0 82 -7 110 -24 93z"/>
 <path d="M5854 2666 c-11 -28 1 -211 13 -209 6 1 17 -4 23 -12 7 -8 26 -15 42 -15 32 0 54 -35 36 -57 -13 -16 -2 -47 12 -38 6 4 10 14 9 23 -1 10 1 25 5 34 11 24 -11 57 -42 64 -72 15 -72 15 -72 118 0 88 -12 129 -26 92z"/>
 <path d="M3767 2663 c-3 -5 -7 -63 -8 -129 -1 -107 0 -119 16 -119 16 0 17 12 16 120 -2 110 -10 151 -24 128z"/>
 <path d="M2494 2646 c-4 -10 -2 -22 4 -28 8 -8 13 -7 18 6 4 10 2 22 -4 28 -8 8 -13 7 -18 -6z"/>
 <path d="M3535 2610 c-4 -6 -3 -16 3 -22 6 -6 12 -6 17 2 4 6 3 16 -3 22 -6 6 -12 6 -17 -2z"/>
 <path d="M3175 2550 c-4 -6 -3 -16 3 -22 6 -6 12 -6 17 2 4 6 3 16 -3 22 -6 6 -12 6 -17 -2z"/>
 <path d="M3457 2544 c-14 -14 -7 -111 8 -124 17 -14 17 -14 15 60 -1 54 -10 77 -23 64z"/>
 <path d="M1745 2530 c-9 -15 5 -72 23 -92 16 -19 47 -24 57 -9 3 5 -8 19 -25 31 -19 13 -30 30 -30 45 0 26 -15 41 -25 25z"/>
 <path d="M5015 2530 c-4 -6 -3 -16 3 -22 6 -6 12 -6 17 2 4 6 3 16 -3 22 -6 6 -12 6 -17 -2z"/>
 <path d="M5355 2528 c-3 -7 -3 -26 -1 -42 4 -34 61 -74 90 -63 21 8 12 27 -13 27 -24 0 -51 31 -51 58 0 24 -18 39 -25 20z"/>
 <path d="M2206 2519 c-9 -30 -2 -51 26 -75 31 -25 53 -30 63 -14 3 5 -8 16 -25 25 -17 9 -30 24 -30 34 0 25 -28 49 -34 30z"/>
 <path d="M4007 2523 c-14 -13 -7 -52 11 -65 10 -7 21 -20 24 -28 3 -9 17 -15 32 -15 39 2 41 12 6 30 -18 9 -38 31 -46 51 -15 36 -17 38 -27 27z"/>
 <path d="M6146 2511 c-17 -27 37 -91 76 -91 31 0 30 20 -2 31 -17 6 -37 24 -46 40 -16 31 -20 34 -28 20z"/>
 <path d="M4995 2480 c-4 -6 -3 -16 3 -22 6 -6 12 -6 17 2 4 6 3 16 -3 22 -6 6 -12 6 -17 -2z"/>
 <path d="M4774 2446 c-8 -21 3 -49 16 -41 5 3 10 15 10 25 0 25 -18 36 -26 16z"/>
 <path d="M4984 2426 c-4 -10 -2 -22 4 -28 8 -8 13 -7 18 6 4 10 2 22 -4 28 -8 8 -13 7 -18 -6z"/>
 <path d="M5148 2434 c-4 -3 -2 -17 3 -31 5 -14 7 -28 4 -33 -3 -4 2 -13 10 -20 20 -17 29 7 18 51 -9 32 -23 46 -35 33z"/>
 <path d="M3285 2421 c-7 -12 12 -24 25 -16 11 7 4 25 -10 25 -5 0 -11 -4 -15 -9z"/>
 <path d="M3515 2421 c-7 -12 12 -24 25 -16 11 7 4 25 -10 25 -5 0 -11 -4 -15 -9z"/>
 <path d="M3836 2421 c-3 -5 1 -14 8 -20 16 -13 32 2 21 19 -8 12 -22 13 -29 1z"/>
 <path d="M4594 2395 c-9 -23 10 -40 25 -22 9 11 8 17 -4 27 -12 10 -16 9 -21 -5z"/>
 <path d="M4764 2376 c-4 -10 -2 -22 4 -28 8 -8 13 -7 18 6 4 10 2 22 -4 28 -8 8 -13 7 -18 -6z"/>
 <path d="M3174 2366 c-4 -10 -2 -22 4 -28 8 -8 13 -7 18 6 4 10 2 22 -4 28 -8 8 -13 7 -18 -6z"/>
 <path d="M5640 2364 c-9 -10 -10 -18 -3 -25 8 -8 14 -5 22 9 13 25 -2 38 -19 16z"/>
 <path d="M5855 2370 c-4 -6 -3 -16 3 -22 6 -6 12 -6 17 2 4 6 3 16 -3 22 -6 6 -12 6 -17 -2z"/>
 <path d="M3455 2318 c-9 -24 -1 -103 10 -103 14 0 19 95 6 108 -7 7 -12 5 -16 -5z"/>
 <path d="M3115 2290 c-3 -6 7 -18 24 -27 16 -10 32 -26 35 -36 6 -23 26 -13 26 13 0 20 -44 60 -66 60 -7 0 -16 -5 -19 -10z"/>
 <path d="M3737 2293 c-22 -22 27 -71 59 -59 14 6 13 11 -12 36 -31 31 -37 34 -47 23z"/>
 <path d="M4005 1391 c-7 -12 12 -24 25 -16 11 7 4 25 -10 25 -5 0 -11 -4 -15 -9z"/>
 <path d="M3611 1182 c-13 -25 2 -38 19 -16 9 10 10 18 3 25 -8 8 -14 5 -22 -9z"/>
 <path d="M4387 1153 c-8 -14 -2 -53 8 -56 12 -3 17 51 5 58 -5 3 -11 2 -13 -2z"/>
 <path d="M3986 1121 c-15 -16 -23 -31 -18 -35 5 -3 17 3 27 14 17 18 20 19 41 5 34 -22 39 0 6 24 l-29 20 -27 -28z"/>
 <path d="M3616 1102 c-3 -5 5 -19 18 -31 13 -13 26 -18 30 -13 3 5 -5 19 -18 31 -13 13 -26 18 -30 13z"/>
 <path d="M4115 1080 c-8 -14 40 -34 61 -26 10 4 14 10 8 15 -15 14 -62 22 -69 11z"/>
 <path d="M4331 1073 c-22 -9 -30 -18 -24 -24 11 -11 57 3 67 20 11 17 -8 19 -43 4z"/>
 <path d="M3905 1066 c-11 -8 -25 -12 -31 -9 -15 6 -28 -14 -14 -22 5 -3 16 -3 23 2 6 4 18 8 25 9 28 5 43 14 37 24 -8 13 -18 13 -40 -4z"/>
 <path d="M4205 1061 c-7 -12 12 -24 25 -16 11 7 4 25 -10 25 -5 0 -11 -4 -15 -9z"/>
 </g>
<g id="layer8" fill="#f5af6d" stroke="none">
 <path d="M2735 2841 c-7 -12 12 -24 25 -16 11 7 4 25 -10 25 -5 0 -11 -4 -15 -9z"/>
 <path d="M2704 2826 c-8 -21 3 -49 16 -41 5 3 10 15 10 25 0 25 -18 36 -26 16z"/>
 <path d="M1594 2787 c-2 -7 -3 -86 -2 -175 4 -216 22 -221 26 -7 2 129 5 161 17 168 9 4 13 12 10 18 -9 14 -45 11 -51 -4z"/>
 <path d="M1736 2763 c-8 -8 -8 -138 1 -146 3 -4 22 3 42 15 20 13 55 25 79 28 23 3 44 10 45 15 3 17 -61 17 -95 1 -45 -23 -48 -21 -48 33 0 47 -9 68 -24 54z"/>
 <path d="M2715 2740 c-4 -6 -3 -16 3 -22 6 -6 12 -6 17 2 4 6 3 16 -3 22 -6 6 -12 6 -17 -2z"/>
 <path d="M2766 2721 c-4 -5 2 -15 13 -20 11 -6 21 -23 23 -38 2 -17 9 -28 18 -28 19 0 15 32 -9 64 -20 28 -37 36 -45 22z"/>
 <path d="M2196 2683 c-4 -4 -11 -8 -14 -9 -39 -5 -100 -61 -106 -97 -1 -7 -5 -18 -9 -24 -5 -7 -5 -18 -2 -23 9 -15 27 -1 21 16 -3 8 16 35 47 66 47 46 57 52 97 52 25 1 47 6 50 11 6 12 -72 19 -84 8z"/>
 <path d="M2385 2680 c-4 -6 -10 -8 -15 -5 -13 8 -32 -22 -28 -47 4 -32 22 -28 28 7 5 31 5 31 120 23 18 -1 21 4 10 17 -14 17 -105 21 -115 5z"/>
 <path d="M2945 2680 c-4 -6 -3 -16 3 -22 6 -6 12 -6 17 2 4 6 3 16 -3 22 -6 6 -12 6 -17 -2z"/>
 <path d="M3115 2680 c-8 -12 20 -24 35 -15 6 3 8 11 5 16 -8 12 -32 12 -40 -1z"/>
 <path d="M3175 2681 c-7 -12 12 -24 25 -16 11 7 4 25 -10 25 -5 0 -11 -4 -15 -9z"/>
 <path d="M3395 2681 c-7 -12 12 -24 25 -16 11 7 4 25 -10 25 -5 0 -11 -4 -15 -9z"/>
 <path d="M3645 2680 c-4 -6 -10 -8 -15 -5 -5 3 -11 1 -14 -4 -4 -5 -2 -12 3 -15 5 -4 12 -3 15 2 2 4 34 5 71 2 72 -6 81 -4 64 17 -13 15 -115 18 -124 3z"/>
 <path d="M4025 2681 c-7 -12 12 -24 25 -16 11 7 4 25 -10 25 -5 0 -11 -4 -15 -9z"/>
 <path d="M4356 2683 c-4 -4 -12 -8 -17 -8 -5 0 -9 -3 -9 -7 0 -8 2 -9 18 -7 4 0 34 1 67 2 33 1 62 7 65 12 6 12 -112 20 -124 8z"/>
 <path d="M4715 2680 c-3 -5 0 -13 8 -16 23 -8 127 0 130 11 3 14 -129 19 -138 5z"/>
 <path d="M4956 2683 c-4 -4 -12 -8 -17 -8 -5 0 -9 -3 -9 -7 0 -8 2 -9 18 -7 4 0 40 1 79 2 40 1 74 7 75 12 4 12 -134 19 -146 8z"/>
 <path d="M5335 2681 c-3 -6 -11 -9 -16 -5 -16 9 -63 -26 -51 -38 7 -7 21 -3 44 13 18 13 34 23 36 21 1 -1 2 1 3 4 2 12 -9 15 -16 5z"/>
 <path d="M5516 2683 c-4 -4 -12 -8 -17 -8 -5 0 -9 -3 -9 -7 0 -8 2 -9 18 -7 4 0 34 1 67 2 33 1 62 7 65 12 6 12 -112 20 -124 8z"/>
 <path d="M5717 2679 c-9 -5 -16 -13 -13 -17 6 -11 161 2 161 13 0 14 -126 17 -148 4z"/>
 <path d="M6125 2681 c-3 -6 -10 -9 -14 -6 -12 7 -92 -65 -85 -76 3 -5 25 8 50 28 25 21 49 38 54 38 11 0 15 14 7 21 -3 3 -8 0 -12 -5z"/>
 <path d="M6305 2680 c-3 -5 0 -13 8 -16 23 -9 122 0 122 11 0 14 -122 19 -130 5z"/>
 <path d="M2655 2666 c-14 -10 -15 -15 -6 -21 8 -4 19 -1 28 8 20 19 1 30 -22 13z"/>
 <path d="M3969 2662 c-29 -24 -11 -36 20 -13 14 11 19 21 13 25 -5 3 -20 -2 -33 -12z"/>
 <path d="M6275 2670 c-4 -6 -3 -16 3 -22 6 -6 12 -6 17 2 4 6 3 16 -3 22 -6 6 -12 6 -17 -2z"/>
 <path d="M3345 2660 c-3 -5 -3 -15 1 -22 4 -7 3 -8 -4 -4 -12 7 -45 -47 -35 -58 8 -8 33 13 33 29 0 6 9 20 20 30 11 10 17 22 14 26 -7 12 -21 11 -29 -1z"/>
 <path d="M2609 2643 c-25 -32 -39 -62 -30 -67 13 -9 65 64 54 75 -6 6 -15 3 -24 -8z"/>
 <path d="M3052 2632 c-24 -33 -30 -56 -17 -61 12 -5 56 77 45 84 -5 3 -17 -7 -28 -23z"/>
 <path d="M3235 2650 c-4 -6 -3 -16 3 -22 6 -6 12 -6 17 2 4 6 3 16 -3 22 -6 6 -12 6 -17 -2z"/>
 <path d="M4686 2651 c-9 -14 -17 -48 -20 -87 -2 -17 -6 -36 -10 -43 -4 -6 -4 -16 -1 -21 9 -14 28 -1 21 15 -2 7 0 17 5 22 5 5 11 25 13 45 2 19 6 41 11 47 4 7 3 17 -3 23 -6 6 -12 6 -16 -1z"/>
 <path d="M3911 2616 c-12 -13 -24 -30 -25 -37 -2 -8 -7 -22 -11 -32 -4 -11 -3 -23 3 -29 8 -8 13 -7 18 6 4 9 4 20 1 23 -4 3 7 23 24 44 33 42 25 62 -10 25z"/>
 <path d="M4915 2630 c-4 -6 -3 -16 3 -22 6 -6 12 -6 17 2 4 6 3 16 -3 22 -6 6 -12 6 -17 -2z"/>
 <path d="M3755 2618 c-9 -24 -1 -188 10 -191 14 -3 19 183 6 196 -7 7 -12 5 -16 -5z"/>
 <path d="M5232 2607 c-6 -7 -15 -25 -21 -39 -17 -44 6 -43 29 1 19 38 14 64 -8 38z"/>
 <path d="M2007 2583 c-4 -3 -4 -10 0 -16 23 -37 -11 -164 -51 -190 -26 -18 -76 -25 -94 -14 -6 5 -17 5 -22 2 -6 -4 -26 2 -45 14 -25 14 -47 19 -81 16 -27 -2 -53 0 -60 6 -6 5 -22 8 -35 6 -21 -3 -24 -10 -24 -43 l0 -39 73 -3 c66 -3 74 -1 79 17 5 18 6 18 40 -5 72 -48 178 -19 226 63 20 36 33 148 17 158 -6 4 -8 10 -5 15 6 10 -10 22 -18 13z"/>
 <path d="M3514 2576 c-18 -14 -18 -15 -1 -22 22 -8 46 11 31 26 -7 7 -17 5 -30 -4z"/>
 <path d="M4054 2580 c-27 -11 -55 -50 -47 -63 4 -6 14 -1 24 11 9 12 29 26 43 32 24 9 29 7 48 -26 15 -25 24 -32 31 -25 12 12 -22 66 -41 66 -6 0 -14 3 -18 8 -9 9 -13 8 -40 -3z"/>
 <path d="M4900 2571 c-7 -13 -7 -22 0 -26 13 -8 30 3 30 20 0 23 -18 27 -30 6z"/>
 <path d="M1767 2569 c-27 -16 -46 -70 -33 -94 38 -70 91 -85 140 -40 27 25 32 40 17 50 -5 3 -16 -4 -24 -15 -10 -15 -28 -22 -58 -25 l-44 -3 -3 40 c-2 31 3 47 18 63 23 25 15 39 -13 24z"/>
 <path d="M1835 2571 c-3 -6 1 -13 8 -18 8 -4 20 -19 26 -32 9 -15 16 -20 23 -13 7 7 6 17 -1 31 -14 25 -48 45 -56 32z"/>
 <path d="M2296 2572 c-3 -5 8 -19 24 -30 17 -13 27 -28 24 -36 -7 -17 12 -31 21 -16 4 6 1 17 -5 25 -7 8 -9 15 -4 15 4 0 -3 11 -16 25 -25 26 -35 30 -44 17z"/>
 <path d="M3181 2566 c-7 -8 -8 -17 -3 -20 6 -3 15 1 21 8 7 8 8 17 3 20 -6 3 -15 -1 -21 -8z"/>
 <path d="M5372 2557 c-12 -13 -19 -26 -16 -30 9 -8 64 34 58 45 -8 13 -19 9 -42 -15z"/>
 <path d="M6185 2570 c-7 -12 5 -17 40 -16 17 1 29 5 28 11 -3 12 -61 16 -68 5z"/>
 <path d="M2215 2550 c-13 -14 -15 -24 -8 -31 7 -7 15 -2 26 15 21 31 6 43 -18 16z"/>
 <path d="M2709 2548 c-15 -27 -28 -228 -16 -235 22 -13 32 25 37 133 3 64 2 118 -2 120 -4 3 -13 -6 -19 -18z"/>
 <path d="M5456 2562 c-3 -6 1 -15 8 -21 8 -7 17 -8 20 -3 3 6 -1 15 -8 21 -8 7 -17 8 -20 3z"/>
 <path d="M2799 2555 c0 -6 0 -55 1 -110 1 -75 5 -104 17 -117 9 -10 18 -16 22 -14 3 2 4 52 1 110 -4 82 -9 109 -23 123 -9 9 -17 13 -18 8z"/>
 <path d="M3450 2540 c-13 -25 -9 -129 5 -133 11 -2 24 143 13 149 -4 3 -12 -5 -18 -16z"/>
 <path d="M4265 2540 c-4 -6 -3 -16 3 -22 6 -6 12 -6 17 2 4 6 3 16 -3 22 -6 6 -12 6 -17 -2z"/>
 <path d="M6267 2544 c-3 -4 -2 -16 4 -26 8 -15 14 -17 22 -9 8 8 7 15 -4 26 -8 9 -18 13 -22 9z"/>
 <path d="M4796 2529 c-2 -8 -9 -29 -15 -46 -15 -48 5 -51 28 -4 16 34 17 42 5 52 -11 9 -15 8 -18 -2z"/>
 <path d="M5007 2523 c-12 -11 -8 -22 12 -33 11 -5 22 -6 25 -1 7 11 -28 43 -37 34z"/>
 <path d="M2486 2503 c-3 -3 -6 -42 -6 -85 l0 -78 -34 0 c-19 0 -41 -3 -50 -6 -12 -5 -16 0 -16 18 0 13 -7 33 -15 44 -15 18 -16 18 -43 -13 -16 -18 -33 -33 -39 -33 -6 0 -16 -6 -22 -14 -21 -25 7 -29 43 -7 32 20 34 20 38 3 4 -15 17 -19 76 -20 87 -3 92 4 92 112 0 69 -8 95 -24 79z"/>
 <path d="M4264 2486 c-4 -10 -2 -22 4 -28 8 -8 13 -7 18 6 4 10 2 22 -4 28 -8 8 -13 7 -18 -6z"/>
 <path d="M3874 2476 c-3 -8 -2 -21 2 -28 5 -7 9 -19 11 -27 2 -19 64 -81 75 -75 4 3 -9 25 -29 50 -21 25 -37 53 -35 64 4 23 -16 37 -24 16z"/>
 <path d="M4135 2480 c-4 -6 -3 -16 3 -22 6 -6 12 -6 17 2 4 6 3 16 -3 22 -6 6 -12 6 -17 -2z"/>
 <path d="M4645 2470 c-4 -6 -3 -16 3 -22 6 -6 12 -6 17 2 4 6 3 16 -3 22 -6 6 -12 6 -17 -2z"/>
 <path d="M4815 2470 c-3 -5 -3 -15 1 -21 4 -7 8 -26 10 -43 6 -63 26 -102 46 -90 5 3 4 12 -3 20 -6 8 -13 31 -15 51 -2 20 -8 41 -13 46 -5 5 -7 15 -5 22 7 16 -12 29 -21 15z"/>
 <path d="M5466 2461 c-10 -11 -13 -22 -8 -25 5 -3 17 3 26 13 10 11 13 22 8 25 -5 3 -17 -3 -26 -13z"/>
 <path d="M6261 2462 c-13 -25 2 -38 19 -16 9 10 10 18 3 25 -8 8 -14 5 -22 -9z"/>
 <path d="M2067 2464 c-4 -4 -3 -12 0 -18 4 -6 8 -16 9 -23 7 -44 95 -116 116 -95 7 7 0 15 -20 26 -28 14 -101 96 -94 104 6 7 -5 12 -11 6z"/>
 <path d="M4990 2454 c-9 -10 -10 -18 -3 -25 8 -8 14 -5 22 9 13 25 -2 38 -19 16z"/>
 <path d="M5206 2462 c-11 -19 19 -76 35 -67 4 3 3 18 -3 33 -16 36 -25 46 -32 34z"/>
 <path d="M2305 2448 c-16 -4 -38 -6 -47 -4 -26 6 -32 -11 -9 -23 29 -16 56 -13 82 7 27 23 15 32 -26 20z"/>
 <path d="M5990 2439 c-14 -10 -20 -19 -15 -20 6 -1 15 -2 21 -3 5 0 25 -18 43 -38 18 -21 37 -35 42 -32 5 3 -4 21 -21 40 -16 19 -30 41 -30 49 0 23 -14 25 -40 4z"/>
 <path d="M3304 2436 c-4 -10 -2 -22 4 -28 8 -8 13 -7 18 6 4 10 2 22 -4 28 -8 8 -13 7 -18 -6z"/>
 <path d="M4101 2436 c-7 -8 -8 -17 -3 -20 6 -3 15 1 21 8 7 8 8 17 3 20 -6 3 -15 -1 -21 -8z"/>
 <path d="M5035 2440 c-4 -6 -3 -16 3 -22 6 -6 12 -6 17 2 4 6 3 16 -3 22 -6 6 -12 6 -17 -2z"/>
 <path d="M3605 2421 c-3 -6 -12 -8 -19 -5 -17 6 -30 -11 -21 -27 5 -7 14 -4 27 8 11 10 22 17 25 15 3 -2 7 -1 9 1 3 3 1 8 -5 11 -5 4 -12 2 -16 -3z"/>
 <path d="M4226 2395 c-15 -19 -31 -35 -36 -35 -5 0 -21 -5 -37 -11 -34 -13 -123 -16 -142 -5 -7 5 -17 4 -23 -2 -17 -17 12 -26 86 -29 51 -1 78 3 105 17 50 25 98 77 84 91 -7 7 -18 -1 -37 -26z"/>
 <path d="M4595 2420 c-9 -14 14 -42 28 -33 6 3 7 1 3 -6 -4 -6 -15 -10 -24 -9 -9 2 -17 -4 -17 -12 0 -29 -43 -23 -73 10 -29 31 -42 31 -42 -2 0 -16 -9 -18 -68 -18 -74 0 -88 -5 -71 -27 7 -8 34 -13 75 -13 52 0 66 4 76 19 12 19 12 19 40 0 34 -25 73 -22 73 5 0 11 6 21 13 24 7 2 10 -2 6 -11 -3 -8 -1 -18 4 -21 14 -9 35 21 28 40 -4 9 -1 23 5 30 14 18 2 39 -15 25 -9 -7 -16 -7 -23 0 -8 8 -13 7 -18 -1z"/>
 <path d="M3527 2413 c-8 -16 -2 -83 8 -83 12 0 16 79 4 86 -4 2 -9 1 -12 -3z"/>
 <path d="M4763 2404 c-9 -25 13 -40 26 -16 10 19 6 32 -11 32 -5 0 -11 -7 -15 -16z"/>
 <path d="M4973 2395 c-3 -9 -3 -19 1 -22 3 -3 1 -12 -5 -19 -7 -8 -7 -14 1 -19 5 -3 11 -4 11 -1 1 3 2 9 3 14 1 4 7 17 14 28 11 21 7 34 -10 34 -5 0 -11 -7 -15 -15z"/>
 <path d="M5046 2393 c-3 -3 -6 -16 -6 -28 0 -25 35 -62 44 -46 4 5 2 12 -4 16 -5 3 -10 17 -10 30 0 25 -12 39 -24 28z"/>
 <path d="M5476 2391 c-4 -5 -2 -12 3 -15 5 -3 7 -15 4 -26 -9 -36 14 -50 82 -50 40 0 67 5 74 13 17 21 3 27 -65 27 -60 0 -74 7 -78 42 -2 13 -14 19 -20 9z"/>
 <path d="M5965 2390 c-4 -6 -3 -16 3 -22 6 -6 12 -6 17 2 4 6 3 16 -3 22 -6 6 -12 6 -17 -2z"/>
 <path d="M5246 2381 c-7 -10 19 -34 62 -55 34 -18 91 -24 111 -12 22 14 0 26 -48 26 -35 0 -58 7 -84 25 -20 13 -39 20 -41 16z"/>
 <path d="M5842 2356 c-24 -40 -9 -65 16 -28 l14 21 28 -20 c27 -21 62 -23 60 -4 0 6 -12 13 -26 17 -15 4 -37 16 -49 28 l-22 21 -21 -35z"/>
 <path d="M6257 2364 c-15 -13 -37 -24 -47 -24 -10 0 -22 -5 -25 -10 -4 -7 -11 -7 -18 -2 -19 15 -65 23 -72 13 -8 -14 33 -34 56 -28 10 3 21 1 24 -3 7 -11 63 5 85 25 9 8 20 12 23 9 4 -4 9 1 13 10 12 30 -10 36 -39 10z"/>
 <path d="M5157 2364 c-3 -4 -2 -16 4 -26 8 -15 14 -17 22 -9 8 8 7 15 -4 26 -8 9 -18 13 -22 9z"/>
 <path d="M3565 2350 c-9 -15 15 -42 32 -36 9 4 13 -5 13 -31 0 -52 36 -120 73 -139 45 -24 145 -14 169 16 28 34 21 130 -6 102 -4 -4 -16 -7 -27 -7 -10 0 -19 -4 -19 -10 0 -5 10 -9 21 -9 17 1 20 -4 17 -30 -3 -28 -8 -32 -45 -40 -57 -12 -110 0 -128 28 -9 13 -18 47 -22 75 -3 28 -12 56 -19 62 -8 6 -14 8 -14 4 0 -5 -9 0 -19 9 -13 12 -21 14 -26 6z"/>
 <path d="M5706 2342 c-3 -6 1 -15 8 -21 8 -7 17 -8 20 -3 3 6 -1 15 -8 21 -8 7 -17 8 -20 3z"/>
 <path d="M3307 2333 c-4 -3 -1 -13 6 -21 6 -8 26 -40 42 -71 29 -54 32 -56 70 -56 l40 0 3 60 c2 33 8 65 13 71 13 16 -1 25 -22 13 -15 -8 -19 -21 -19 -64 0 -48 -3 -55 -19 -55 -13 0 -31 20 -56 65 -35 63 -44 72 -58 58z"/>
 <path d="M3747 2329 c-18 -11 -23 -34 -8 -43 5 -3 16 5 25 19 18 27 10 38 -17 24z"/>
 <path d="M3050 2262 c-38 -38 -38 -66 -1 -103 37 -37 79 -38 120 -3 25 21 29 29 21 44 -5 10 -7 25 -4 34 7 18 -29 43 -74 52 -26 5 -36 1 -62 -24z m104 -22 c10 -9 13 -24 9 -38 -5 -20 -11 -22 -37 -18 -71 12 -71 12 -71 42 0 28 2 29 42 29 24 0 49 -7 57 -15z"/>
 <path d="M3735 2261 c-3 -6 3 -15 14 -21 12 -6 22 -6 26 -1 3 6 -3 15 -14 21 -12 6 -22 6 -26 1z"/>
 <path d="M6285 2220 c-8 -12 30 -27 65 -26 29 1 30 21 0 21 -10 0 -22 4 -26 8 -11 10 -32 9 -39 -3z"/>
 <path d="M6415 2206 c-14 -10 -15 -15 -6 -21 8 -4 19 -1 28 8 20 19 1 30 -22 13z"/>
 </g>
<g id="layer9" fill="#bc2222" stroke="none">
 <path d="M3987 1369 c-21 -23 -135 -78 -239 -114 -159 -55 -184 -155 -52 -205 56 -20 142 -27 160 -12 5 5 28 14 51 21 23 6 56 26 73 43 31 31 32 31 58 14 49 -32 91 -46 166 -57 87 -13 133 -7 170 22 58 46 16 107 -114 166 -124 56 -162 76 -211 110 -45 31 -46 31 -62 12z"/>
 </g>
<g id="layer10" fill="#f6e8d6" stroke="none">
 <path d="M425 3890 c-3 -5 -2 -11 2 -13 14 -8 53 -2 56 8 3 12 -51 17 -58 5z"/>
 <path d="M705 3889 c-7 -10 5 -16 27 -15 10 1 18 6 18 11 0 12 -38 16 -45 4z"/>
 <path d="M3115 3890 c-3 -5 -2 -11 2 -13 12 -7 47 -2 53 7 7 11 -48 17 -55 6z"/>
 <path d="M3394 3888 c-6 -9 -4 -10 26 -11 11 -1 19 3 18 8 -4 12 -37 14 -44 3z"/>
 <path d="M5805 3890 c-3 -5 -2 -11 2 -13 12 -7 47 -2 53 7 7 11 -48 17 -55 6z"/>
 <path d="M6084 3888 c-6 -9 -4 -10 26 -11 11 -1 19 3 18 8 -4 12 -37 14 -44 3z"/>
 <path d="M886 3861 c-3 -5 1 -14 8 -20 16 -13 32 2 21 19 -8 12 -22 13 -29 1z"/>
 <path d="M3576 3861 c-3 -5 1 -14 8 -20 16 -13 32 2 21 19 -8 12 -22 13 -29 1z"/>
 <path d="M6275 3860 c-4 -6 -3 -16 3 -22 6 -6 12 -6 17 2 4 6 3 16 -3 22 -6 6 -12 6 -17 -2z"/>
 <path d="M105 3828 c-10 -24 -1 -123 10 -121 14 4 19 113 6 126 -7 7 -12 5 -16 -5z"/>
 <path d="M1145 3829 c-10 -26 -1 -319 10 -322 14 -3 19 313 6 326 -7 7 -12 5 -16 -4z"/>
 <path d="M3835 3819 c-10 -26 -1 -304 10 -302 14 4 19 293 6 306 -7 7 -12 5 -16 -4z"/>
 <path d="M5904 3796 c-4 -10 -2 -22 4 -28 8 -8 13 -7 18 6 4 10 2 22 -4 28 -8 8 -13 7 -18 -6z"/>
 <path d="M375 3760 c-4 -6 -3 -16 3 -22 6 -6 12 -6 17 2 4 6 3 16 -3 22 -6 6 -12 6 -17 -2z"/>
 <path d="M3215 3740 c-4 -6 -3 -16 3 -22 6 -6 12 -6 17 2 4 6 3 16 -3 22 -6 6 -12 6 -17 -2z"/>
 <path d="M5905 3740 c-4 -6 -3 -16 3 -22 6 -6 12 -6 17 2 4 6 3 16 -3 22 -6 6 -12 6 -17 -2z"/>
 <path d="M7605 3730 c-4 -6 -3 -16 3 -22 6 -6 12 -6 17 2 4 6 3 16 -3 22 -6 6 -12 6 -17 -2z"/>
 <path d="M7008 3683 c-8 -14 -3 -38 7 -41 12 -3 16 36 4 43 -4 3 -9 2 -11 -2z"/>
 <path d="M1625 3660 c-4 -6 -3 -16 3 -22 6 -6 12 -6 17 2 4 6 3 16 -3 22 -6 6 -12 6 -17 -2z"/>
 <path d="M4315 3660 c-4 -6 -3 -16 3 -22 6 -6 12 -6 17 2 4 6 3 16 -3 22 -6 6 -12 6 -17 -2z"/>
 <path d="M605 3620 c-8 -12 20 -24 35 -15 6 3 8 11 5 16 -8 12 -32 12 -40 -1z"/>
 <path d="M765 3620 c-8 -12 20 -24 35 -15 6 3 8 11 5 16 -8 12 -32 12 -40 -1z"/>
 <path d="M1845 3621 c-7 -12 12 -24 25 -16 11 7 4 25 -10 25 -5 0 -11 -4 -15 -9z"/>
 <path d="M2105 3621 c-7 -12 12 -24 25 -16 11 7 4 25 -10 25 -5 0 -11 -4 -15 -9z"/>
 <path d="M2155 3621 c-7 -12 12 -24 25 -16 11 7 4 25 -10 25 -5 0 -11 -4 -15 -9z"/>
 <path d="M2265 3620 c-8 -12 20 -24 35 -15 6 3 8 11 5 16 -8 12 -32 12 -40 -1z"/>
 <path d="M2345 3621 c-7 -12 12 -24 25 -16 11 7 4 25 -10 25 -5 0 -11 -4 -15 -9z"/>
 <path d="M3295 3620 c-8 -12 20 -24 35 -15 6 3 8 11 5 16 -8 12 -32 12 -40 -1z"/>
 <path d="M3465 3621 c-7 -12 12 -24 25 -16 11 7 4 25 -10 25 -5 0 -11 -4 -15 -9z"/>
 <path d="M4535 3621 c-7 -12 12 -24 25 -16 11 7 4 25 -10 25 -5 0 -11 -4 -15 -9z"/>
 <path d="M4795 3621 c-7 -12 12 -24 25 -16 11 7 4 25 -10 25 -5 0 -11 -4 -15 -9z"/>
 <path d="M4955 3620 c-8 -12 20 -24 35 -15 6 3 8 11 5 16 -8 12 -32 12 -40 -1z"/>
 <path d="M5035 3621 c-7 -12 12 -24 25 -16 11 7 4 25 -10 25 -5 0 -11 -4 -15 -9z"/>
 <path d="M5995 3621 c-7 -12 12 -24 25 -16 11 7 4 25 -10 25 -5 0 -11 -4 -15 -9z"/>
 <path d="M6155 3621 c-7 -12 12 -24 25 -16 11 7 4 25 -10 25 -5 0 -11 -4 -15 -9z"/>
 <path d="M7225 3621 c-7 -12 12 -24 25 -16 11 7 4 25 -10 25 -5 0 -11 -4 -15 -9z"/>
 <path d="M7485 3621 c-7 -12 12 -24 25 -16 11 7 4 25 -10 25 -5 0 -11 -4 -15 -9z"/>
 <path d="M7545 3621 c-7 -12 12 -24 25 -16 11 7 4 25 -10 25 -5 0 -11 -4 -15 -9z"/>
 <path d="M7645 3620 c-8 -12 20 -24 35 -15 6 3 8 11 5 16 -8 12 -32 12 -40 -1z"/>
 <path d="M7725 3621 c-7 -12 12 -24 25 -16 11 7 4 25 -10 25 -5 0 -11 -4 -15 -9z"/>
 <path d="M2716 2859 c-29 -23 -35 -69 -11 -89 16 -13 17 -11 19 35 1 28 4 30 46 33 100 8 168 -43 190 -140 6 -29 11 -118 10 -198 -1 -117 -4 -148 -17 -162 -14 -16 -14 -18 2 -24 12 -5 24 0 37 15 15 20 18 42 18 157 0 73 -4 135 -8 138 -5 3 -7 18 -4 34 5 39 -31 122 -71 160 -61 59 -163 79 -211 41z"/>
 <path d="M1596 2808 c-24 -33 -24 -469 -1 -488 11 -9 19 -10 26 -3 8 8 7 13 0 17 -7 5 -11 81 -11 233 l0 226 63 -7 c34 -4 66 -12 72 -17 5 -5 8 -26 6 -47 -3 -50 18 -70 55 -53 36 16 111 14 151 -6 48 -22 83 -95 79 -164 -4 -59 -41 -118 -95 -150 -47 -29 -76 -30 -129 -8 -40 17 -45 17 -68 2 -29 -19 -24 -27 19 -30 18 -1 54 -4 82 -7 27 -2 54 -2 59 2 6 3 21 7 34 8 28 3 75 44 102 88 l18 28 12 -23 c43 -84 142 -126 228 -98 24 8 36 8 47 -1 24 -20 35 -2 18 30 -17 35 -17 35 -57 11 -37 -23 -61 -27 -101 -16 -57 15 -83 35 -104 78 -41 85 -15 195 59 245 39 26 134 31 166 8 16 -13 21 -13 35 0 12 11 35 14 80 12 l64 -3 3 -159 c3 -150 2 -160 -18 -181 -27 -29 -9 -43 25 -21 25 16 25 17 25 189 0 130 -3 178 -14 192 -18 25 -113 33 -155 12 -27 -14 -35 -14 -59 -1 -75 39 -180 -7 -242 -104 -9 -14 -12 -14 -17 -3 -3 8 -21 31 -40 52 -55 60 -140 83 -205 54 -15 -6 -18 -2 -18 25 0 54 -14 67 -89 84 -88 20 -87 20 -105 -6z"/>
 <path d="M2704 2733 c-3 -12 -23 -28 -45 -39 -63 -28 -120 -111 -105 -150 9 -22 20 -9 36 39 22 70 116 114 189 89 22 -8 32 -8 37 0 9 14 -41 58 -65 58 -9 0 -23 6 -29 12 -10 10 -14 8 -18 -9z"/>
 <path d="M3105 2702 c-42 -27 -72 -62 -80 -93 -9 -35 12 -48 24 -17 5 13 21 38 36 56 24 29 32 32 84 32 77 0 94 -13 83 -65 -5 -24 -14 -40 -22 -40 -35 -1 -40 -15 -40 -117 0 -80 -3 -105 -16 -120 -16 -16 -16 -18 0 -24 36 -14 46 13 46 122 0 80 3 104 13 104 27 0 49 38 50 85 2 40 -2 50 -25 68 -38 29 -115 33 -153 9z"/>
 <path d="M3380 2701 c-41 -21 -83 -78 -77 -103 3 -10 1 -21 -4 -24 -5 -3 -9 -30 -9 -61 0 -44 -5 -62 -21 -79 -27 -28 -16 -53 12 -28 10 9 19 13 19 9 0 -5 4 -5 9 1 5 5 11 45 12 89 2 81 14 120 50 156 15 15 33 19 82 19 84 0 102 -13 92 -69 -6 -39 -9 -42 -31 -37 -30 8 -44 -17 -44 -82 0 -53 10 -68 50 -74 31 -4 40 -50 15 -78 -19 -21 -11 -28 25 -25 22 1 24 5 21 48 -1 28 2 48 8 48 6 1 17 2 24 3 9 1 12 28 12 99 0 120 -19 137 -23 20 -2 -69 -6 -84 -22 -93 -12 -7 -21 -7 -25 0 -3 5 -17 10 -31 10 -22 0 -24 4 -24 43 0 40 2 44 33 52 28 9 33 16 41 58 11 58 4 75 -45 99 -44 23 -105 23 -149 -1z"/>
 <path d="M3633 2711 c-25 -11 -40 -48 -25 -63 7 -7 14 -3 21 11 10 18 21 21 76 21 l65 0 0 -118 c0 -130 5 -142 56 -142 20 0 34 -6 38 -16 3 -8 10 -13 14 -10 5 3 22 -8 38 -25 33 -35 80 -62 94 -54 5 3 11 1 14 -4 7 -11 104 -12 111 0 3 4 12 6 20 3 22 -9 102 42 129 83 l25 36 3 -49 c2 -27 8 -48 13 -47 6 2 12 71 15 170 l5 168 73 3 72 3 0 -96 c0 -82 3 -98 20 -115 11 -11 26 -21 33 -21 6 -1 22 -3 35 -4 30 -3 35 -9 34 -44 -1 -41 -18 -69 -44 -73 -13 -2 -22 -7 -21 -13 3 -13 30 -18 51 -9 9 4 21 8 26 8 5 1 10 21 12 45 2 23 7 48 12 55 12 15 34 134 27 145 -3 5 -1 13 5 16 6 4 10 14 8 23 -1 10 6 32 15 50 17 32 18 32 92 32 73 0 75 0 81 -27 17 -84 42 -93 59 -22 l11 44 84 0 83 0 34 -160 c25 -117 31 -165 24 -177 -14 -23 4 -34 26 -17 11 10 14 24 9 59 l-6 45 19 -30 c40 -65 102 -96 175 -90 49 5 106 29 106 45 0 19 -18 18 -67 -6 -49 -24 -51 -25 -94 -9 -24 10 -52 17 -61 18 -9 1 -15 4 -12 8 2 4 -4 17 -14 30 -10 13 -21 32 -25 41 -4 11 -12 15 -22 12 -10 -4 -15 0 -15 10 0 9 5 15 12 13 8 -1 15 18 19 51 8 62 37 109 89 145 31 22 127 23 157 2 18 -13 22 -13 33 0 9 10 32 15 76 15 l64 0 1 -155 c1 -85 2 -161 3 -167 1 -7 -4 -20 -12 -30 -20 -24 4 -35 29 -12 17 16 19 32 19 189 0 129 -3 176 -14 190 -19 26 -126 34 -160 11 -22 -14 -28 -14 -53 -1 -40 21 -89 18 -141 -7 -59 -30 -93 -74 -113 -145 l-16 -57 -18 89 c-24 123 -41 138 -143 133 -63 -3 -77 -7 -93 -27 l-19 -23 -18 22 c-13 16 -32 24 -70 28 -80 7 -119 -4 -138 -39 -8 -17 -13 -37 -10 -45 3 -7 1 -16 -5 -20 -5 -3 -9 -13 -8 -22 1 -10 -1 -24 -4 -32 -3 -8 -11 -33 -16 -55 -12 -45 -31 -51 -86 -24 -30 14 -30 15 -35 114 -5 94 -6 100 -30 112 -14 7 -49 13 -78 13 -70 0 -102 -29 -102 -91 l0 -42 -30 41 c-78 108 -256 121 -354 26 -41 -39 -68 -95 -65 -134 4 -58 0 -70 -26 -70 l-25 0 0 109 c0 138 -9 153 -96 158 -32 1 -69 -1 -81 -6z m567 -53 c25 -13 53 -37 63 -55 21 -37 29 -116 15 -153 -22 -60 -114 -124 -178 -123 -114 1 -180 41 -205 125 -12 41 -12 54 0 96 15 50 62 104 105 121 48 19 152 13 200 -11z"/>
 <path d="M4048 2569 c-13 -7 -18 -23 -18 -54 0 -35 5 -48 26 -64 34 -27 50 -26 79 4 31 30 31 43 2 86 -24 36 -58 47 -89 28z m70 -60 c2 -26 -2 -38 -12 -42 -28 -11 -46 4 -46 37 0 39 7 48 35 44 15 -2 21 -12 23 -39z"/>
 <path d="M5716 2699 l-26 -20 0 -174 c0 -141 3 -175 15 -185 8 -7 15 -9 15 -4 1 5 2 88 3 184 l2 175 67 3 66 3 4 -95 c3 -109 17 -133 78 -140 19 -2 38 -4 43 -5 10 -1 9 -29 -4 -73 -11 -43 -37 -50 -77 -22 -21 15 -25 15 -42 -1 -21 -19 -17 -40 6 -31 8 3 35 0 59 -6 39 -11 46 -10 65 7 11 10 20 26 20 35 0 31 13 31 47 -1 18 -18 40 -33 50 -34 10 0 24 -4 31 -9 6 -4 17 -4 22 -1 13 8 2 27 -13 22 -19 -6 -95 51 -112 83 -37 72 -18 175 44 234 36 35 111 46 172 26 30 -10 42 -11 51 -2 15 15 130 16 145 1 8 -8 13 -7 18 2 5 7 -1 19 -15 31 -27 22 -112 25 -150 5 -21 -11 -31 -11 -55 -1 -87 37 -198 -18 -240 -119 -9 -21 -13 -42 -9 -48 3 -5 0 -16 -6 -24 -9 -11 -10 -18 -1 -29 18 -21 -23 -27 -59 -9 l-30 14 0 94 c0 89 -1 95 -26 114 -19 15 -41 21 -79 21 -38 0 -60 -6 -79 -21z"/>
 <path d="M1775 2560 c-41 -46 -1 -122 63 -118 39 3 53 23 48 69 -7 60 -74 90 -111 49z m75 -30 c16 -16 18 -25 10 -40 -18 -34 -70 -19 -70 20 0 17 18 40 32 40 4 0 17 -9 28 -20z"/>
 <path d="M2240 2553 c-50 -64 30 -145 98 -97 33 23 29 66 -9 98 -39 33 -62 33 -89 -1z m82 -27 c27 -39 -31 -78 -59 -41 -17 24 -16 30 2 49 16 15 44 11 57 -8z"/>
 <path d="M2734 2555 c-21 -32 -9 -52 18 -29 15 15 23 16 38 6 27 -17 35 3 10 28 -27 27 -46 25 -66 -5z"/>
 <path d="M5392 2563 c-34 -30 -36 -57 -6 -92 29 -34 58 -39 92 -15 33 23 29 66 -9 98 -36 31 -50 32 -77 9z m76 -56 c3 -21 -2 -28 -23 -33 -30 -7 -45 7 -45 43 0 43 63 34 68 -10z"/>
 <path d="M6186 2557 c-42 -42 -11 -117 48 -117 29 0 74 46 60 60 -7 7 -16 4 -29 -10 -23 -25 -47 -26 -70 0 -23 25 -5 50 36 50 38 0 46 18 14 30 -34 13 -32 14 -59 -13z"/>
 <path d="M4802 2464 c-5 -10 -13 -39 -17 -64 -4 -25 -14 -52 -22 -62 -10 -11 -11 -18 -3 -23 15 -10 50 24 50 48 0 16 3 17 14 8 10 -8 16 -9 21 -1 8 13 -4 32 -16 25 -5 -4 -9 -2 -9 4 0 5 5 13 10 16 14 9 12 28 -4 50 -13 18 -14 18 -24 -1z"/>
 <path d="M5011 2457 c-5 -14 -13 -42 -17 -63 -3 -22 -13 -46 -21 -56 -11 -12 -12 -18 -2 -24 14 -8 49 30 49 53 0 10 6 13 15 9 21 -8 27 12 17 59 -9 46 -28 56 -41 22z"/>
 <path d="M2716 2345 c-10 -15 -12 -26 -5 -30 12 -8 39 13 39 31 0 24 -18 24 -34 -1z"/>
 <path d="M3856 2345 c-10 -15 -12 -26 -5 -30 12 -8 39 13 39 31 0 24 -18 24 -34 -1z"/>
 <path d="M6260 2355 c-7 -8 -25 -18 -41 -23 -32 -8 -35 -28 -4 -25 11 2 34 5 50 7 33 4 44 26 22 45 -11 9 -17 8 -27 -4z"/>
 <path d="M4476 2341 c-20 -22 -4 -40 18 -22 7 6 16 8 19 5 3 -3 11 -3 18 2 9 5 7 11 -6 21 -24 17 -29 17 -49 -6z"/>
 <path d="M2555 2340 c-10 -17 12 -37 25 -24 8 8 6 15 -4 23 -10 9 -16 9 -21 1z"/>
 <path d="M2805 2340 c-10 -17 12 -37 25 -24 8 8 6 15 -4 23 -10 9 -16 9 -21 1z"/>
 <path d="M3255 2340 c-9 -15 2 -25 28 -25 17 0 30 -15 55 -65 18 -35 38 -68 45 -72 20 -13 71 -9 95 8 20 14 23 23 20 77 -4 77 -21 77 -28 0 -5 -58 -5 -58 -40 -61 -34 -3 -36 -1 -68 63 -29 59 -40 70 -66 66 -4 -1 -14 3 -21 9 -10 8 -15 8 -20 0z"/>
 <path d="M4835 2340 c-10 -17 12 -37 25 -24 8 8 6 15 -4 23 -10 9 -16 9 -21 1z"/>
 <path d="M5045 2340 c-10 -17 12 -37 25 -24 8 8 6 15 -4 23 -10 9 -16 9 -21 1z"/>
 <path d="M3604 2316 c-8 -21 3 -49 16 -41 5 3 10 15 10 25 0 25 -18 36 -26 16z"/>
 <path d="M3767 2324 c-12 -12 -8 -52 6 -61 6 -4 30 -8 52 -8 38 0 40 -1 43 -35 4 -44 -20 -60 -99 -67 -70 -7 -103 10 -126 64 -10 25 -18 32 -25 25 -17 -17 22 -84 62 -105 44 -23 135 -18 182 10 28 16 33 26 36 61 5 63 -10 82 -64 82 -36 0 -44 3 -42 16 3 18 -13 29 -25 18z"/>
 <path d="M3070 2301 c-73 -39 -75 -137 -4 -167 45 -19 73 -18 110 5 43 26 60 71 44 112 -14 34 -63 69 -95 69 -11 0 -36 -8 -55 -19z m108 -47 c29 -32 28 -40 -7 -75 -35 -35 -81 -39 -111 -9 -25 25 -25 45 1 78 37 48 76 50 117 6z"/>
 <path d="M6275 2229 c-8 -12 13 -39 31 -39 24 0 24 18 -1 34 -15 10 -26 12 -30 5z"/>
 <path d="M6441 2217 c-7 -7 -24 -12 -39 -12 -26 0 -45 -20 -19 -20 6 0 18 -4 25 -9 14 -8 62 18 62 34 0 16 -16 20 -29 7z"/>
 <path d="M4650 1905 c-13 -15 -8 -19 22 -16 9 1 35 -7 57 -18 39 -20 64 -15 38 8 -15 12 -82 41 -95 41 -5 0 -15 -7 -22 -15z"/>
 <path d="M4610 1864 c-9 -10 -10 -18 -3 -25 8 -8 14 -5 22 9 13 25 -2 38 -19 16z"/>
 <path d="M4198 1852 c-8 -9 -8 -16 0 -24 8 -8 13 -7 18 6 6 15 15 9 59 -34 36 -35 55 -48 60 -40 10 16 -82 109 -107 107 -11 -1 -24 -7 -30 -15z"/>
 <path d="M4786 1852 c-3 -5 12 -22 33 -38 79 -60 197 -225 257 -359 10 -22 25 -48 33 -57 8 -10 12 -18 9 -18 -3 0 9 -37 26 -82 18 -46 37 -82 42 -80 13 5 7 36 -16 87 -11 24 -20 48 -20 53 0 5 -7 15 -15 22 -8 7 -12 16 -9 21 2 5 -18 52 -46 105 -79 149 -143 239 -163 227 -6 -4 -7 -1 -2 6 10 17 -65 93 -84 86 -9 -3 -12 -3 -8 1 8 8 -10 34 -24 34 -4 0 -10 -4 -13 -8z"/>
 <path d="M4194 1786 c-9 -23 8 -89 21 -84 12 4 7 79 -5 92 -6 6 -12 2 -16 -8z"/>
 <path d="M4604 1766 c-4 -10 -2 -22 4 -28 8 -8 13 -7 18 6 4 10 2 22 -4 28 -8 8 -13 7 -18 -6z"/>
 <path d="M4615 1708 c-4 -9 -3 -23 1 -30 4 -6 9 -24 11 -38 1 -14 10 -44 19 -66 10 -21 18 -46 19 -54 1 -8 5 -25 9 -37 10 -32 -6 -29 -48 8 -21 18 -40 27 -47 23 -7 -4 -9 -3 -6 3 3 5 -29 44 -72 87 -43 43 -81 74 -84 69 -7 -11 177 -195 230 -231 64 -44 87 -20 52 55 -12 26 -23 53 -24 58 -10 63 -19 96 -26 101 -4 2 -6 10 -3 17 2 7 -2 21 -10 32 -13 18 -15 19 -21 3z"/>
 <path d="M4215 1670 c-4 -6 -3 -16 3 -22 6 -6 12 -6 17 2 4 6 3 16 -3 22 -6 6 -12 6 -17 -2z"/>
 <path d="M4225 1620 c-3 -5 -3 -16 1 -22 5 -7 9 -19 9 -28 3 -27 71 -124 118 -167 25 -24 79 -63 119 -89 40 -25 86 -55 101 -66 19 -13 32 -17 38 -11 7 7 -32 38 -106 87 -130 86 -186 139 -221 207 -13 26 -28 50 -33 54 -6 3 -8 12 -5 19 6 17 -12 31 -21 16z"/>
 <path d="M3984 1408 c-6 -9 -4 -10 26 -11 11 -1 19 3 18 8 -4 12 -37 14 -44 3z"/>
 <path d="M4065 1371 c-3 -6 3 -15 14 -21 12 -6 22 -6 26 -1 3 6 -3 15 -14 21 -12 6 -22 6 -26 1z"/>
 <path d="M3860 1334 c-25 -14 -46 -25 -47 -25 -2 1 -5 0 -8 0 -3 -1 -9 -2 -15 -3 -5 0 -10 -4 -10 -8 0 -5 0 -11 0 -14 0 -4 7 -1 15 6 8 7 15 9 15 5 0 -4 7 -2 15 5 8 7 15 10 15 6 0 -4 18 3 40 14 23 12 38 25 35 30 -8 12 -3 14 -55 -16z"/>
 <path d="M4155 1320 c-3 -5 -4 -11 -1 -11 3 -1 9 -2 14 -3 4 -1 16 -7 27 -13 11 -6 23 -11 28 -12 4 0 20 -7 37 -16 17 -9 31 -11 35 -5 3 5 -8 16 -25 25 -16 8 -30 13 -30 10 0 -3 -11 2 -25 11 -14 9 -25 13 -25 9 0 -4 -6 -2 -14 4 -10 8 -16 9 -21 1z"/>
 <path d="M3732 1288 c-7 -7 -12 -9 -12 -5 0 4 -18 -2 -40 -13 -23 -12 -38 -25 -35 -30 4 -6 24 -1 48 12 23 12 45 22 50 23 4 0 7 4 8 8 1 15 -7 17 -19 5z"/>
 <path d="M4315 1251 c-3 -6 3 -15 14 -21 12 -6 22 -6 26 -1 3 6 -3 15 -14 21 -12 6 -22 6 -26 1z"/>
 <path d="M4626 1222 c-3 -5 2 -16 11 -23 9 -8 25 -34 36 -58 23 -52 17 -98 -18 -131 -28 -26 -24 -45 6 -29 28 14 59 68 59 102 0 51 -77 166 -94 139z"/>
 <path d="M3600 1201 c-6 -12 -6 -22 -1 -26 6 -3 15 3 21 14 6 12 6 22 1 26 -6 3 -15 -3 -21 -14z"/>
 <path d="M5197 1163 c-3 -4 -2 -39 2 -78 3 -38 3 -95 0 -125 -3 -30 -3 -59 2 -64 11 -13 28 27 35 85 9 79 -20 214 -39 182z"/>
 <path d="M3586 1151 c-10 -16 13 -66 25 -54 6 6 6 19 0 36 -11 29 -16 32 -25 18z"/>
 <path d="M3975 1105 c-21 -18 -55 -38 -74 -44 -57 -17 -181 -16 -223 2 -37 15 -60 9 -35 -10 21 -16 77 -36 84 -29 3 3 12 1 20 -5 31 -26 206 21 242 64 18 23 31 21 90 -10 37 -19 55 -23 63 -15 7 7 -9 20 -59 45 l-69 34 -39 -32z"/>
 <path d="M4386 1101 c-18 -19 -24 -31 -16 -36 12 -8 36 9 51 36 16 30 -6 30 -35 0z"/>
 <path d="M4165 1061 c-7 -12 12 -24 25 -16 11 7 4 25 -10 25 -5 0 -11 -4 -15 -9z"/>
 <path d="M4325 1061 c-7 -12 12 -24 25 -16 11 7 4 25 -10 25 -5 0 -11 -4 -15 -9z"/>
 <path d="M4140 963 c-50 -25 -50 -52 0 -96 41 -38 55 -44 64 -28 3 5 -13 21 -35 35 -51 34 -48 56 9 70 24 6 43 16 43 21 -1 17 -45 16 -81 -2z"/>
 <path d="M4415 971 c-8 -13 33 -34 52 -27 12 5 13 9 3 21 -14 17 -46 20 -55 6z"/>
 <path d="M4561 966 c-8 -10 -9 -16 -2 -21 14 -8 53 13 46 26 -9 13 -31 11 -44 -5z"/>
 <path d="M5163 843 c-31 -45 -34 -51 -24 -57 15 -10 66 63 54 75 -7 7 -17 2 -30 -18z"/>
 <path d="M4246 821 c-7 -11 11 -26 41 -35 34 -11 37 11 4 29 -35 18 -38 18 -45 6z"/>
 <path d="M4375 770 c-3 -4 1 -12 8 -17 18 -15 78 -34 87 -28 5 3 12 0 15 -6 4 -5 13 -8 21 -5 7 3 16 1 20 -5 3 -6 12 -8 20 -5 7 3 16 1 19 -4 8 -14 107 -32 118 -21 13 13 -25 31 -77 35 -24 2 -49 7 -56 11 -6 4 -14 4 -17 1 -3 -3 -12 -1 -20 6 -7 6 -16 8 -20 4 -3 -3 -13 0 -22 7 -21 18 -90 37 -96 27z"/>
 <path d="M5091 763 c-16 -11 -20 -18 -12 -26 8 -8 17 -5 32 10 26 25 11 38 -20 16z"/>
 <path d="M5005 718 c-16 -5 -37 -12 -45 -16 -8 -3 -26 -7 -39 -8 -13 -2 -29 -8 -34 -13 -15 -15 20 -26 37 -12 7 6 20 9 29 5 19 -7 100 33 92 46 -4 6 -7 10 -8 9 -1 0 -15 -5 -32 -11z"/>
 <path d="M4705 690 c-8 -13 23 -33 41 -26 8 3 13 10 10 15 -8 12 -45 21 -51 11z"/>
 <path d="M4790 645 c-19 -23 -1 -39 21 -19 10 9 16 21 13 25 -8 13 -20 11 -34 -6z"/>
 <path d="M4845 650 c-3 -5 7 -16 23 -24 16 -8 43 -27 60 -41 18 -15 33 -21 37 -15 9 15 -5 32 -21 26 -8 -3 -13 0 -11 6 2 11 -58 58 -74 58 -4 0 -10 -4 -14 -10z"/>
 <path d="M4786 561 c-4 -6 -2 -28 4 -50 18 -68 46 -65 30 3 -10 44 -24 63 -34 47z"/>
 <path d="M4946 481 c-12 -14 -14 -21 -6 -26 17 -10 47 22 34 35 -7 7 -16 4 -28 -9z"/>
 <path d="M4845 450 c-8 -13 20 -24 41 -16 20 8 9 26 -16 26 -10 0 -22 -5 -25 -10z"/>
 </g>
<g id="layer11" fill="#0157ad" stroke="none">
 <path d="M2985 1220 c-4 -6 -3 -16 3 -22 6 -6 12 -6 17 2 4 6 3 16 -3 22 -6 6 -12 6 -17 -2z"/>
 <path d="M3039 1226 c0 0 -2 -10 -4 -21 -10 -54 -19 -81 -29 -87 -6 -4 -12 -12 -12 -18 -1 -5 -3 -12 -4 -15 -1 -3 -3 -11 -4 -17 -1 -7 -7 -12 -13 -11 -7 2 -21 -9 -32 -24 -12 -14 -21 -22 -21 -18 0 4 -6 2 -13 -4 -8 -6 -16 -9 -19 -6 -3 3 -11 -1 -18 -10 -7 -8 -18 -15 -25 -15 -22 0 -42 -35 -40 -72 2 -52 16 -66 115 -114 19 -9 57 -28 83 -40 27 -13 56 -24 66 -24 9 0 33 -9 54 -20 20 -11 48 -20 61 -20 14 0 27 -4 31 -10 3 -5 12 -7 19 -4 8 3 17 0 21 -5 3 -6 11 -9 16 -5 5 3 33 -1 62 -9 75 -22 156 -30 287 -30 132 0 208 9 258 30 19 8 40 12 47 9 8 -3 19 2 25 10 7 8 20 14 30 14 10 0 23 6 29 14 7 8 23 17 36 20 13 3 29 15 35 26 6 11 17 20 24 20 20 0 39 27 32 45 -4 12 -10 13 -25 6 -10 -6 -36 -13 -57 -17 -62 -11 -287 -14 -298 -5 -6 5 -20 7 -30 5 -21 -3 -135 33 -150 47 -6 5 -17 9 -27 9 -9 0 -28 9 -42 20 -14 11 -31 20 -38 20 -13 0 -29 13 -96 81 -24 23 -43 47 -43 53 0 7 -9 19 -19 28 -12 10 -22 36 -26 65 -4 26 -9 55 -12 63 -4 8 -7 20 -7 25 -1 8 -222 18 -227 11z"/>
 <path d="M3295 1180 c-4 -6 -3 -16 3 -22 6 -6 12 -6 17 2 4 6 3 16 -3 22 -6 6 -12 6 -17 -2z"/>
 <path d="M2926 742 c-3 -5 -5 -26 -4 -49 0 -22 -4 -49 -10 -60 -17 -31 -3 -60 39 -83 55 -28 88 -25 143 12 77 51 83 94 16 120 -31 13 -80 16 -87 6 -2 -5 -10 -8 -16 -8 -7 0 -4 5 6 11 22 13 16 23 -25 43 -34 18 -54 20 -62 8z"/>
 </g>
<g id="layer12" fill="#024991" stroke="none">
 <path d="M3315 1905 c-16 -14 -43 -35 -58 -47 -70 -57 -251 -239 -273 -274 -52 -85 -76 -146 -77 -194 -1 -41 6 -58 41 -110 59 -89 68 -183 22 -225 -11 -10 -17 -22 -13 -28 4 -6 1 -7 -6 -3 -7 5 -20 1 -29 -7 -9 -9 -20 -16 -24 -16 -5 -1 -8 -3 -8 -6 0 -4 6 -6 13 -4 1 0 11 2 22 4 34 7 103 88 110 131 13 74 23 81 117 80 45 -1 88 -4 94 -8 6 -4 14 -30 17 -57 6 -52 34 -118 45 -107 3 4 5 37 5 73 -2 67 4 88 35 124 44 51 67 69 120 94 31 15 64 31 72 36 8 5 35 18 60 29 25 11 61 29 80 39 19 10 48 22 64 25 16 4 43 18 59 32 16 13 33 24 38 24 5 0 39 23 74 50 35 28 68 50 73 50 11 0 68 61 75 82 7 20 -22 48 -51 48 -11 0 -23 4 -26 9 -3 4 -72 6 -153 4 -166 -4 -200 -7 -225 -17 -9 -4 -21 -5 -27 -2 -5 4 -12 2 -16 -4 -3 -5 -17 -10 -31 -10 -14 0 -43 -9 -65 -21 -46 -23 -56 -20 -40 9 22 41 9 161 -22 210 -13 20 -60 13 -92 -13z"/>
 <path d="M3326 1002 c-3 -6 1 -15 8 -21 8 -7 17 -8 20 -3 3 6 -1 15 -8 21 -8 7 -17 8 -20 3z"/>
 <path d="M2814 945 c-12 -18 -14 -29 -6 -37 7 -7 15 -1 26 20 20 39 3 52 -20 17z"/>
 <path d="M4095 806 c-14 -10 -15 -15 -6 -21 8 -4 19 -1 28 8 20 19 1 30 -22 13z"/>
 <path d="M2876 781 c-5 -8 15 -30 41 -45 26 -14 20 12 -7 32 -16 12 -31 18 -34 13z"/>
 </g>
<g id="layer13" fill="#8db13e" stroke="none">
 <path d="M4643 1895 c-32 -22 -44 -71 -34 -135 13 -79 48 -207 72 -263 45 -107 -5 -73 -252 170 -159 157 -208 200 -217 191 -28 -28 0 -222 45 -312 44 -88 100 -144 227 -228 140 -93 171 -119 197 -170 38 -75 19 -130 -59 -165 -60 -26 -104 -28 -236 -11 -91 11 -214 0 -258 -23 -27 -15 -21 -44 15 -75 36 -31 165 -92 247 -118 30 -9 63 -21 72 -26 14 -8 174 -43 248 -54 118 -19 112 -17 97 -34 -8 -10 -16 -24 -20 -33 -6 -19 20 -139 35 -156 6 -7 30 -13 54 -13 34 0 51 7 79 31 19 17 35 39 35 49 0 26 -47 78 -98 111 -48 30 -53 26 66 54 87 21 152 62 205 131 46 60 58 103 58 200 0 107 -9 157 -48 259 -115 303 -268 522 -423 604 -66 35 -77 37 -107 16z"/>
 </g>
<g id="layer14" fill="#fd9b3d" stroke="none">
 <path d="M2740 2841 c-19 -5 -26 -15 -31 -46 -9 -52 12 -85 53 -85 23 0 32 -6 43 -32 17 -41 13 -46 -14 -19 -26 26 -84 28 -129 5 -18 -8 -48 -35 -67 -58 l-35 -43 0 -115 c0 -75 4 -118 12 -126 16 -16 113 -16 126 1 5 6 12 56 14 110 4 110 17 134 63 123 35 -9 45 -41 45 -140 0 -50 5 -87 12 -94 7 -7 35 -12 63 -12 28 0 56 5 63 12 15 15 16 296 2 366 -23 104 -129 178 -220 153z"/>
 <path d="M1607 2784 c-9 -15 -12 -378 -4 -392 5 -7 13 -10 18 -6 5 3 16 1 23 -5 7 -6 34 -9 60 -7 32 2 60 -3 87 -16 22 -10 44 -16 49 -13 6 3 16 3 22 -1 25 -15 83 -3 110 24 40 37 68 118 59 167 -10 53 -23 76 -66 114 -30 26 -44 31 -89 31 -40 0 -62 -6 -90 -25 l-36 -24 0 69 c0 38 -4 71 -8 74 -16 10 -130 18 -135 10z m252 -233 c20 -13 21 -82 3 -103 -8 -10 -29 -18 -46 -18 -42 0 -78 52 -62 90 6 14 15 28 21 32 14 11 67 10 84 -1z"/>
 <path d="M3130 2683 c-33 -6 -68 -39 -91 -87 -15 -32 -19 -62 -19 -151 0 -73 4 -115 12 -123 7 -7 39 -12 73 -12 34 0 66 5 73 12 8 8 12 51 12 125 l0 114 28 -3 c26 -3 27 -1 30 48 2 33 -2 54 -10 61 -16 13 -75 22 -108 16z"/>
 <path d="M3405 2682 c-74 -26 -110 -94 -103 -197 4 -59 2 -64 -17 -67 -15 -2 -21 -12 -23 -41 -4 -44 11 -67 40 -64 16 1 29 -13 55 -61 33 -59 38 -63 67 -60 30 3 31 4 36 63 l5 60 34 0 c32 0 36 3 42 35 10 48 -4 70 -46 70 l-35 0 0 51 c0 61 13 89 43 89 32 0 47 18 47 57 0 23 -7 37 -22 47 -27 18 -95 28 -123 18z"/>
 <path d="M4023 2680 c-18 -4 -48 -19 -67 -34 -66 -50 -91 -107 -79 -180 8 -49 81 -131 125 -141 40 -8 117 -9 138 -1 8 3 27 10 41 15 15 5 43 30 64 55 33 41 37 52 38 103 0 68 -18 109 -65 145 -56 42 -123 55 -195 38z m105 -138 c17 -22 15 -72 -5 -94 -37 -42 -103 -9 -103 52 0 61 71 89 108 42z"/>
 <path d="M5331 2679 c-69 -27 -131 -112 -131 -179 0 -63 45 -136 102 -166 41 -21 130 -18 161 6 25 20 25 20 30 -1 5 -18 12 -20 79 -17 l73 3 0 175 0 175 -71 3 c-53 2 -74 -1 -83 -12 -11 -13 -17 -13 -49 4 -40 22 -73 24 -111 9z m141 -141 c15 -25 9 -77 -11 -88 -26 -14 -64 -13 -79 2 -16 16 -15 81 1 97 15 15 77 8 89 -11z"/>
 <path d="M6115 2674 c-73 -38 -120 -105 -116 -169 3 -62 18 -98 59 -137 62 -60 151 -69 203 -22 18 17 19 15 19 -55 0 -69 1 -72 28 -82 39 -16 119 -22 127 -9 3 6 6 115 6 243 l0 232 -77 3 c-68 3 -76 1 -81 -17 -5 -18 -6 -18 -40 5 -41 28 -85 31 -128 8z m150 -134 c13 -14 16 -28 11 -54 -6 -30 -12 -36 -42 -42 -47 -9 -78 18 -70 60 3 16 11 35 17 43 17 19 63 16 84 -7z"/>
 <path d="M2151 2655 c-57 -40 -85 -92 -86 -157 0 -48 4 -62 31 -95 34 -42 86 -81 121 -89 30 -8 89 20 109 51 19 29 34 24 34 -9 0 -35 19 -44 80 -37 l55 6 9 163 c10 195 10 194 -78 190 -51 -3 -62 -6 -72 -25 l-11 -23 -23 25 c-33 35 -120 35 -169 0z m186 -126 c17 -34 -2 -87 -34 -95 -36 -9 -78 27 -81 70 -2 30 2 38 20 46 41 16 82 8 95 -21z"/>
 <path d="M3622 2668 c-8 -8 -12 -51 -12 -126 0 -110 -1 -115 -25 -134 -14 -11 -25 -27 -25 -37 0 -20 43 -64 53 -54 4 3 7 -7 7 -23 0 -48 18 -99 44 -123 31 -29 97 -37 151 -19 39 13 40 14 40 58 l0 45 -50 0 c-49 0 -50 1 -50 30 0 29 1 30 41 27 46 -3 64 11 68 55 4 40 -10 53 -56 53 l-40 0 3 118 c2 64 0 123 -4 130 -11 16 -129 16 -145 0z"/>
 <path d="M4331 2667 c-8 -10 -11 -62 -9 -173 l3 -159 71 -3 c54 -2 74 1 84 12 11 14 15 13 37 -4 48 -38 81 -20 90 49 4 32 2 41 -15 50 -10 6 -22 8 -25 5 -2 -3 -21 2 -41 10 l-35 15 -3 103 -3 103 -71 3 c-52 2 -74 -1 -83 -11z"/>
 <path d="M4695 2665 c-3 -8 -8 -23 -11 -32 -4 -10 -7 -27 -9 -38 -3 -33 -36 -179 -43 -195 -5 -8 -8 -31 -7 -50 l0 -35 64 -3 c35 -2 68 1 72 5 5 5 15 44 24 87 8 44 17 81 19 83 6 6 28 -72 31 -110 4 -45 31 -67 86 -67 26 0 50 4 53 9 3 5 13 41 21 81 16 76 34 123 33 85 -1 -39 25 -140 40 -158 12 -13 27 -17 61 -15 46 3 46 3 44 38 -1 28 -23 153 -37 215 -2 6 -6 28 -11 50 -12 61 -18 65 -105 65 -50 0 -81 -4 -87 -12 -12 -15 -24 -64 -24 -95 1 -45 -17 -31 -23 19 -12 85 -15 88 -107 88 -62 0 -81 -3 -84 -15z"/>
 <path d="M5712 2668 c-8 -8 -12 -57 -12 -168 0 -182 4 -190 83 -190 37 0 49 5 66 26 l20 25 29 -21 c16 -12 40 -20 53 -18 20 2 25 11 32 53 7 41 5 51 -8 62 -9 6 -23 9 -30 7 -7 -3 -27 2 -44 10 l-30 16 -3 103 -3 102 -70 3 c-46 2 -74 -1 -83 -10z"/>
 <path d="M3090 2276 c-42 -15 -66 -56 -50 -85 5 -11 18 -20 28 -20 9 0 35 -2 57 -3 35 -3 41 0 53 26 14 27 13 30 -19 61 -32 31 -36 32 -69 21z"/>
 </g>
<g id="layer15" fill="#ffffff" stroke="none">
 <path d="M0 2000 l0 -2000 4000 0 4000 0 0 2000 0 2000 -4000 0 -4000 0 0 -2000z m2851 845 c24 -9 53 -25 65 -36 31 -29 67 -116 62 -151 -3 -16 -1 -31 4 -34 9 -6 11 -254 2 -278 -5 -13 -22 -16 -85 -16 l-79 0 0 96 c0 107 -9 134 -45 134 -36 0 -45 -27 -45 -134 l0 -96 -77 0 -78 0 1 128 c0 99 4 134 17 159 18 34 80 73 116 73 22 0 36 16 22 25 -5 3 -10 13 -9 23 0 9 -4 35 -8 56 -6 32 -4 41 11 52 25 18 72 18 126 -1z m-1121 -59 c31 -10 35 -15 38 -51 4 -64 7 -68 41 -50 17 8 45 15 63 15 48 0 119 -39 145 -80 51 -80 47 -79 72 -26 41 84 148 129 220 93 27 -14 35 -14 59 -1 32 16 105 19 133 4 18 -10 19 -23 19 -185 0 -96 -3 -175 -7 -176 -71 -6 -164 -2 -167 8 -4 9 -14 9 -41 -3 -70 -29 -172 0 -203 58 -10 17 -24 40 -33 51 -16 21 -17 21 -37 -18 -39 -77 -101 -109 -192 -98 -25 2 -89 5 -142 6 l-98 2 0 222 c0 122 3 229 6 238 7 18 52 15 124 -9z m1505 -100 c29 -12 35 -20 34 -43 -2 -52 -14 -77 -39 -83 -25 -6 -25 -8 -28 -118 l-3 -112 -79 0 -80 0 0 138 c0 152 6 174 59 209 39 26 87 29 136 9z m290 0 c29 -12 35 -20 35 -45 0 -51 -16 -79 -47 -83 -27 -3 -28 -5 -28 -63 0 -59 0 -60 30 -63 17 -2 34 -7 39 -12 5 -5 21 -3 37 6 31 16 29 0 33 222 1 22 8 37 20 44 19 11 121 6 133 -6 5 -4 10 -62 13 -129 l5 -122 38 -3 37 -3 0 -50 0 -49 -39 0 c-41 0 -67 -20 -58 -44 4 -10 23 -16 54 -18 l48 -3 3 -46 c3 -41 0 -47 -25 -58 -47 -21 -124 -25 -165 -8 -38 16 -44 28 -65 131 -10 46 -34 57 -99 47 l-39 -6 -3 -60 c-3 -65 -11 -75 -59 -75 -29 0 -35 5 -59 53 -32 63 -52 87 -73 87 -22 0 -22 85 1 102 11 9 17 36 21 94 3 44 12 94 20 111 30 57 119 79 192 49z m686 -17 c117 -66 118 -248 1 -316 -39 -23 -57 -27 -126 -27 -93 0 -130 15 -172 69 -21 28 -28 49 -30 95 -6 95 36 162 121 195 57 21 152 14 206 -16z m267 25 c21 -6 22 -11 22 -98 0 -60 5 -98 13 -110 15 -20 117 -50 129 -38 5 5 19 57 33 118 16 69 31 114 42 121 17 13 101 17 141 7 14 -4 25 -18 30 -38 10 -40 23 -39 41 1 8 17 23 34 35 37 38 10 132 6 148 -6 8 -7 20 -38 26 -68 6 -30 21 -99 32 -153 29 -144 32 -137 -44 -137 l-64 0 -6 44 c-4 24 -13 50 -21 56 -16 13 -14 17 -34 -57 l-12 -43 -69 0 -69 0 -6 45 c-4 24 -13 50 -21 56 -15 13 -17 10 -31 -56 l-9 -40 -87 -1 c-49 -1 -91 -5 -94 -8 -11 -10 -39 -7 -69 9 -19 10 -32 11 -40 4 -7 -5 -45 -9 -86 -7 l-73 3 -3 167 c-3 193 -1 198 76 198 26 0 57 -3 70 -6z m975 -9 c26 -13 31 -13 50 0 26 18 117 20 140 2 16 -11 17 -31 15 -187 l-3 -175 -74 -3 c-56 -2 -76 1 -85 12 -10 14 -16 14 -53 1 -144 -50 -261 67 -224 223 14 58 42 93 96 121 47 25 99 27 138 6z m408 5 c17 -9 19 -22 19 -104 0 -105 9 -122 74 -133 42 -7 73 11 55 33 -6 7 -7 19 -3 25 4 7 8 25 9 40 8 97 126 171 220 138 33 -12 44 -12 65 -2 27 14 119 17 135 5 6 -4 10 -99 10 -249 0 -194 -3 -244 -13 -248 -8 -3 -19 -2 -25 2 -14 9 -19 9 -73 11 l-41 2 5 53 c5 66 -10 84 -60 68 -18 -5 -49 -8 -68 -7 -19 2 -44 4 -54 5 -11 1 -39 22 -63 47 -45 49 -45 49 -61 -16 -8 -32 -11 -35 -43 -33 -19 2 -80 3 -136 2 l-103 0 0 175 c0 156 2 176 18 185 22 14 108 14 133 1z m-2697 -401 c35 -16 52 -61 36 -98 -35 -86 -185 -52 -165 38 12 58 72 85 129 60z m246 -389 c14 -34 21 -172 9 -191 -4 -7 -3 -19 2 -25 8 -10 18 -8 42 6 77 43 322 72 475 55 114 -13 131 -22 115 -58 -14 -30 -98 -102 -182 -156 -61 -39 -93 -55 -241 -123 -36 -16 -81 -38 -101 -49 -20 -10 -42 -19 -48 -19 -16 0 -102 -68 -134 -105 -15 -19 -30 -48 -34 -67 -3 -18 -10 -38 -15 -45 -5 -7 -5 -14 2 -18 5 -3 10 -12 10 -20 0 -15 13 -47 33 -81 45 -77 284 -199 414 -211 35 -3 66 -10 69 -14 7 -13 112 -11 119 1 4 6 21 10 38 9 35 -1 120 21 157 41 24 13 24 12 11 -6 -19 -25 -84 -83 -93 -84 -4 0 -23 -11 -43 -25 -46 -31 -198 -79 -224 -70 -11 3 -22 1 -26 -5 -8 -13 -282 -12 -291 1 -3 5 -20 7 -37 4 -33 -5 -248 45 -360 84 -86 30 -221 98 -242 121 -11 12 -19 36 -19 61 -1 39 2 44 48 73 27 17 69 50 92 72 39 37 44 46 44 85 0 47 -27 116 -53 137 -9 8 -23 35 -32 61 -14 45 -14 51 4 112 12 36 40 91 64 125 89 121 347 354 393 354 14 0 26 -10 34 -30z m1315 -20 c53 -26 78 -42 88 -57 4 -7 14 -13 22 -13 15 0 95 -90 143 -161 46 -69 134 -238 128 -248 -3 -5 1 -14 9 -21 8 -7 15 -18 15 -24 0 -6 7 -24 16 -41 20 -38 52 -153 66 -236 17 -104 -13 -216 -77 -283 -46 -48 -158 -109 -185 -101 -10 3 -21 1 -24 -4 -6 -9 -163 -8 -256 3 -61 6 -265 63 -293 80 -12 8 -42 20 -67 26 -24 7 -55 20 -68 31 -14 10 -33 19 -43 19 -25 0 -79 48 -79 70 0 12 11 22 33 29 36 11 301 10 313 -1 11 -12 92 -10 99 2 3 6 19 10 34 10 37 0 98 59 106 103 11 55 -40 149 -100 187 -13 8 -61 38 -107 67 -46 28 -102 68 -126 88 -46 40 -114 137 -118 170 -1 11 -3 20 -4 20 -2 0 -4 9 -5 20 -2 11 -10 45 -18 75 -20 70 -18 160 3 160 16 0 90 -69 90 -84 0 -11 260 -266 271 -266 3 0 14 -9 25 -21 25 -28 74 -53 84 -42 4 4 -8 55 -26 112 -19 58 -32 107 -29 109 3 3 0 11 -6 18 -5 7 -12 50 -14 96 -3 74 -1 85 17 106 26 27 32 27 83 2z m-681 -499 c17 -19 101 -63 234 -122 134 -60 173 -144 86 -185 -55 -26 -219 -14 -286 20 -58 30 -71 32 -89 9 -8 -9 -39 -27 -69 -41 -135 -62 -316 -13 -313 84 2 67 46 104 166 138 74 21 181 72 203 97 22 24 46 24 68 0z m-1074 -643 c52 -25 112 -51 132 -57 44 -14 55 -39 34 -79 -19 -36 -58 -55 -121 -57 -80 -3 -132 43 -101 90 26 40 20 75 -21 119 -21 21 -33 37 -28 34 6 -3 53 -25 105 -50z m1913 -110 c53 -27 91 -87 82 -127 -5 -23 -14 -29 -55 -40 -81 -21 -102 1 -105 117 l-2 62 29 0 c16 0 39 -5 51 -12z"/>
 <path d="M1790 2550 c-11 -11 -20 -29 -20 -40 0 -25 34 -60 59 -60 26 0 60 45 54 71 -5 17 -49 49 -68 49 -3 0 -14 -9 -25 -20z"/>
 <path d="M2254 2545 c-30 -30 -30 -37 0 -72 21 -24 27 -26 51 -18 41 15 53 39 35 72 -23 41 -56 48 -86 18z"/>
 <path d="M4057 2552 c-26 -29 -22 -78 8 -98 23 -15 27 -15 50 0 31 20 34 74 7 99 -24 22 -45 21 -65 -1z"/>
 <path d="M5401 2554 c-25 -18 -27 -51 -5 -82 18 -26 41 -28 72 -6 38 27 23 78 -29 97 -9 3 -26 -1 -38 -9z"/>
 <path d="M6180 2535 l-24 -25 29 -30 c35 -37 51 -37 86 -4 27 26 27 28 13 55 -19 39 -70 40 -104 4z"/>
 </g>

</svg>