<?xml version="1.0" standalone="yes"?>
<svg xmlns="http://www.w3.org/2000/svg" width="800" height="400">
<path style="fill:#fffefe; stroke:none;" d="M0 0L0 400L800 400L800 0L0 0z"/>
<path style="fill:#e1b794; stroke:none;" d="M495 50C496.51 50.25 497.435 50.1804 499 50C497.191 49.4258 496.931 49.5347 495 50z"/>
<path style="fill:#8fb23f; stroke:none;" d="M496.51 51.0278C492.403 53.9108 489.322 69.9255 494.318 72.9321C497.583 74.897 502.351 72.0587 504.999 70.1998C508.603 67.6696 513.938 62.9685 513.353 58.0046C512.634 51.9031 501.482 47.5376 496.51 51.0278z"/>
<path style="fill:#e1b794; stroke:none;" d="M505.667 50.3333C505.222 50.7777 506.278 50.7222 506.333 50.6667C506.778 50.2222 505.722 50.2778 505.667 50.3333M507.667 51.3333C507.222 51.7777 508.278 51.7223 508.333 51.6667C508.778 51.2222 507.722 51.2779 507.667 51.3333M494.333 52.6667C494.278 52.7223 494.222 53.7777 494.667 53.3333C494.722 53.2778 494.778 52.2221 494.333 52.6667M510 52L511 53L510 52M511 53L512 54L511 53M512 54L513 55L512 54M493.333 55.6667C493.278 55.7222 493.222 56.7778 493.667 56.3333C493.722 56.2778 493.778 55.2222 493.333 55.6667M513.333 55.6667C513.278 55.7224 513.222 56.7777 513.667 56.3333C513.722 56.2779 513.778 55.2222 513.333 55.6667M492 59L492 62C492.696 60.4463 492.696 60.5537 492 59M265.667 60.3333C265.222 60.7777 266.278 60.7222 266.333 60.6667C266.778 60.2222 265.722 60.2779 265.667 60.3333z"/>
<path style="fill:#799ec4; stroke:none;" d="M267 60C269.052 60.8742 270.747 60.9528 273 61C270.948 60.1258 269.253 60.0472 267 60z"/>
<path style="fill:#e1b794; stroke:none;" d="M273.667 60.3333C273.222 60.7777 274.278 60.7222 274.333 60.6667C274.778 60.2222 273.722 60.2779 273.667 60.3333M513 60L514 61L513 60M262 61L263 62L262 61z"/>
<path style="fill:#799ec4; stroke:none;" d="M263 61C261.682 61.7667 260.199 62.4584 259.064 63.5092C252.321 69.7546 259.387 75.5531 258 83C261.876 77.7968 256.216 74.3802 257.133 69.0154C257.723 65.5604 261.337 63.708 264 62L263 61z"/>
<path style="fill:#0352a1; stroke:none;" d="M254 90L272 82C269.773 80.7419 267.403 79.904 265 79C270.846 77.4309 277.344 81.3405 282.768 77.1104C287.887 73.1176 283.945 67.2859 279.956 64.3048C273.939 59.808 263.777 59.4274 258.438 65.3796C254.197 70.1067 259.231 74.011 259.335 79C259.421 83.1176 255.669 86.4876 254 90z"/>
<path style="fill:#799ec4; stroke:none;" d="M275 61L276 62L275 61z"/>
<path style="fill:#e1b794; stroke:none;" d="M276 61L277 62L276 61z"/>
<path style="fill:#799ec4; stroke:none;" d="M277.667 62.3333C277.222 62.7777 278.278 62.7223 278.333 62.6667C278.778 62.2222 277.722 62.2778 277.667 62.3333z"/>
<path style="fill:#e1b794; stroke:none;" d="M512.333 62.6667C512.278 62.7224 512.222 63.7778 512.667 63.3333C512.722 63.2779 512.778 62.2221 512.333 62.6667z"/>
<path style="fill:#799ec4; stroke:none;" d="M279 63L280 64L279 63z"/>
<path style="fill:#e1b794; stroke:none;" d="M491 63L491 71C492.161 68.2301 492.161 65.7699 491 63z"/>
<path style="fill:#799ec4; stroke:none;" d="M280 64C281.103 65.4566 281.543 65.8966 283 67C281.897 65.5433 281.457 65.1034 280 64z"/>
<path style="fill:#e1b794; stroke:none;" d="M281 64L282 65L281 64M511 64L512 65L511 64M282 65L283 66L282 65M510 65L511 66L510 65M283 66L284 67L283 66M509 66L510 67L509 66M508 67L509 68L508 67z"/>
<path style="fill:#799ec4; stroke:none;" d="M284 68L285 69L284 68z"/>
<path style="fill:#e1b794; stroke:none;" d="M507 68L508 69L507 68z"/>
<path style="fill:#799ec4; stroke:none;" d="M285 69C285.065 73.2257 284.183 75.2064 281 78C285.895 77.6806 287.183 72.8647 285 69z"/>
<path style="fill:#e1b794; stroke:none;" d="M506 69L507 70L506 69M504 70L505 71L504 70M255 71L256 72L255 71M286 71L287 72L286 71M332 71C333.769 71.7789 335.036 71.9124 337 72C335.231 71.2211 333.964 71.0876 332 71z"/>
<path style="fill:#799ec4; stroke:none;" d="M329 72C333.223 73.768 337.567 72.2335 342 72.0394C348.422 71.7581 354.623 72.8683 361 73C351.199 68.6 339.28 71.9149 329 72z"/>
<path style="fill:#e1b794; stroke:none;" d="M355 71C356.248 71.6848 356.548 71.7488 358 72C356.752 71.3152 356.452 71.2512 355 71M503 71L504 72L503 71M327.667 72.3333C327.222 72.7777 328.278 72.7222 328.333 72.6667C328.778 72.2222 327.722 72.2779 327.667 72.3333z"/>
<path style="fill:#0352a1; stroke:none;" d="M319 203L320 202C337.313 211.124 360.711 213.231 380 211.91C384.298 211.616 400.127 211.82 398.712 204.981C397.052 196.958 384.317 189.986 378 185.861C364.396 176.976 349.516 171.236 335 164.083C326.255 159.774 317.687 155.704 311.329 147.999C298.043 131.897 310.202 115.841 325 106.436C343.55 94.6465 366.059 88.8246 388 91.1736C395.948 92.0245 403.309 95.1783 411 97C401.911 84.1333 385.997 77.5959 371 74.8302C341.906 69.4649 310.988 73.0238 283 82.787C272.456 86.4652 261.597 90.36 252.001 96.1883C248.144 98.5306 243.243 103.006 243.492 107.996C243.724 112.653 248.56 115.123 252.001 117.319C258.301 121.341 266.699 126.016 268.402 134C270.432 143.513 260.691 151.036 257.664 159C252.687 172.093 261.655 185.243 269.449 195C278.351 206.144 288.816 215.845 300 224.661C303.619 227.514 308.151 232.899 312.995 233.422C317.373 233.895 319.163 229.495 319.981 226C321.726 218.545 321.215 210.289 319 203z"/>
<path style="fill:#e1b794; stroke:none;" d="M361.667 72.3333C361.222 72.7777 362.278 72.7223 362.333 72.6667C362.778 72.2222 361.722 72.2778 361.667 72.3333M492 72L493 73L492 72M501 72L502 73L501 72M256 73L257 74L256 73M317.667 73.3333C317.222 73.7777 318.278 73.7222 318.333 73.6667C318.778 73.2222 317.722 73.2779 317.667 73.3333z"/>
<path style="fill:#799ec4; stroke:none;" d="M309 75C313.537 76.3956 319.311 74.5926 324 74C319.55 72.2632 313.62 74.1392 309 75M366 73C369.231 75.2103 373.186 75.2894 377 76C373.777 73.7853 369.847 73.4887 366 73z"/>
<path style="fill:#e1b794; stroke:none;" d="M369 73L370 74L369 73M493 73L494 74L493 73M498.667 73.3333C498.222 73.7777 499.278 73.7223 499.333 73.6667C499.778 73.2222 498.722 73.2779 498.667 73.3333M286 74L287 75L286 74M311 74L312 75L311 74M375 74L376 75L375 74M495 74L496 75L495 74M308 75L309 76L308 75M377 75L378 76L377 75M285 76L286 77L285 76M302 76L303 77L302 76z"/>
<path style="fill:#799ec4; stroke:none;" d="M303 76C304.248 76.6848 304.548 76.7488 306 77C304.752 76.3152 304.452 76.2512 303 76M379 76C380.75 77.2549 381.857 77.6137 384 78C382.307 76.9377 380.96 76.4804 379 76z"/>
<path style="fill:#e1b794; stroke:none;" d="M381 76L382 77L381 76M258 77L259 78L258 77z"/>
<path style="fill:#799ec4; stroke:none;" d="M265 78C267.403 80.2834 269.83 81.0713 273 82C274.943 80.901 276.801 80.508 279 80C275.447 78.6093 271.712 79.5475 268 80C269.534 78.9774 269.402 79.1953 270 78C267.968 77.6767 267.018 77.6599 265 78z"/>
<path style="fill:#e1b794; stroke:none;" d="M284 77L285 78L284 77M297.667 77.3333C297.222 77.7777 298.278 77.7222 298.333 77.6667C298.778 77.2223 297.722 77.2778 297.667 77.3333z"/>
<path style="fill:#799ec4; stroke:none;" d="M299 77C300.506 77.683 301.315 77.8259 303 78C301.494 77.3169 300.685 77.1741 299 77z"/>
<path style="fill:#e1b794; stroke:none;" d="M384 77L385 78L384 77M492 77C494.332 77.9845 496.457 77.9813 499 78C496.668 77.0155 494.543 77.0187 492 77z"/>
<path style="fill:#fffefe; stroke:none;" d="M266 78L267 79L266 78z"/>
<path style="fill:#e1b794; stroke:none;" d="M267 78L268 79L267 78M282 78L283 79L282 78M295 78L296 79L295 78z"/>
<path style="fill:#799ec4; stroke:none;" d="M296.667 78.3333C296.222 78.7778 297.278 78.7222 297.333 78.6667C297.778 78.2223 296.722 78.2778 296.667 78.3333M385 78L386 79L385 78z"/>
<path style="fill:#e1b794; stroke:none;" d="M386 78L387 79L386 78M484 78C485.769 78.779 487.036 78.9124 489 79C487.231 78.2211 485.964 78.0876 484 78z"/>
<path style="fill:#8fb23f; stroke:none;" d="M481 172C476.938 186.882 471.429 200.559 469.579 216C468.724 223.144 470.864 232.017 480 229.245C499.833 223.23 513.059 202.062 522.309 185C525.001 180.033 527.684 175.168 529.989 170C540.119 147.29 554.016 110.869 531.826 90.4645C528.646 87.5397 524.902 85.2895 521 83.4753C515.271 80.8116 509.217 79.4722 503 78.5795C495.243 77.4658 486.722 78.0721 479 79.3248C469.704 80.833 459.975 82.9677 451 85.8364C444.591 87.885 438.242 90.0831 432 92.6042C428.31 94.0946 424.616 95.6469 421 97.3087C417.447 98.941 405.166 103.931 408.137 109.585C410.427 113.945 420.785 113.622 425 113.91C438.492 114.834 452.835 109.515 466 113.299C473.041 115.322 479.981 120.013 480.744 128C481.762 138.654 469.499 147.559 462 152.856C445.208 164.716 427.871 173.538 422.269 195C420.521 201.698 418.551 209.085 418.091 216C417.948 218.156 417.579 222.612 420.228 223.542C422.031 224.175 423.782 222.417 424.985 221.35C428.908 217.872 432.299 213.714 436.001 210C444.652 201.321 453.283 192.617 462 184.004C467.341 178.727 473.244 172.842 481 172z"/>
<path style="fill:#e1b794; stroke:none;" d="M502 78C503.248 78.6848 503.548 78.7488 505 79C503.752 78.3152 503.452 78.2512 502 78M268 79L269 80L268 79z"/>
<path style="fill:#fffefe; stroke:none;" d="M269.667 79.3333C269.222 79.7777 270.278 79.7222 270.333 79.6667C270.778 79.2222 269.722 79.2779 269.667 79.3333z"/>
<path style="fill:#e1b794; stroke:none;" d="M271 79L272 80L271 79M279 79L280 80L279 79M290 79L291 80L290 79z"/>
<path style="fill:#799ec4; stroke:none;" d="M288 80C290.239 80.8108 291.647 80.5288 294 80C291.836 79.3243 290.268 79.6129 288 80M387 79C388.458 80.0811 389.248 80.4361 391 81C389.542 79.9189 388.752 79.564 387 79z"/>
<path style="fill:#e1b794; stroke:none;" d="M389 79L390 80L389 79M476.667 79.3333C476.222 79.7777 477.278 79.7223 477.333 79.6667C477.778 79.2222 476.722 79.2778 476.667 79.3333M509 79C510.248 79.6848 510.548 79.7488 512 80C510.752 79.3152 510.452 79.2512 509 79M273.667 80.3333C273.222 80.7778 274.278 80.7222 274.333 80.6667C274.778 80.2222 273.722 80.2779 273.667 80.3333M277 80L278 81L277 80M286.667 80.3333C286.222 80.7778 287.278 80.7222 287.333 80.6667C287.778 80.2222 286.722 80.2778 286.667 80.3333M391 80L392 81L391 80M471 80C472.506 80.683 473.315 80.8259 475 81C473.494 80.317 472.685 80.1741 471 80M512 80C513.248 80.6848 513.548 80.7488 515 81C513.752 80.3152 513.452 80.2512 512 80M258 81L259 82L258 81z"/>
<path style="fill:#799ec4; stroke:none;" d="M285.667 81.3333C285.222 81.7777 286.278 81.7222 286.333 81.6667C286.778 81.2222 285.722 81.2778 285.667 81.3333M392 81L393 82L392 81z"/>
<path style="fill:#e1b794; stroke:none;" d="M467.667 81.3333C467.222 81.7778 468.278 81.7222 468.333 81.6667C468.778 81.2222 467.722 81.2778 467.667 81.3333M516 81L517 82L516 81z"/>
<path style="fill:#799ec4; stroke:none;" d="M270 82L266 84C268.025 84.207 269.067 83.7934 271 83L270 82z"/>
<path style="fill:#e1b794; stroke:none;" d="M271 82L272 83L271 82M281 82L282 83L281 82z"/>
<path style="fill:#799ec4; stroke:none;" d="M282.667 82.3333C282.222 82.7777 283.278 82.7222 283.333 82.6667C283.778 82.2222 282.722 82.2778 282.667 82.3333M393.667 82.3333C393.222 82.7777 394.278 82.7222 394.333 82.6667C394.778 82.2222 393.722 82.2778 393.667 82.3333z"/>
<path style="fill:#e1b794; stroke:none;" d="M461 82C462.248 82.6849 462.548 82.7487 464 83C462.752 82.3152 462.452 82.2512 461 82M519 82L520 83L519 82M270 83L271 84L270 83M277.667 83.3333C277.222 83.7777 278.278 83.7222 278.333 83.6667C278.778 83.2222 277.722 83.2779 277.667 83.3333z"/>
<path style="fill:#799ec4; stroke:none;" d="M279 83C280.248 83.6848 280.548 83.7488 282 84C280.752 83.3152 280.452 83.2512 279 83M395 83L396 84L395 83z"/>
<path style="fill:#e1b794; stroke:none;" d="M396 83L397 84L396 83M458 83C459.248 83.6848 459.548 83.7488 461 84C459.752 83.3152 459.452 83.2512 458 83M520.667 83.3333C520.222 83.7776 521.278 83.7223 521.333 83.6667C521.778 83.2221 520.722 83.2779 520.667 83.3333z"/>
<path style="fill:#799ec4; stroke:none;" d="M257 84L258 85L257 84z"/>
<path style="fill:#e1b794; stroke:none;" d="M267 84L268 85L267 84z"/>
<path style="fill:#799ec4; stroke:none;" d="M276.667 84.3333C276.222 84.7777 277.278 84.7222 277.333 84.6667C277.778 84.2222 276.722 84.2778 276.667 84.3333M397 84L398 85L397 84z"/>
<path style="fill:#e1b794; stroke:none;" d="M454.667 84.3333C454.222 84.7777 455.278 84.7222 455.333 84.6667C455.778 84.2222 454.722 84.2779 454.667 84.3333M523 84L524 85L523 84z"/>
<path style="fill:#799ec4; stroke:none;" d="M256.333 85.6667C256.278 85.7222 256.222 86.7778 256.667 86.3333C256.722 86.2778 256.778 85.2222 256.333 85.6667M261 86C262.659 86.4065 263.242 86.3086 265 86C263.341 85.5935 262.758 85.6914 261 86z"/>
<path style="fill:#e1b794; stroke:none;" d="M265 85L266 86L265 85z"/>
<path style="fill:#799ec4; stroke:none;" d="M273 85C274.248 85.6848 274.548 85.7488 276 86C274.752 85.3152 274.452 85.2512 273 85M399 85L400 86L399 85z"/>
<path style="fill:#e1b794; stroke:none;" d="M450.667 85.3333C450.222 85.7777 451.278 85.7222 451.333 85.6667C451.778 85.2222 450.722 85.2778 450.667 85.3333M525 85L526 86L525 85M255 86L256 87L255 86M263 86L264 87L263 86M270 86L271 87L270 86z"/>
<path style="fill:#799ec4; stroke:none;" d="M271.667 86.3333C271.222 86.7777 272.278 86.7222 272.333 86.6667C272.778 86.2222 271.722 86.2778 271.667 86.3333M400 86C401.45 87.6076 402.051 88.0643 404 89C402.659 87.7259 401.597 86.9593 400 86z"/>
<path style="fill:#e1b794; stroke:none;" d="M401 86L402 87L401 86M448.667 86.3333C448.222 86.7777 449.278 86.7222 449.333 86.6667C449.778 86.2223 448.722 86.2778 448.667 86.3333M526 86L527 87L526 86M254 87L255 88L254 87z"/>
<path style="fill:#799ec4; stroke:none;" d="M260 87L261 88L260 87z"/>
<path style="fill:#e1b794; stroke:none;" d="M268 87L269 88L268 87z"/>
<path style="fill:#799ec4; stroke:none;" d="M269 87L270 88L269 87z"/>
<path style="fill:#e1b794; stroke:none;" d="M402 87L403 88L402 87M445 87L446 88L445 87M528 87L529 88L528 87z"/>
<path style="fill:#799ec4; stroke:none;" d="M253 88C251.336 89.6572 250.125 90.971 249 93L255 91C254.309 89.6115 254.016 89.1394 253 88M257 88L258 89L257 88z"/>
<path style="fill:#e1b794; stroke:none;" d="M258.667 88.3333C258.222 88.7777 259.278 88.7223 259.333 88.6667C259.778 88.2222 258.722 88.2778 258.667 88.3333M265 88L266 89L265 88z"/>
<path style="fill:#799ec4; stroke:none;" d="M266.667 88.3333C266.222 88.7777 267.278 88.7223 267.333 88.6667C267.778 88.2222 266.722 88.2778 266.667 88.3333z"/>
<path style="fill:#e1b794; stroke:none;" d="M441.667 88.3333C441.222 88.7777 442.278 88.7223 442.333 88.6667C442.778 88.2222 441.722 88.2779 441.667 88.3333M529 88L530 89L529 88M251 89L252 90L251 89z"/>
<path style="fill:#799ec4; stroke:none;" d="M255.667 89.3333C255.222 89.7777 256.278 89.7222 256.333 89.6667C256.778 89.2221 255.722 89.2779 255.667 89.3333z"/>
<path style="fill:#e1b794; stroke:none;" d="M263 89L264 90L263 89z"/>
<path style="fill:#799ec4; stroke:none;" d="M264.667 89.3333C264.222 89.7777 265.278 89.7223 265.333 89.6667C265.778 89.2223 264.722 89.2778 264.667 89.3333M404 89L405 90L404 89z"/>
<path style="fill:#e1b794; stroke:none;" d="M439.667 89.3333C439.222 89.7777 440.278 89.7222 440.333 89.6667C440.778 89.2222 439.722 89.2778 439.667 89.3333M530 89L531 90L530 89M250 90L251 91L250 90z"/>
<path style="fill:#0352a1; stroke:none;" d="M252 90L253 91L252 90z"/>
<path style="fill:#799ec4; stroke:none;" d="M262.667 90.3333C262.222 90.7777 263.278 90.7222 263.333 90.6667C263.778 90.2223 262.722 90.2778 262.667 90.3333M405 90L406 91L405 90z"/>
<path style="fill:#e1b794; stroke:none;" d="M436.667 90.3333C436.222 90.7777 437.278 90.7222 437.333 90.6667C437.778 90.2223 436.722 90.2778 436.667 90.3333M253 91L254 92L253 91M259 91L260 92L259 91z"/>
<path style="fill:#799ec4; stroke:none;" d="M260.667 91.3333C260.222 91.7777 261.278 91.7222 261.333 91.6667C261.778 91.2223 260.722 91.2778 260.667 91.3333M359 92C362.803 93.551 366.969 92.1731 371 92C367.135 90.3935 363.07 91.6788 359 92z"/>
<path style="fill:#e1b794; stroke:none;" d="M371 91C374.959 92.6611 379.737 92 384 92C380.041 90.3389 375.263 91 371 91z"/>
<path style="fill:#799ec4; stroke:none;" d="M384 91C387.412 92.5317 391.27 92.8398 395 93C391.523 91.1516 387.891 91.0322 384 91M406 91C406.545 92.6352 406.365 92.4549 408 93C407.455 91.3649 407.635 91.5451 406 91z"/>
<path style="fill:#e1b794; stroke:none;" d="M407 91L408 92L407 91M433.667 91.3333C433.222 91.7777 434.278 91.7223 434.333 91.6667C434.778 91.2222 433.722 91.2778 433.667 91.3333M257 92L258 93L257 92z"/>
<path style="fill:#799ec4; stroke:none;" d="M258.667 92.3333C258.222 92.7777 259.278 92.7223 259.333 92.6667C259.778 92.2223 258.722 92.2778 258.667 92.3333z"/>
<path style="fill:#e1b794; stroke:none;" d="M365 92L366 93L365 92M388.667 92.3333C388.222 92.7777 389.278 92.7223 389.333 92.6667C389.778 92.2222 388.722 92.2778 388.667 92.3333M432 92L433 93L432 92z"/>
<path style="fill:#799ec4; stroke:none;" d="M256 93L257 94L256 93M355.667 93.3333C355.222 93.7777 356.278 93.7223 356.333 93.6667C356.778 93.2222 355.722 93.2778 355.667 93.3333z"/>
<path style="fill:#e1b794; stroke:none;" d="M357 93L358 94L357 93M396 93L397 94L396 93z"/>
<path style="fill:#799ec4; stroke:none;" d="M397 93C398.248 93.6848 398.548 93.7488 400 94C398.752 93.3152 398.452 93.2512 397 93M408 93L409 94L408 93z"/>
<path style="fill:#e1b794; stroke:none;" d="M429 93L430 94L429 93M534 93L535 94L534 93M253 94L254 95L253 94z"/>
<path style="fill:#799ec4; stroke:none;" d="M254.667 94.3333C254.222 94.7779 255.278 94.7222 255.333 94.6667C255.778 94.2224 254.722 94.2777 254.667 94.3333M348 95C350.163 95.6756 351.732 95.387 354 95C351.761 94.1892 350.353 94.4712 348 95z"/>
<path style="fill:#e1b794; stroke:none;" d="M354.667 94.3333C354.222 94.7777 355.278 94.7222 355.333 94.6667C355.778 94.2222 354.722 94.2779 354.667 94.3333M399.667 94.3333C399.222 94.7777 400.278 94.7223 400.333 94.6667C400.778 94.2222 399.722 94.2779 399.667 94.3333z"/>
<path style="fill:#799ec4; stroke:none;" d="M401 94C402.693 95.0623 404.04 95.5196 406 96C404.249 94.7451 403.143 94.3863 401 94M409 94C409.545 95.6352 409.365 95.455 411 96C410.455 94.3649 410.635 94.5451 409 94z"/>
<path style="fill:#e1b794; stroke:none;" d="M410 94L411 95L410 94M426.667 94.3333C426.222 94.7777 427.278 94.7223 427.333 94.6667C427.778 94.2222 426.722 94.2779 426.667 94.3333M535 94L536 95L535 94z"/>
<path style="fill:#799ec4; stroke:none;" d="M252.667 95.3333C252.222 95.7779 253.278 95.7221 253.333 95.6667C253.778 95.2224 252.722 95.2777 252.667 95.3333z"/>
<path style="fill:#e1b794; stroke:none;" d="M351 95L352 96L351 95M403 95L404 96L403 95M425 95L426 96L425 95M536 95L537 96L536 95z"/>
<path style="fill:#799ec4; stroke:none;" d="M250 96L251 97L250 96M345.667 96.3333C345.222 96.7777 346.278 96.7223 346.333 96.6667C346.778 96.2222 345.722 96.2779 345.667 96.3333M407 96C409.103 97.418 410.212 97.9014 412 96L407 96z"/>
<path style="fill:#e1b794; stroke:none;" d="M422 96L423 97L422 96M248 97L244 102C246.089 100.444 247.403 99.5116 248 97z"/>
<path style="fill:#799ec4; stroke:none;" d="M249 97L250 98L249 97M342.667 97.3333C342.222 97.7777 343.278 97.7222 343.333 97.6667C343.778 97.2222 342.722 97.2778 342.667 97.3333z"/>
<path style="fill:#e1b794; stroke:none;" d="M344.667 97.3333C344.222 97.7777 345.278 97.7222 345.333 97.6667C345.778 97.2222 344.722 97.2778 344.667 97.3333M408 97L409 98L408 97M412 97L411 99L413 99C413 97.1467 413.3 97.6498 412 97M420 97L421 98L420 97M537 97L538 98L537 97z"/>
<path style="fill:#799ec4; stroke:none;" d="M248 98L249 99L248 98M340.667 98.3333C340.222 98.7777 341.278 98.7222 341.333 98.6667C341.778 98.2222 340.722 98.2778 340.667 98.3333z"/>
<path style="fill:#e1b794; stroke:none;" d="M418 98L419 99L418 98M538.333 98.6667C538.278 98.7224 538.222 99.7777 538.667 99.3333C538.722 99.278 538.778 98.2221 538.333 98.6667z"/>
<path style="fill:#799ec4; stroke:none;" d="M247 99L248 100L247 99M335 100C336.659 100.406 337.242 100.309 339 100C337.341 99.5935 336.758 99.6914 335 100z"/>
<path style="fill:#e1b794; stroke:none;" d="M416 99L417 100L416 99z"/>
<path style="fill:#799ec4; stroke:none;" d="M246 100L247 101L246 100z"/>
<path style="fill:#e1b794; stroke:none;" d="M337 100L338 101L337 100M414 100L415 101L414 100M539 100L540 101L539 100z"/>
<path style="fill:#799ec4; stroke:none;" d="M245 101L246 102L245 101M334 101L335 102L334 101M244.333 102.667C244.278 102.722 244.222 103.778 244.667 103.333C244.722 103.278 244.778 102.222 244.333 102.667M331 102L329 103C330.453 103.555 331.076 103.604 331 102z"/>
<path style="fill:#e1b794; stroke:none;" d="M332 102L333 103L332 102M411 102L412 103L411 102M540.333 102.667C540.278 102.722 540.222 103.778 540.667 103.333C540.722 103.278 540.778 102.222 540.333 102.667M331 103L332 104L331 103M410 103L411 104L410 103z"/>
<path style="fill:#799ec4; stroke:none;" d="M243.333 104.667C243.278 104.722 243.222 105.778 243.667 105.333C243.722 105.278 243.778 104.222 243.333 104.667M328 104L329 105L328 104z"/>
<path style="fill:#e1b794; stroke:none;" d="M541 104L541 107C541.696 105.446 541.696 105.554 541 104z"/>
<path style="fill:#799ec4; stroke:none;" d="M326 105L327 106L326 105M324.667 106.333C324.222 106.778 325.278 106.722 325.333 106.667C325.778 106.222 324.722 106.278 324.667 106.333z"/>
<path style="fill:#e1b794; stroke:none;" d="M407 106L408 107L407 106z"/>
<path style="fill:#799ec4; stroke:none;" d="M323 107L324 108L323 107z"/>
<path style="fill:#e1b794; stroke:none;" d="M406.333 107.667C406.278 107.722 406.222 108.778 406.667 108.333C406.722 108.278 406.778 107.222 406.333 107.667M242 108L243 109L242 108z"/>
<path style="fill:#799ec4; stroke:none;" d="M321 108L320 110C321.263 109.029 321.392 109.306 321 108z"/>
<path style="fill:#e1b794; stroke:none;" d="M322 108L323 109L322 108M542.333 108.667C542.278 108.722 542.222 109.778 542.667 109.333C542.722 109.278 542.778 108.222 542.333 108.667M321 109L322 110L321 109z"/>
<path style="fill:#799ec4; stroke:none;" d="M243 110L244 113C244.401 111.234 244.289 111.443 243 110M319 110L320 111L319 110z"/>
<path style="fill:#e1b794; stroke:none;" d="M407 110L408 111L407 110M243 111L244 112L243 111z"/>
<path style="fill:#799ec4; stroke:none;" d="M317 111L316 113C317.263 112.029 317.392 112.306 317 111z"/>
<path style="fill:#e1b794; stroke:none;" d="M318 111L319 112L318 111M409 111L410 112L409 111M317 112L318 113L317 112M411.667 112.333C411.222 112.778 412.278 112.722 412.333 112.667C412.778 112.222 411.722 112.278 411.667 112.333M450 112C454.217 113.769 459.459 113 464 113C459.783 111.231 454.541 112 450 112M245 113L246 114L245 113z"/>
<path style="fill:#799ec4; stroke:none;" d="M315 113L316 114L315 113z"/>
<path style="fill:#e1b794; stroke:none;" d="M418 113C419.506 113.683 420.315 113.826 422 114C420.494 113.317 419.685 113.174 418 113M438 113C440.613 114.098 443.165 113.993 446 114C443.387 112.902 440.836 113.007 438 113M466 113L467 114L466 113M246 114C246.545 115.635 246.365 115.455 248 116C247.455 114.365 247.635 114.545 246 114z"/>
<path style="fill:#799ec4; stroke:none;" d="M247 114L248 115L247 114M314 114L313 116C314.263 115.029 314.392 115.306 314 114z"/>
<path style="fill:#e1b794; stroke:none;" d="M469.667 114.333C469.222 114.778 470.278 114.722 470.333 114.667C470.778 114.222 469.722 114.278 469.667 114.333M543 114L543 129C544.74 124.852 544.74 118.148 543 114z"/>
<path style="fill:#799ec4; stroke:none;" d="M248 115C249.139 116.015 249.612 116.309 251 117C249.777 115.805 249.58 115.684 248 115z"/>
<path style="fill:#e1b794; stroke:none;" d="M314 115L315 116L314 115M471.667 115.333C471.222 115.778 472.278 115.722 472.333 115.667C472.778 115.222 471.722 115.278 471.667 115.333M249 116L250 117L249 116z"/>
<path style="fill:#799ec4; stroke:none;" d="M312 116L313 117L312 116z"/>
<path style="fill:#e1b794; stroke:none;" d="M473 116L474 117L473 116z"/>
<path style="fill:#799ec4; stroke:none;" d="M251 117C252.139 118.015 252.612 118.309 254 119C252.777 117.805 252.58 117.684 251 117M311 117L312 118L311 117z"/>
<path style="fill:#e1b794; stroke:none;" d="M475 117L476 118L475 117M252 118L253 119L252 118M311 118L312 119L311 118M476 118L477 119L476 118z"/>
<path style="fill:#799ec4; stroke:none;" d="M255 119L256 120L255 119z"/>
<path style="fill:#e1b794; stroke:none;" d="M310 119L311 120L310 119M477 119L478 120L477 119M256 120C256.545 121.635 256.365 121.455 258 122C257.455 120.365 257.635 120.545 256 120z"/>
<path style="fill:#799ec4; stroke:none;" d="M257 120L258 121L257 120M309 120C308.11 121.745 307.547 123.125 307 125C308.409 123.242 309.036 122.238 309 120M258 121L259 122L258 121z"/>
<path style="fill:#e1b794; stroke:none;" d="M309 121L310 122L309 121M478 121L479 122L478 121M259 122L260 123L259 122M360 122C363.432 123.44 367.3 123 371 123C367.568 121.56 363.7 122 360 122M260 123L261 124L260 123z"/>
<path style="fill:#799ec4; stroke:none;" d="M261 123L262 124L261 123z"/>
<path style="fill:#e1b794; stroke:none;" d="M308 123L309 124L308 123M350 125C352.421 125.232 354.605 124.536 357 124C354.328 123.201 352.568 123.922 350 125z"/>
<path style="fill:#fc9e43; stroke:none;" d="M357 123L358 124L357 123z"/>
<path style="fill:#b25f5c; stroke:none;" d="M358 123C363.4 125.266 371.091 124.253 377 125C371.595 121.762 364.109 123 358 123z"/>
<path style="fill:#fc9e43; stroke:none;" d="M374 123L375 124L374 123z"/>
<path style="fill:#e1b794; stroke:none;" d="M375 123C377.52 124.585 380.1 125.328 383 126C380.484 124.126 378.097 123.465 375 123M479 123L480 124L479 123z"/>
<path style="fill:#799ec4; stroke:none;" d="M262 124L263 125L262 124z"/>
<path style="fill:#b25f5c; stroke:none;" d="M354 124C355.248 124.685 355.548 124.749 357 125C355.752 124.315 355.452 124.251 354 124z"/>
<path style="fill:#bd2222; stroke:none;" d="M393 166C401.148 160.333 408.777 155.209 418 151.291C424.861 148.376 433.597 145.865 438.427 139.826C445.857 130.539 434 125.105 426 125.079C419.853 125.06 411.671 126.734 406 129.069C402.566 130.483 397.856 134.459 394.039 134.089C390.432 133.739 387.172 129.145 383.996 127.468C378.425 124.528 372.188 124.008 366 124C358.634 123.991 345.335 124.854 345.214 135C345.133 141.765 351.257 146.168 357 148.179C369.565 152.579 383.818 155.58 393 166z"/>
<path style="fill:#fc9e43; stroke:none;" d="M377 124L378 125L377 124z"/>
<path style="fill:#e1b794; stroke:none;" d="M418 124C422.471 125.876 428.183 125 433 125C428.529 123.124 422.817 124 418 124z"/>
<path style="fill:#799ec4; stroke:none;" d="M263 125L264 126L263 125z"/>
<path style="fill:#b25f5c; stroke:none;" d="M350 127C351.58 126.316 351.777 126.195 353 125C351.42 125.684 351.223 125.805 350 127M380 125L381 126L380 125z"/>
<path style="fill:#e1b794; stroke:none;" d="M414 125C415.248 125.685 415.548 125.749 417 126C415.752 125.315 415.452 125.251 414 125z"/>
<path style="fill:#fc9e43; stroke:none;" d="M417 125L418 126L417 125z"/>
<path style="fill:#b25f5c; stroke:none;" d="M418 125C419.506 125.683 420.315 125.826 422 126C420.494 125.317 419.685 125.174 418 125M430 125C432.013 126.225 433.658 126.645 436 127C433.987 125.775 432.341 125.355 430 125z"/>
<path style="fill:#fc9e43; stroke:none;" d="M433 125L434 126L433 125z"/>
<path style="fill:#e1b794; stroke:none;" d="M434 125L435 126L434 125M480 125L480 133C481.161 130.23 481.161 127.77 480 125z"/>
<path style="fill:#799ec4; stroke:none;" d="M264 126L265 127L264 126M306 126C304.855 130.81 304.855 135.19 306 140C306.901 136.248 306.901 129.752 306 126z"/>
<path style="fill:#e1b794; stroke:none;" d="M348 126C346.362 127.89 344.773 129.614 343.889 132.005C337.058 150.482 365.953 153.964 377 158.862C381.63 160.915 389.058 168.322 394 167.829C397.511 167.478 401.049 163.774 404 162.015C409.734 158.6 415.815 155.876 422 153.4C430.203 150.115 451.767 139.913 440 129C445.064 143.64 429.015 149.102 418 153.603C412.543 155.834 407.048 158.407 402 161.464C399.564 162.939 396.964 165.463 394 165.704C389.618 166.06 384.752 161.152 381 159.27C370.979 154.244 348.907 152.697 346 140L344 140L348 126z"/>
<path style="fill:#fc9e43; stroke:none;" d="M349 126L350 127L349 126z"/>
<path style="fill:#b25f5c; stroke:none;" d="M381.667 126.333C381.222 126.778 382.278 126.722 382.333 126.667C382.778 126.222 381.722 126.278 381.667 126.333z"/>
<path style="fill:#fc9e43; stroke:none;" d="M383 126L384 127L383 126z"/>
<path style="fill:#e1b794; stroke:none;" d="M384 126C385.842 128.08 387.65 129.509 390 131C388.17 128.652 386.637 127.383 384 126M404 128C406.533 128.537 408.512 127.78 411 127C408.467 126.463 406.488 127.22 404 128z"/>
<path style="fill:#fc9e43; stroke:none;" d="M411 126L412 127L411 126z"/>
<path style="fill:#b25f5c; stroke:none;" d="M412 126C414.052 126.874 415.747 126.953 418 127C415.948 126.126 414.253 126.047 412 126z"/>
<path style="fill:#fc9e43; stroke:none;" d="M436 126L437 127L436 126z"/>
<path style="fill:#e1b794; stroke:none;" d="M437 126C437.545 127.635 437.365 127.455 439 128C438.455 126.365 438.635 126.545 437 126z"/>
<path style="fill:#799ec4; stroke:none;" d="M265 127L266 128L265 127z"/>
<path style="fill:#b25f5c; stroke:none;" d="M348 127L349 128L348 127M384 127L385 128L384 127z"/>
<path style="fill:#fc9e43; stroke:none;" d="M409 127L410 128L409 127z"/>
<path style="fill:#b25f5c; stroke:none;" d="M410 127L411 128L410 127M437 127L438 128L437 127z"/>
<path style="fill:#e1b794; stroke:none;" d="M265 128L266 129L265 128M306.333 128.667C306.278 128.722 306.222 129.778 306.667 129.333C306.722 129.278 306.778 128.222 306.333 128.667z"/>
<path style="fill:#b25f5c; stroke:none;" d="M347 128L348 129L347 128M386 128L387 129L386 128M406 128L407 129L406 128z"/>
<path style="fill:#fc9e43; stroke:none;" d="M439 128L440 129L439 128z"/>
<path style="fill:#799ec4; stroke:none;" d="M266 129L267 130L266 129z"/>
<path style="fill:#b25f5c; stroke:none;" d="M346 129L347 130L346 129M387 129L388 130L387 129z"/>
<path style="fill:#e1b794; stroke:none;" d="M400 131L403 130C401.234 129.599 401.443 129.711 400 131z"/>
<path style="fill:#fc9e43; stroke:none;" d="M403 129L404 130L403 129z"/>
<path style="fill:#b25f5c; stroke:none;" d="M404.667 129.333C404.222 129.778 405.278 129.722 405.333 129.667C405.778 129.222 404.722 129.278 404.667 129.333M439 129L440 130L439 129z"/>
<path style="fill:#799ec4; stroke:none;" d="M267 130C267.289 134.09 267.289 137.91 267 142C269.339 138.095 269.339 133.905 267 130z"/>
<path style="fill:#b25f5c; stroke:none;" d="M345.333 130.667C345.278 130.722 345.222 131.778 345.667 131.333C345.722 131.278 345.778 130.222 345.333 130.667M388 130L389 131L388 130z"/>
<path style="fill:#fc9e43; stroke:none;" d="M401 130L402 131L401 130z"/>
<path style="fill:#b25f5c; stroke:none;" d="M402 130L403 131L402 130M440 130L441 131L440 130M390 131C391.541 134.06 392.566 135.069 396 135C393.854 133.802 391.93 132.527 390 131z"/>
<path style="fill:#e1b794; stroke:none;" d="M398 131L399 132L398 131z"/>
<path style="fill:#fc9e43; stroke:none;" d="M399 131L400 132L399 131z"/>
<path style="fill:#b25f5c; stroke:none;" d="M400 131L401 132L400 131z"/>
<path style="fill:#e1b794; stroke:none;" d="M391 132C391.545 133.635 391.365 133.455 393 134L393 132L391 132M396 132L395 134C396.263 133.029 396.392 133.306 396 132z"/>
<path style="fill:#fc9e43; stroke:none;" d="M397 132L398 133L397 132z"/>
<path style="fill:#b25f5c; stroke:none;" d="M398.667 132.333C398.222 132.778 399.278 132.722 399.333 132.667C399.778 132.222 398.722 132.278 398.667 132.333M441 132L441 135C441.696 133.446 441.696 133.554 441 132z"/>
<path style="fill:#fc9e43; stroke:none;" d="M396 133L397 134L396 133z"/>
<path style="fill:#e1b794; stroke:none;" d="M479.333 133.667C479.278 133.722 479.222 134.778 479.667 134.333C479.722 134.278 479.778 133.222 479.333 133.667M542 133L542 136C542.696 134.446 542.696 134.554 542 133M267 134L267 138C267.71 136.24 267.71 135.759 267 134z"/>
<path style="fill:#fc9e43; stroke:none;" d="M344.333 134.667C344.278 134.722 344.222 135.778 344.667 135.333C344.722 135.278 344.778 134.222 344.333 134.667M393 134L394 135L393 134z"/>
<path style="fill:#e1b794; stroke:none;" d="M394 134L395 135L394 134z"/>
<path style="fill:#fc9e43; stroke:none;" d="M441 135L442 136L441 135z"/>
<path style="fill:#e1b794; stroke:none;" d="M478 136L479 137L478 136M306 137L307 138L306 137z"/>
<path style="fill:#b25f5c; stroke:none;" d="M440 137C427.99 152.075 404.322 151.071 393 167C405.085 159.475 417.451 154.29 430 147.738C434.108 145.593 440.265 142.185 440 137z"/>
<path style="fill:#799ec4; stroke:none;" d="M441.333 137.667C441.278 137.722 441.222 138.778 441.667 138.333C441.722 138.278 441.778 137.222 441.333 137.667z"/>
<path style="fill:#e1b794; stroke:none;" d="M541 137L541 141C541.71 139.24 541.71 138.76 541 137z"/>
<path style="fill:#b25f5c; stroke:none;" d="M345.333 138.667C345.278 138.722 345.222 139.778 345.667 139.333C345.722 139.278 345.778 138.222 345.333 138.667z"/>
<path style="fill:#e1b794; stroke:none;" d="M477 138L478 139L477 138z"/>
<path style="fill:#799ec4; stroke:none;" d="M344 139L345 140L344 139M440 139C439.043 140.517 438.613 141.339 438 143C439.63 141.485 440.163 141.145 440 139z"/>
<path style="fill:#b25f5c; stroke:none;" d="M346 140C349.558 150.373 362.945 151.397 372 154.695C379.598 157.463 386.176 161.793 393 166C389.663 160.438 383.738 157.862 378 155.273C366.675 150.163 355.412 148.565 346 140z"/>
<path style="fill:#e1b794; stroke:none;" d="M307 141C307.545 142.635 307.365 142.455 309 143C308.455 141.365 308.635 141.545 307 141z"/>
<path style="fill:#799ec4; stroke:none;" d="M345 141C345.684 142.58 345.805 142.777 347 144C346.316 142.42 346.195 142.223 345 141z"/>
<path style="fill:#e1b794; stroke:none;" d="M475 141L476 142L475 141M540.333 141.667C540.278 141.722 540.222 142.778 540.667 142.333C540.722 142.278 540.778 141.222 540.333 141.667M266 142L267 143L266 142z"/>
<path style="fill:#799ec4; stroke:none;" d="M307 142L308 143L307 142z"/>
<path style="fill:#e1b794; stroke:none;" d="M474 142L475 143L474 142z"/>
<path style="fill:#799ec4; stroke:none;" d="M266 143L267 144L266 143M308.333 143.667C308.278 143.722 308.222 144.778 308.667 144.333C308.722 144.278 308.778 143.222 308.333 143.667M435 145C436.58 144.316 436.777 144.195 438 143C436.42 143.684 436.223 143.805 435 145z"/>
<path style="fill:#e1b794; stroke:none;" d="M473 143L474 144L473 143M265 144L266 145L265 144z"/>
<path style="fill:#799ec4; stroke:none;" d="M347 144L348 145L347 144z"/>
<path style="fill:#e1b794; stroke:none;" d="M472 144L473 145L472 144z"/>
<path style="fill:#799ec4; stroke:none;" d="M265 145L264 149C265.146 147.36 265.393 146.924 265 145M309 145L310 146L309 145M348 145L349 146L348 145M434 145L435 146L434 145z"/>
<path style="fill:#e1b794; stroke:none;" d="M471 145L472 146L471 145M264 146L265 147L264 146M310 146C310.545 147.635 310.365 147.455 312 148C311.455 146.365 311.635 146.545 310 146z"/>
<path style="fill:#799ec4; stroke:none;" d="M349 146L350 147L349 146M432.667 146.333C432.222 146.778 433.278 146.722 433.333 146.667C433.778 146.222 432.722 146.278 432.667 146.333z"/>
<path style="fill:#e1b794; stroke:none;" d="M470 146L471 147L470 146M539 146L540 147L539 146z"/>
<path style="fill:#799ec4; stroke:none;" d="M310 147L311 148L310 147M350.667 147.333C350.222 147.778 351.278 147.722 351.333 147.667C351.778 147.222 350.722 147.278 350.667 147.333M430.667 147.333C430.222 147.778 431.278 147.722 431.333 147.667C431.778 147.222 430.722 147.278 430.667 147.333z"/>
<path style="fill:#e1b794; stroke:none;" d="M469 147L470 148L469 147z"/>
<path style="fill:#799ec4; stroke:none;" d="M311 148L312 149L311 148M352.667 148.333C352.222 148.778 353.278 148.722 353.333 148.667C353.778 148.222 352.722 148.278 352.667 148.333M428.667 148.333C428.222 148.778 429.278 148.722 429.333 148.667C429.778 148.222 428.722 148.278 428.667 148.333z"/>
<path style="fill:#e1b794; stroke:none;" d="M468 148L469 149L468 148M538.333 148.667C538.278 148.722 538.222 149.778 538.667 149.333C538.722 149.278 538.778 148.222 538.333 148.667z"/>
<path style="fill:#799ec4; stroke:none;" d="M263 149L264 150L263 149M312 149L313 150L312 149M354 149C355.75 150.255 356.857 150.614 359 151C357.25 149.745 356.143 149.386 354 149M426.667 149.333C426.222 149.778 427.278 149.722 427.333 149.667C427.778 149.222 426.722 149.278 426.667 149.333z"/>
<path style="fill:#e1b794; stroke:none;" d="M466 149L467 150L466 149M262 150L263 151L262 150z"/>
<path style="fill:#799ec4; stroke:none;" d="M313 150L314 151L313 150M424.667 150.333C424.222 150.778 425.278 150.722 425.333 150.667C425.778 150.222 424.722 150.278 424.667 150.333z"/>
<path style="fill:#e1b794; stroke:none;" d="M465 150L466 151L465 150z"/>
<path style="fill:#799ec4; stroke:none;" d="M262 151L263 152L262 151M314 151L315 152L314 151M359 151C360.248 151.685 360.548 151.749 362 152C360.752 151.315 360.452 151.251 359 151M421 151C422.248 151.685 422.548 151.749 424 152C422.752 151.315 422.452 151.251 421 151z"/>
<path style="fill:#e1b794; stroke:none;" d="M537 151L538 152L537 151z"/>
<path style="fill:#799ec4; stroke:none;" d="M261 152L262 153L261 152M315 152L316 153L315 152M362 152C363.506 152.683 364.315 152.826 366 153C364.494 152.317 363.685 152.174 362 152M416 153C417.943 153.622 418.949 153.436 421 153C419.057 152.378 418.051 152.564 416 153z"/>
<path style="fill:#e1b794; stroke:none;" d="M462 152L463 153L462 152M260 153L261 154L260 153z"/>
<path style="fill:#799ec4; stroke:none;" d="M316 153C316.545 154.635 316.365 154.455 318 155C317.455 153.365 317.635 153.545 316 153z"/>
<path style="fill:#e1b794; stroke:none;" d="M317 153L318 154L317 153z"/>
<path style="fill:#799ec4; stroke:none;" d="M366 153C367.248 153.685 367.548 153.749 369 154C367.752 153.315 367.452 153.251 366 153z"/>
<path style="fill:#e1b794; stroke:none;" d="M461 153L462 154L461 153M259 154L260 155L259 154M318 154L319 155L318 154z"/>
<path style="fill:#799ec4; stroke:none;" d="M369 154C370.248 154.685 370.548 154.749 372 155C370.752 154.315 370.452 154.251 369 154M414.667 154.333C414.222 154.778 415.278 154.722 415.333 154.667C415.778 154.222 414.722 154.278 414.667 154.333z"/>
<path style="fill:#e1b794; stroke:none;" d="M459 154L460 155L459 154M536 154L537 155L536 154z"/>
<path style="fill:#799ec4; stroke:none;" d="M259 155L260 156L259 155M319 155C319.545 156.635 319.365 156.455 321 157C320.455 155.365 320.635 155.545 319 155z"/>
<path style="fill:#e1b794; stroke:none;" d="M320 155L321 156L320 155z"/>
<path style="fill:#799ec4; stroke:none;" d="M372 155C373.75 156.255 374.857 156.614 377 157C375.249 155.745 374.143 155.386 372 155M412.667 155.333C412.222 155.778 413.278 155.722 413.333 155.667C413.778 155.222 412.722 155.278 412.667 155.333z"/>
<path style="fill:#e1b794; stroke:none;" d="M457.667 155.333C457.222 155.778 458.278 155.722 458.333 155.667C458.778 155.222 457.722 155.278 457.667 155.333z"/>
<path style="fill:#799ec4; stroke:none;" d="M258 156L259 157L258 156z"/>
<path style="fill:#e1b794; stroke:none;" d="M321 156L322 157L321 156z"/>
<path style="fill:#799ec4; stroke:none;" d="M410.667 156.333C410.222 156.778 411.278 156.722 411.333 156.667C411.778 156.222 410.722 156.278 410.667 156.333z"/>
<path style="fill:#e1b794; stroke:none;" d="M456 156L457 157L456 156M535.333 156.667C535.278 156.722 535.222 157.778 535.667 157.333C535.722 157.278 535.778 156.222 535.333 156.667z"/>
<path style="fill:#799ec4; stroke:none;" d="M322 157L323 158L322 157M377.667 157.333C377.222 157.778 378.278 157.722 378.333 157.667C378.778 157.222 377.722 157.278 377.667 157.333M408.667 157.333C408.222 157.778 409.278 157.722 409.333 157.667C409.778 157.222 408.722 157.278 408.667 157.333z"/>
<path style="fill:#e1b794; stroke:none;" d="M454 157L455 158L454 157z"/>
<path style="fill:#799ec4; stroke:none;" d="M257 158L258 159L257 158M323 158C324.139 159.015 324.612 159.309 326 160C324.777 158.805 324.58 158.684 323 158z"/>
<path style="fill:#e1b794; stroke:none;" d="M325 158L326 159L325 158z"/>
<path style="fill:#799ec4; stroke:none;" d="M379.667 158.333C379.222 158.778 380.278 158.722 380.333 158.667C380.778 158.222 379.722 158.278 379.667 158.333M404 159C405.659 159.406 406.242 159.309 408 159C406.191 158.426 405.931 158.535 404 159z"/>
<path style="fill:#e1b794; stroke:none;" d="M453 158L454 159L453 158M256 159L257 160L256 159M326 159L327 160L326 159z"/>
<path style="fill:#799ec4; stroke:none;" d="M381.667 159.333C381.222 159.778 382.278 159.722 382.333 159.667C382.778 159.222 381.722 159.278 381.667 159.333z"/>
<path style="fill:#e1b794; stroke:none;" d="M451 159L452 160L451 159M534 159L535 160L534 159z"/>
<path style="fill:#799ec4; stroke:none;" d="M256 160C254.925 165.792 255.413 170.351 257 176C257.905 172.118 257.351 163.727 256 160M327.667 160.333C327.222 160.778 328.278 160.722 328.333 160.667C328.778 160.222 327.722 160.278 327.667 160.333M383.667 160.333C383.222 160.778 384.278 160.722 384.333 160.667C384.778 160.222 383.722 160.278 383.667 160.333M402.667 160.333C402.222 160.778 403.278 160.722 403.333 160.667C403.778 160.222 402.722 160.278 402.667 160.333M329 161C330.458 162.081 331.248 162.436 333 163C331.542 161.919 330.752 161.564 329 161z"/>
<path style="fill:#e1b794; stroke:none;" d="M331 161L332 162L331 161z"/>
<path style="fill:#799ec4; stroke:none;" d="M385 161C386.223 162.195 386.42 162.316 388 163C386.777 161.805 386.58 161.684 385 161M399 163C400.58 162.316 400.777 162.195 402 161C400.42 161.684 400.223 161.805 399 163z"/>
<path style="fill:#e1b794; stroke:none;" d="M448 161L449 162L448 161M255 162L256 163L255 162M447 162L448 163L447 162M533 162L534 163L533 162z"/>
<path style="fill:#799ec4; stroke:none;" d="M334 163L335 164L334 163M388 163C389.45 164.608 390.051 165.064 392 166C390.55 164.392 389.949 163.936 388 163M398 163L399 164L398 163z"/>
<path style="fill:#e1b794; stroke:none;" d="M445 163L446 164L445 163M532.333 163.667C532.278 163.722 532.222 164.778 532.667 164.333C532.722 164.278 532.778 163.222 532.333 163.667z"/>
<path style="fill:#799ec4; stroke:none;" d="M335 164C336.458 165.081 337.248 165.436 339 166C337.542 164.919 336.752 164.564 335 164z"/>
<path style="fill:#e1b794; stroke:none;" d="M337 164L338 165L337 164z"/>
<path style="fill:#799ec4; stroke:none;" d="M395 166C396.58 165.316 396.777 165.195 398 164C396.42 164.684 396.223 164.805 395 166z"/>
<path style="fill:#e1b794; stroke:none;" d="M444 164L445 165L444 164M339 165L340 166L339 165M442 165L443 166L442 165z"/>
<path style="fill:#799ec4; stroke:none;" d="M340 166C341.653 167.513 342.894 168.181 345 169C343.347 167.488 342.106 166.819 340 166z"/>
<path style="fill:#e1b794; stroke:none;" d="M341 166L342 167L341 166z"/>
<path style="fill:#799ec4; stroke:none;" d="M394 166L395 167L394 166z"/>
<path style="fill:#e1b794; stroke:none;" d="M441 166L442 167L441 166M531 166L532 167L531 166M344 167L345 168L344 167M440 167L441 168L440 167M345 168L346 169L345 168z"/>
<path style="fill:#799ec4; stroke:none;" d="M346.667 169.333C346.222 169.778 347.278 169.722 347.333 169.667C347.778 169.222 346.722 169.278 346.667 169.333z"/>
<path style="fill:#e1b794; stroke:none;" d="M530 169L531 170L530 169M255 170L256 171L255 170z"/>
<path style="fill:#799ec4; stroke:none;" d="M348.667 170.333C348.222 170.778 349.278 170.722 349.333 170.667C349.778 170.222 348.722 170.278 348.667 170.333z"/>
<path style="fill:#e1b794; stroke:none;" d="M350 170L351 171L350 170M436 170L437 171L436 170M529.333 170.667C529.278 170.722 529.222 171.778 529.667 171.333C529.722 171.278 529.778 170.222 529.333 170.667z"/>
<path style="fill:#799ec4; stroke:none;" d="M351 171L352 172L351 171z"/>
<path style="fill:#e1b794; stroke:none;" d="M435 171L436 172L435 171z"/>
<path style="fill:#799ec4; stroke:none;" d="M353 172C354.653 173.513 355.894 174.181 358 175C356.314 173.344 355.254 172.749 353 172z"/>
<path style="fill:#e1b794; stroke:none;" d="M480 172L480 175C480.696 173.446 480.696 173.554 480 172M357 173L358 174L357 173M474 173L475 174L474 173M528 173L529 174L528 173M256 174L257 175L256 174M358 174L359 175L358 174M473 174L474 175L473 174z"/>
<path style="fill:#799ec4; stroke:none;" d="M360 175C361.223 176.195 361.42 176.316 363 177C361.861 175.985 361.388 175.691 360 175z"/>
<path style="fill:#e1b794; stroke:none;" d="M361 175L362 176L361 175M471 175L472 176L471 175M479.333 175.667C479.278 175.722 479.222 176.778 479.667 176.333C479.722 176.278 479.778 175.222 479.333 175.667M527 175L528 176L527 175M257 176L258 177L257 176M363 176L364 177L363 176M431 176L432 177L431 176M470 176L471 177L470 176z"/>
<path style="fill:#799ec4; stroke:none;" d="M364 177L365 178L364 177z"/>
<path style="fill:#e1b794; stroke:none;" d="M430 177L431 178L430 177M469 177L470 178L469 177M526 177L527 178L526 177z"/>
<path style="fill:#799ec4; stroke:none;" d="M258 178L259 181C259.401 179.234 259.289 179.443 258 178M366 178C367.223 179.195 367.42 179.316 369 180C367.861 178.985 367.388 178.691 366 178z"/>
<path style="fill:#e1b794; stroke:none;" d="M367 178L368 179L367 178M467 178L468 179L467 178M258 179L259 180L258 179M429 179L430 180L429 179M466 179L467 180L466 179M478 179L479 180L478 179M525 179L526 180L525 179z"/>
<path style="fill:#799ec4; stroke:none;" d="M369 180L370 181L369 180z"/>
<path style="fill:#e1b794; stroke:none;" d="M370 180L371 181L370 180M428 180L429 181L428 180M465 180L466 181L465 180M259 181L260 182L259 181z"/>
<path style="fill:#799ec4; stroke:none;" d="M371 181C371.545 182.635 371.365 182.455 373 183C372.455 181.365 372.635 181.545 371 181z"/>
<path style="fill:#e1b794; stroke:none;" d="M372 181L373 182L372 181M427.333 181.667C427.278 181.722 427.222 182.778 427.667 182.333C427.722 182.278 427.778 181.222 427.333 181.667M464 181L465 182L464 181M477.333 181.667C477.278 181.722 477.222 182.778 477.667 182.333C477.722 182.278 477.778 181.222 477.333 181.667M524 181L525 182L524 181z"/>
<path style="fill:#799ec4; stroke:none;" d="M260 182L261 183L260 182z"/>
<path style="fill:#e1b794; stroke:none;" d="M373 182L374 183L373 182M463 182L464 183L463 182M523.333 182.667C523.278 182.722 523.222 183.778 523.667 183.333C523.722 183.278 523.778 182.222 523.333 182.667z"/>
<path style="fill:#799ec4; stroke:none;" d="M374 183L375 184L374 183z"/>
<path style="fill:#e1b794; stroke:none;" d="M426 183L427 184L426 183M462 183L463 184L462 183z"/>
<path style="fill:#799ec4; stroke:none;" d="M261 184L262 185L261 184M375.667 184.333C375.222 184.778 376.278 184.722 376.333 184.667C376.778 184.222 375.722 184.278 375.667 184.333z"/>
<path style="fill:#e1b794; stroke:none;" d="M461 184L462 185L461 184M476 184L477 185L476 184M522 184L523 185L522 184z"/>
<path style="fill:#799ec4; stroke:none;" d="M262 185L263 186L262 185M377 185L378 186L377 185z"/>
<path style="fill:#e1b794; stroke:none;" d="M378 185L379 186L378 185M425 185L426 186L425 185M460 185L461 186L460 185M262 186L263 187L262 186z"/>
<path style="fill:#799ec4; stroke:none;" d="M379 186L380 187L379 186z"/>
<path style="fill:#e1b794; stroke:none;" d="M521.333 186.667C521.278 186.722 521.222 187.778 521.667 187.333C521.722 187.278 521.778 186.222 521.333 186.667z"/>
<path style="fill:#799ec4; stroke:none;" d="M263 187L264 188L263 187M380 187C380.545 188.635 380.365 188.455 382 189C381.455 187.365 381.635 187.545 380 187z"/>
<path style="fill:#e1b794; stroke:none;" d="M381 187L382 188L381 187M424 187L425 188L424 187M475.333 187.667C475.278 187.722 475.222 188.778 475.667 188.333C475.722 188.278 475.778 187.222 475.333 187.667z"/>
<path style="fill:#799ec4; stroke:none;" d="M264 188L265 191C265.401 189.234 265.289 189.443 264 188z"/>
<path style="fill:#e1b794; stroke:none;" d="M382 188L383 189L382 188M457 188L458 189L457 188M520 188L521 189L520 188M264 189L265 190L264 189z"/>
<path style="fill:#799ec4; stroke:none;" d="M383 189L384 190L383 189z"/>
<path style="fill:#e1b794; stroke:none;" d="M423 189L424 190L423 189z"/>
<path style="fill:#799ec4; stroke:none;" d="M384.667 190.333C384.222 190.778 385.278 190.722 385.333 190.667C385.778 190.222 384.722 190.278 384.667 190.333z"/>
<path style="fill:#e1b794; stroke:none;" d="M474 190L474 193C474.696 191.446 474.696 191.554 474 190M519 190L520 191L519 190z"/>
<path style="fill:#799ec4; stroke:none;" d="M266 191L267 192L266 191M386 191L387 192L386 191z"/>
<path style="fill:#e1b794; stroke:none;" d="M454 191L455 192L454 191z"/>
<path style="fill:#799ec4; stroke:none;" d="M267 192C267.545 193.635 267.365 193.455 269 194C268.455 192.365 268.635 192.545 267 192M387 192L388 193L387 192z"/>
<path style="fill:#e1b794; stroke:none;" d="M518 192L519 193L518 192M267 193L268 194L267 193z"/>
<path style="fill:#799ec4; stroke:none;" d="M388 193C388.545 194.635 388.365 194.455 390 195C389.455 193.365 389.635 193.545 388 193z"/>
<path style="fill:#e1b794; stroke:none;" d="M389 193L390 194L389 193M422.333 193.667C422.278 193.722 422.222 194.778 422.667 194.333C422.722 194.278 422.778 193.222 422.333 193.667M473.333 193.667C473.278 193.722 473.222 194.778 473.667 194.333C473.722 194.278 473.778 193.222 473.333 193.667M517 193L518 194L517 193M268 194L269 195L268 194M390 194L391 195L390 194M451 194L452 195L451 194z"/>
<path style="fill:#799ec4; stroke:none;" d="M269 195L270 196L269 195M391 195L392 196L391 195z"/>
<path style="fill:#e1b794; stroke:none;" d="M516 195L517 196L516 195z"/>
<path style="fill:#799ec4; stroke:none;" d="M270 196L273 201C273.098 198.413 272.015 197.644 270 196M392 196L393 197L392 196z"/>
<path style="fill:#e1b794; stroke:none;" d="M421.333 196.667C421.278 196.722 421.222 197.778 421.667 197.333C421.722 197.278 421.778 196.222 421.333 196.667M449 196L450 197L449 196M515.333 196.667C515.278 196.722 515.222 197.778 515.667 197.333C515.722 197.278 515.778 196.222 515.333 196.667M270 197L271 198L270 197z"/>
<path style="fill:#799ec4; stroke:none;" d="M393 197L394 198L393 197z"/>
<path style="fill:#e1b794; stroke:none;" d="M448 197L449 198L448 197M271 198L272 199L271 198z"/>
<path style="fill:#799ec4; stroke:none;" d="M394 198L395 199L394 198z"/>
<path style="fill:#e1b794; stroke:none;" d="M472.333 198.667C472.278 198.722 472.222 199.778 472.667 199.333C472.722 199.278 472.778 198.222 472.333 198.667M514 198L515 199L514 198M272 199L273 200L272 199z"/>
<path style="fill:#799ec4; stroke:none;" d="M395 199L396 200L395 199z"/>
<path style="fill:#e1b794; stroke:none;" d="M446 199L447 200L446 199z"/>
<path style="fill:#799ec4; stroke:none;" d="M396 200L397 201L396 200z"/>
<path style="fill:#e1b794; stroke:none;" d="M445 200L446 201L445 200M471 200L471 204C471.71 202.24 471.71 201.76 471 200M513 200L514 201L513 200M274 201L275 202L274 201z"/>
<path style="fill:#799ec4; stroke:none;" d="M397 201L398 202L397 201z"/>
<path style="fill:#e1b794; stroke:none;" d="M420.333 201.667C420.278 201.722 420.222 202.778 420.667 202.333C420.722 202.278 420.778 201.222 420.333 201.667M444 201L445 202L444 201M512 201L513 202L512 201z"/>
<path style="fill:#799ec4; stroke:none;" d="M275 202L276 203L275 202M320 202C319.285 208.543 320.999 215.362 321 222C323.197 216.764 322.173 207.166 320 202z"/>
<path style="fill:#e1b794; stroke:none;" d="M398 202L399 203L398 202M443 202L444 203L443 202M511 202L512 203L511 202z"/>
<path style="fill:#799ec4; stroke:none;" d="M276 203L277 204L276 203z"/>
<path style="fill:#e1b794; stroke:none;" d="M321 203L322 204L321 203z"/>
<path style="fill:#799ec4; stroke:none;" d="M322 203L323 204L322 203M398 203L399 204L398 203z"/>
<path style="fill:#e1b794; stroke:none;" d="M442 203L443 204L442 203M277 204L278 205L277 204M323 204L324 205L323 204z"/>
<path style="fill:#799ec4; stroke:none;" d="M324 204C325.75 205.255 326.857 205.614 329 206C327.307 204.938 325.96 204.48 324 204M399.333 204.667C399.278 204.722 399.222 205.778 399.667 205.333C399.722 205.278 399.778 204.222 399.333 204.667z"/>
<path style="fill:#e1b794; stroke:none;" d="M441 204L442 205L441 204M510 204L511 205L510 204z"/>
<path style="fill:#799ec4; stroke:none;" d="M278 205L279 206L278 205z"/>
<path style="fill:#e1b794; stroke:none;" d="M325 205L326 206L325 205M419 205L419 209C419.71 207.24 419.71 206.759 419 205M440 205L441 206L440 205M470.333 205.667C470.278 205.722 470.222 206.778 470.667 206.333C470.722 206.278 470.778 205.222 470.333 205.667M509 205L510 206L509 205z"/>
<path style="fill:#799ec4; stroke:none;" d="M279 206L280 207L279 206M329.667 206.333C329.222 206.778 330.278 206.722 330.333 206.667C330.778 206.222 329.722 206.278 329.667 206.333z"/>
<path style="fill:#e1b794; stroke:none;" d="M439 206L440 207L439 206M508 206L509 207L508 206M280 207L281 208L280 207M332 207L333 208L332 207z"/>
<path style="fill:#799ec4; stroke:none;" d="M333 207C335.311 208.393 337.309 208.765 340 209C337.717 207.778 335.572 207.348 333 207M399 207L398 209L400 209C400 207.147 400.3 207.65 399 207z"/>
<path style="fill:#e1b794; stroke:none;" d="M438 207L439 208L438 207z"/>
<path style="fill:#799ec4; stroke:none;" d="M281 208L282 209L281 208z"/>
<path style="fill:#e1b794; stroke:none;" d="M334.667 208.333C334.222 208.778 335.278 208.722 335.333 208.667C335.778 208.222 334.722 208.278 334.667 208.333M437 208L438 209L437 208M507 208L508 209L507 208z"/>
<path style="fill:#799ec4; stroke:none;" d="M282 209L283 210L282 209z"/>
<path style="fill:#e1b794; stroke:none;" d="M321.333 209.667C321.278 209.722 321.222 210.778 321.667 210.333C321.722 210.278 321.778 209.222 321.333 209.667z"/>
<path style="fill:#799ec4; stroke:none;" d="M340 209C341.248 209.685 341.548 209.749 343 210C341.752 209.315 341.452 209.251 340 209z"/>
<path style="fill:#e1b794; stroke:none;" d="M398 209L399 210L398 209M436 209L437 210L436 209M506 209L507 210L506 209M283 210L284 211L283 210M344 210C345.248 210.685 345.548 210.749 347 211C345.752 210.315 345.452 210.251 344 210z"/>
<path style="fill:#799ec4; stroke:none;" d="M347 210C351.058 212.158 355.491 211.997 360 212C356.166 210.388 351.174 210.329 347 210M383 211C386.893 212.63 390.921 211.515 395 211C391.34 209.687 386.915 210.968 383 211z"/>
<path style="fill:#e1b794; stroke:none;" d="M395.667 210.333C395.222 210.778 396.278 210.722 396.333 210.667C396.778 210.222 395.722 210.278 395.667 210.333M418 210L418 213C418.696 211.446 418.696 211.554 418 210M435 210L436 211L435 210M505 210L506 211L505 210z"/>
<path style="fill:#799ec4; stroke:none;" d="M284 211L285 212L284 211z"/>
<path style="fill:#e1b794; stroke:none;" d="M349.667 211.333C349.222 211.778 350.278 211.722 350.333 211.667C350.778 211.222 349.722 211.278 349.667 211.333M391 211C392.248 211.685 392.549 211.749 394 212C392.752 211.315 392.452 211.251 391 211M434 211L435 212L434 211M504 211L505 212L504 211z"/>
<path style="fill:#799ec4; stroke:none;" d="M285 212L286 213L285 212z"/>
<path style="fill:#e1b794; stroke:none;" d="M360 212C362.89 213.213 365.874 212.998 369 213C366.11 211.787 363.126 212.002 360 212z"/>
<path style="fill:#799ec4; stroke:none;" d="M369 212C370.769 212.779 372.036 212.912 374 213C372.231 212.221 370.964 212.088 369 212z"/>
<path style="fill:#e1b794; stroke:none;" d="M374 212C376.89 213.213 379.874 212.998 383 213C380.11 211.787 377.126 212.002 374 212M433 212L434 213L433 212M469 212L469 217C469.83 214.97 469.83 214.03 469 212M503 212L504 213L503 212M286 213L287 214L286 213M432 213L433 214L432 213M502 213L503 214L502 213z"/>
<path style="fill:#799ec4; stroke:none;" d="M287 214C288.588 215.627 290.078 216.774 292 218C290.376 215.956 289.357 215.104 287 214z"/>
<path style="fill:#e1b794; stroke:none;" d="M431 214L432 215L431 214M288 215L289 216L288 215M430 215L431 216L430 215M500 215L501 216L500 215M289 216L290 217L289 216M429 216L430 217L429 216M499 216L500 217L499 216M290 217L291 218L290 217M498 217L499 218L498 217z"/>
<path style="fill:#799ec4; stroke:none;" d="M292 218L293 219L292 218z"/>
<path style="fill:#e1b794; stroke:none;" d="M427 218L428 219L427 218M497 218L498 219L497 218z"/>
<path style="fill:#799ec4; stroke:none;" d="M293 219L294 220L293 219z"/>
<path style="fill:#e1b794; stroke:none;" d="M496 219L497 220L496 219z"/>
<path style="fill:#799ec4; stroke:none;" d="M294 220L295 221L294 220z"/>
<path style="fill:#e1b794; stroke:none;" d="M495 220L496 221L495 220M295 221L296 222L295 221M424 221L425 222L424 221M296 222C296.545 223.635 296.365 223.455 298 224C297.455 222.365 297.635 222.545 296 222z"/>
<path style="fill:#799ec4; stroke:none;" d="M297 222L298 223L297 222z"/>
<path style="fill:#e1b794; stroke:none;" d="M321 222L322 223L321 222M423 222L424 223L423 222M469 222L469 225C469.696 223.446 469.696 223.554 469 222M492 222L493 223L492 222z"/>
<path style="fill:#799ec4; stroke:none;" d="M298 223L299 224L298 223M320 223L319 230C320.663 227.565 321.078 225.773 320 223z"/>
<path style="fill:#e1b794; stroke:none;" d="M418 223L419 224L418 223M491 223L492 224L491 223z"/>
<path style="fill:#799ec4; stroke:none;" d="M299 224L300 225L299 224z"/>
<path style="fill:#e1b794; stroke:none;" d="M419 224L420 225L419 224M421 224L422 225L421 224M489 224L490 225L489 224z"/>
<path style="fill:#799ec4; stroke:none;" d="M300 225C301.139 226.015 301.612 226.309 303 227C301.777 225.805 301.58 225.684 300 225z"/>
<path style="fill:#e1b794; stroke:none;" d="M487.667 225.333C487.222 225.778 488.278 225.722 488.333 225.667C488.778 225.222 487.722 225.278 487.667 225.333M301 226L302 227L301 226M486 226L487 227L486 226z"/>
<path style="fill:#799ec4; stroke:none;" d="M303 227L304 228L303 227z"/>
<path style="fill:#e1b794; stroke:none;" d="M484 227L485 228L484 227z"/>
<path style="fill:#799ec4; stroke:none;" d="M304 228L305 229L304 228z"/>
<path style="fill:#e1b794; stroke:none;" d="M320 228L321 229L320 228M471 228L472 229L471 228M481.667 228.333C481.222 228.778 482.278 228.722 482.333 228.667C482.778 228.222 481.722 228.278 481.667 228.333z"/>
<path style="fill:#799ec4; stroke:none;" d="M305 229L306 230L305 229z"/>
<path style="fill:#e1b794; stroke:none;" d="M472 229L473 230L472 229M480 229L481 230L480 229M306 230C306.545 231.635 306.365 231.455 308 232C307.455 230.365 307.635 230.545 306 230z"/>
<path style="fill:#799ec4; stroke:none;" d="M307 230L308 231L307 230M308 231L309 232L308 231M318 231L319 232L318 231M309 232L310 233L309 232M317 232C314.6 233.124 313.627 233.315 311 233C313.162 234.802 316.413 235.403 317 232z"/>
<path style="fill:#e1b794; stroke:none;" d="M310 233L311 234L310 233M317 233L318 234L317 233M311 234L312 235L311 234M316 234L317 235L316 234M272 267C273.882 265.319 275.71 263.282 278.016 262.179C289.075 256.888 296.521 279.89 282 277.363C280.641 277.126 279.223 276.428 278.045 275.737C275.942 274.503 274.54 272.838 273 271C272.01 282.492 290.727 282.424 293.102 271.999C295.789 260.203 276.025 255.777 272 267M347 268C350.43 265.132 353.362 261.938 358 261.214C367.264 259.767 377.715 264.724 372 275C368.883 272.867 365.705 273.179 362 273C363.248 273.685 363.548 273.749 365 274C362.823 276.577 361.21 278.854 360 282C363.771 283.815 371.474 282.755 373.82 286.318C379.304 294.645 366.59 293.599 364.603 298.148C363.476 300.731 364 304.254 364 307L364 326C357.359 326.839 351.634 326.524 345 326C348.55 331.064 362.307 332.579 365.258 325.867C366.538 322.954 366 319.099 366 316L366 297C367.943 296.994 370.033 297.157 371.95 296.772C377.273 295.701 378.546 288.064 374.566 284.603C372.132 282.487 368.934 283.675 366.248 282.397C364.954 281.781 364.012 280.589 364.461 279.09C365.839 274.492 371.725 277.587 374.682 275.883C378.168 273.873 377 267.354 377 264C366.597 260.532 353.527 255.715 347 268z"/>
<path style="fill:#fc9e43; stroke:none;" d="M278.015 261.743C265.731 266.5 277.705 281.774 286.955 277.489C296.394 273.117 286.948 258.284 278.015 261.743M345 284L340 284C340.001 289.11 339.128 293.719 345 295L345 326C351.56 326.829 357.447 327.217 364 326C364 317.99 362.286 307.773 364.318 300.019C365.818 294.294 371.178 296.948 373.972 293.397C381.167 284.253 364.278 283.559 360 282C361.384 279.231 366.837 274.586 362 274C365.335 273.501 368.149 273.128 371 275C374.398 272.549 375.608 266.266 371.682 263.417C365.634 259.028 353.274 259.843 348.89 266.105C345.454 271.012 345.016 278.227 345 284z"/>
<path style="fill:#e1b794; stroke:none;" d="M317 266C319.332 266.985 321.457 266.981 324 267L324 283C325.552 279.303 325 274.983 325 271C327.147 278.265 324.393 283.886 334 284C334.467 287.695 334.969 291.265 335 295C332.575 295.029 329.481 294.718 327.603 296.603C325.192 299.025 324.408 310.848 327.406 312.958C329.35 314.326 331.932 313.468 334 313C334.831 316.589 336.123 321.294 333.988 324.708C332.479 327.12 329.477 327.346 326.91 327.621C318.306 328.545 311.113 323.933 308 316C305.544 328.398 329.783 335.955 335.972 325.772C337.867 322.655 337.624 316.075 334.683 313.674C332.693 312.049 329.864 312.407 328.523 309.903C326.74 306.572 327.857 300.669 328 297C330.243 296.946 332.742 297.081 334.723 295.821C338.298 293.549 338.618 287.676 335.486 284.894C333.401 283.041 330.61 283.078 328 283C328 273.461 328.345 266.103 317 266M694 266C699.234 278.847 697 294.281 697 308C697 312.621 698.275 319.549 696.397 323.852C693.778 329.85 680.768 327.277 677 324C673.9 325.121 670.983 326.887 667.714 327.495C658.885 329.138 651.16 323.628 646 317C645.703 326.021 659.656 330.701 667 329.814C670.03 329.448 672.947 327.578 676 327.698C682.327 327.946 688.26 332.088 694.852 329.106C699.739 326.896 698 318.348 698 314L698 281C698 275.159 698.825 270.018 694 266M315 267L313 273C314.772 270.972 315.542 269.664 315 267z"/>
<path style="fill:#fc9e43; stroke:none;" d="M301 284C301.001 289.699 300.301 294.229 307 295C307 304.015 304.589 316.976 312.133 323.698C316.304 327.414 329.846 331.097 333.973 325.475C336.406 322.16 335.13 316.513 334 313C331.865 313.329 329.388 313.972 327.486 312.527C324.428 310.203 325.399 299.945 327.603 297.318C329.492 295.067 332.323 295.087 335 295C334.99 291.237 334.687 287.7 334 284C325.416 283.72 326 278.143 326 271C324.448 274.698 325 279.017 325 283C323.479 277.854 324 272.34 324 267C321.702 267.008 318.666 266.591 316.688 268.028C309.518 273.233 312.161 283.637 301 284z"/>
<path style="fill:#e1b794; stroke:none;" d="M689 267C690.506 267.683 691.315 267.826 693 268C691.494 267.317 690.685 267.174 689 267z"/>
<path style="fill:#fc9e43; stroke:none;" d="M677 290C669.149 281.235 655.471 280.57 647.532 290.094C641.063 297.856 640.495 308.401 645.529 316.996C647.377 320.151 649.889 322.619 653.004 324.521C656.356 326.568 660.047 327.836 663.985 327.934C668.988 328.06 672.671 326.262 677 324C679.903 327.813 694.964 329.641 696.682 323.852C698.153 318.898 697 312.144 697 307C697 294.333 699.376 279.006 695 267C690.38 267.858 682.354 267.283 678.858 270.854C675.24 274.55 677 285.198 677 290z"/>
<path style="fill:#e1b794; stroke:none;" d="M681 268C682.506 268.683 683.315 268.826 685 269C683.494 268.317 682.685 268.174 681 268M346 269L345 276C346.466 273.55 346.965 271.706 346 269M677 269L677 273C678.351 271.598 679.254 270.824 681 270C679.494 269.317 678.685 269.174 677 269M289 273L290 274L289 273M287 274L288 275L287 274M312 274L313 275L312 274M311 275L310 279C311.303 277.332 311.553 277.008 311 275M284.667 276.333C284.222 276.778 285.278 276.722 285.333 276.667C285.778 276.222 284.722 276.278 284.667 276.333M677 278L678 279L677 278M309 280L310 281L309 280M308.333 281.667C308.278 281.722 308.222 282.778 308.667 282.333C308.722 282.278 308.778 281.222 308.333 281.667M118 284C122.549 285.093 127.339 283.278 132 284.854C141.544 288.082 147.695 300.444 148 310C147.014 308.521 147 308.797 147 307C145.964 309.628 146.634 312.302 145.825 315C143.773 321.842 137.08 327.303 130 326C125.107 329.506 118.29 325.072 114 322C111.803 326.393 114.53 332.783 112 337L111 336C111 337.797 111.014 337.521 112 339L105 339C105 342.346 97.1712 340.082 94 341L94 285L110 285L110 291C113.506 289.931 115.029 288.053 117 285C110.974 285.073 100.209 279.588 94.6034 284.028C91.6492 286.368 93 293.684 93 297L93 329C93 332.328 91.8249 338.616 94.0278 341.397C97.1005 345.276 110.612 342.465 112.972 338.721C115.041 335.44 114.097 329.794 115 326C118.471 327.973 121.949 329.62 126 329.903C142.877 331.08 153.077 313.07 148.081 298C145.226 289.388 137.707 284.184 129 282.762C124.986 282.106 121.772 282.59 118 284M153 296C160.126 289.682 166.936 280.199 177.985 285.09C181.898 286.821 183.937 290.676 188 292L188 284C192.096 284 200.249 282.456 203.397 285.603C206.786 288.993 205 298.583 205 303C205 307.996 204.888 313.007 205.074 318C205.153 320.123 205.628 322.642 204.168 324.436C200.418 329.043 191.66 326.206 187 325L188 321C185.611 323.135 183.352 325.596 180.285 326.745C169.653 330.726 159.296 322.327 154 314C153.994 317.042 155.603 319.578 157.529 321.96C165.643 331.993 176.56 330.715 187 326C190.203 330.568 204.228 332.834 207.258 326.697C208.735 323.705 208 319.234 208 316L208 296C208 292.972 208.617 289.04 207.397 286.189C205.217 281.097 192.702 280.143 188.514 283.023C186.817 284.19 186.495 286.166 186 288C174.653 279.38 158.562 281.645 153 296M391 284C394.294 284.791 397.615 283.732 401 283.595C405.013 283.432 409.073 284.268 413 285C406.875 280.81 397.81 282.36 391 284M462.995 282.797C460.197 282.66 457.783 284.619 455 284.632C449.981 284.656 438.073 279.496 434.028 284.603C431.825 287.385 433 293.672 433 297L433 317C433 319.982 432.356 324.069 434.028 326.721C435.519 329.087 438.415 329.681 441 329.906C442.965 330.077 445.035 330.077 447 329.906C461.175 328.672 451.319 312.316 456.028 304.133C458.957 299.043 467.125 301.764 469.393 296.721C471.43 292.193 468.568 283.069 462.995 282.797M562 282C563.506 282.683 564.315 282.826 566 283C564.494 282.317 563.685 282.174 562 282M578 283C583.02 283.783 591.339 280.862 595.486 284.603C598.027 286.895 597.958 290.869 597.996 294C598.087 301.331 598.003 308.669 598 316C597.999 318.886 598.652 323.141 596.397 325.397C592.356 329.437 580.713 327.434 578 323C574.824 324.91 571.761 327.237 568 327.782C556.49 329.452 547.38 319.906 544 310C541.843 320.427 555.971 329.742 565 329.945C569.198 330.04 572.969 327.539 577 327.698C582.939 327.931 591.856 333.366 597.397 328.142C601.028 324.719 599 313.615 599 309C599 302.643 601.279 290.733 597.972 285.148C594.841 279.86 582.914 281.548 578 283M630 284C635.429 284.767 640.803 287.844 638.998 294.852C637.741 299.734 628.702 298.331 626.028 303.108C622.556 309.309 627.979 318.744 623.972 324.566C621.214 328.573 608.692 328.404 606.603 323.772C604.176 318.388 606 308.844 606 303L606 284L623 284C624.28 287.813 626.312 287.667 629 285C627.365 285.545 627.545 285.365 627 287C622.785 282.912 618.64 282.962 613 283.001C610.791 283.016 607.583 282.64 606.028 284.603C604.088 287.052 605 292.09 605 295L605 317C605 319.982 604.356 324.069 606.028 326.721C608.777 331.082 619.695 331.272 623.682 328.682C629.366 324.99 624.49 311.727 626.742 306.015C629.543 298.914 637.578 302.401 640.933 297.436C642.15 295.634 641.42 292.961 641.075 291C639.91 284.39 636.464 281.428 630 284M661 282C662.769 282.779 664.036 282.912 666 283C664.231 282.221 662.964 282.088 661 282M214 283C218.974 285.087 225.638 284 231 284L231 308C233.398 302.285 232 294.169 232 288C234.671 297.037 227.83 316.559 243 313C241.034 312.493 238.313 312.879 236.742 311.358C230.558 305.371 238.78 292.013 233.258 285.318C229.67 280.968 219.07 283 214 283M243 311C247.303 305.32 246.981 290.702 245 284C249.227 284 258.05 282.326 261.258 285.603C263.518 287.912 262.995 292.061 263 295C263.012 301.964 262.614 309.051 263.09 316C263.374 320.155 264.649 323.485 262 327C262.653 336.909 254.449 345.569 245 347.242C239.793 348.163 234.894 347.858 232 343C230.331 350.141 240.249 350.337 245 349.331C254.43 347.334 261.248 341.402 263.84 332C266.632 321.876 266 311.385 266 301C266 296.786 266.944 291.189 265.436 287.189C263.349 281.656 255.689 282.916 251.001 283.005C249.019 283.042 246.406 282.864 245.028 284.603C243.376 286.689 244.001 290.531 244 293C243.997 299.033 244.405 305.098 243 311M272 283C276.837 285.03 285.44 281.703 289.258 285.603C295.594 292.076 283.813 315.93 298 313C296.341 312.594 295.758 312.691 294 313C292.521 306.788 293.013 300.35 293 294C292.993 290.82 293.392 286.886 290.682 284.603C286.606 281.169 277.027 283 272 283M301 283C303.332 283.985 305.457 283.981 308 284C305.668 283.015 303.543 283.019 301 283M339 283L339 294C340.327 290.837 340 287.414 340 284L345 284C342.948 283.126 341.253 283.047 339 283z"/>
<path style="fill:#fc9e43; stroke:none;" d="M400 283.465C394.208 284 388.608 285.347 384.185 289.38C375.56 297.243 375.443 311.483 383.214 319.906C389.487 326.706 399.139 328.601 408 327.768C426.711 326.008 433.609 304.935 421.62 291.093C416.434 285.106 407.725 282.751 400 283.465M452 291C451.68 281.249 441.389 284 434 284L434 326C440.001 327.114 445.917 327 452 327C453.689 317.904 449.133 303.171 459.999 299.113C462.233 298.278 464.651 298.163 467 298C467.43 292.305 466.362 288.467 465 283C459.308 284.238 455.969 286.832 452 291z"/>
<path style="fill:#e1b794; stroke:none;" d="M470 283C474.894 285.054 480.926 282.449 485.656 284.858C488.486 286.299 488.752 289.199 489.201 292.004C490.101 297.612 491.642 303.369 492 309C494.937 305.627 495.437 301.358 496 297C494.745 298.75 494.386 299.857 494 302C492.171 297.118 492.721 289.423 489.262 285.434C485.452 281.04 475.232 283 470 283M496 294C497.504 291.494 497.507 287.654 499.6 285.603C502.45 282.809 510.802 283.201 513.27 286.318C517.5 291.659 517.78 303.458 519 310C520.942 306.539 521.797 302.955 522 299C521.317 300.506 521.174 301.315 521 303C518.456 297.802 519.121 289.785 515.272 285.434C512.558 282.364 500.981 281.144 498.175 284.603C496.339 286.867 496.353 291.22 496 294M524 283C523.438 286.025 523.064 288.922 523 292C523.909 289.999 524.139 287.211 525.742 285.603C528.461 282.874 534.489 284 538 284C537.999 294.605 535.871 305.793 533.003 316C532.064 319.343 531.906 323.928 528.656 325.972C523.45 329.246 513.358 326.698 508 325C511.297 331.125 525.162 332.398 530.697 328.142C533.654 325.867 533.922 321.384 534.6 318C536.138 310.328 537.638 302.632 539.349 295C540.03 291.964 541.72 287.239 539.243 284.603C536.264 281.434 527.973 283 524 283M555 284C557.08 284.507 558.838 284.237 561 284C558.761 283.189 557.353 283.471 555 284z"/>
<path style="fill:#fc9e43; stroke:none;" d="M578 323C579.546 328.285 586.447 327.042 591 327C593.316 326.979 596.372 327.288 597.523 324.782C598.863 321.866 598 317.142 598 314C598 305.712 599.322 296.145 597.718 288.005C596.56 282.132 583.897 280.468 579.477 283.889C577.497 285.422 578.009 288.813 578 291C575.31 288.191 572.732 285.515 568.996 284.133C557.296 279.808 545.231 289.652 543.326 301C540.929 315.276 552.5 328.612 567 327.953C571.501 327.748 574.61 325.776 578 323z"/>
<path style="fill:#e1b794; stroke:none;" d="M567 283C568.249 283.685 568.548 283.749 570 284C568.752 283.315 568.451 283.251 567 283z"/>
<path style="fill:#fc9e43; stroke:none;" d="M623 284L606 284L606 315C606 317.97 604.936 323.708 607.603 325.821C609.308 327.171 611.964 326.968 614 326.996C616.651 327.032 620.239 327.503 622.682 326.258C625.063 325.044 624.951 322.314 624.995 319.996C625.086 315.225 623.714 308.39 626.028 304.044C628.925 298.603 640.155 299.633 639.436 292.981C639.1 289.877 637.861 283.895 633.941 283.851C629.386 283.8 626.127 289.184 623 284z"/>
<path style="fill:#e1b794; stroke:none;" d="M656 283C657.248 283.685 657.548 283.749 659 284C657.752 283.315 657.452 283.251 656 283M668.667 283.333C668.222 283.778 669.278 283.722 669.333 283.667C669.778 283.222 668.722 283.278 668.667 283.333z"/>
<path style="fill:#fc9e43; stroke:none;" d="M110 291L110 285L94 285L94 341C97.0622 340.518 104.467 342.195 105 339C107.511 339.359 109.498 339.402 112 339L111 336C114.273 335.454 113.154 325.351 114 322C117.397 325.298 126.082 330.455 130 326C141.923 329.237 146.716 316.422 146 307C146.986 308.479 147 308.203 147 310C148.648 306.04 146.879 303.657 145.501 299.91C141.544 289.152 135.073 283.045 123 284.094C117.387 284.582 114.678 288.649 110 291M187 321C187.224 322.684 187.218 323.313 187 325C191.337 326.468 201.491 329.305 204.782 324.436C206.192 322.349 205.235 319.308 205.089 317C204.795 312.357 205 307.651 205 303C205 298.68 206.779 289.148 203.972 285.603C201.336 282.275 191.831 284 188 284L188 292C183.266 289.459 180.836 284.731 175 284.108C170.95 283.676 166.642 283.961 163.015 285.92C148.751 293.624 148.46 315.316 162.004 323.856C169.733 328.729 182.32 330.514 187 321M214 284C214 293.619 211.937 305.967 215.634 315C220.633 327.211 236.636 330.674 246 322C244.374 328.431 241.122 333.05 234 332C232.556 336.567 232.04 341.214 232 346C244.564 349.92 265.347 344.132 262 327C265.191 324.211 263.533 319.818 263.17 316C262.481 308.758 263.012 301.271 263 294C262.996 291.327 263.629 286.946 261.258 285.028C257.92 282.327 249.107 284 245 284C246.666 290.997 246.635 301.06 244.486 307.985C243.339 311.681 239.064 315.387 235.318 312.381C233.082 310.587 233.054 307.61 233.005 305C232.898 299.337 233 293.664 233 288C230.602 293.715 232 301.831 232 308C229.801 300.562 231 291.729 231 284L214 284M272 284C272 298.054 267.066 328.172 289 328.157C292.314 328.155 295.814 326.833 299 326C298.45 321.686 298.078 317.349 298 313C283.869 314.607 295.363 292.601 289.821 285.603C287.012 282.056 276.125 284 272 284M470 284C474.563 296.497 477.944 312.727 479 326C483.952 326.919 496.15 329.408 500.107 325.397C503.151 322.311 503.205 315.099 504 311L506 311C506.74 314.97 506.441 321.208 508.988 324.486C512.03 328.4 527.792 328.849 530.683 324.682C533.702 320.329 534.258 312.152 534.964 307C536.049 299.093 538 292.111 538 284C534.682 284 528.485 282.825 525.742 285.028C523.842 286.553 523.808 289.811 523.339 292C522.081 297.871 520.593 304.047 520 310C517.072 303.063 518.287 292.303 513.926 286.228C512.146 283.749 508.71 284.002 506 284.002C503.999 284.002 501.291 283.714 499.6 285.028C497.717 286.49 497.533 289.853 497 292C495.589 297.685 494.78 303.397 493 309C491.178 303.385 490.633 297.737 489.436 292.004C488.968 289.761 489.027 286.912 487.106 285.318C483.449 282.282 474.494 284 470 284z"/>
<path style="fill:#e1b794; stroke:none;" d="M570.667 284.333C570.222 284.778 571.278 284.722 571.333 284.667C571.778 284.222 570.722 284.278 570.667 284.333M654.667 284.333C654.222 284.778 655.278 284.722 655.333 284.667C655.778 284.222 654.722 284.278 654.667 284.333M670.667 284.333C670.222 284.778 671.278 284.722 671.333 284.667C671.778 284.222 670.722 284.278 670.667 284.333M389 285L390 286L389 285M414.667 285.333C414.222 285.778 415.278 285.722 415.333 285.667C415.778 285.222 414.722 285.278 414.667 285.333M470 285C470.471 288.705 471.106 292.373 472 296C473.116 292.369 472.131 288.101 470 285M553 285L554 286L553 285M572 285C573.808 287.336 575.653 289.21 578 291C576.951 287.458 575.468 286.215 572 285M652 285L653 286L652 285M672 285L673 286L672 285M387.667 286.333C387.222 286.778 388.278 286.722 388.333 286.667C388.778 286.222 387.722 286.278 387.667 286.333M416 286C417.223 287.195 417.42 287.316 419 288C417.777 286.805 417.58 286.684 416 286M551.667 286.333C551.222 286.778 552.278 286.722 552.333 286.667C552.778 286.222 551.722 286.278 551.667 286.333M651 286L652 287L651 286M674 286L676 290C676.823 287.737 676.003 287.247 674 286M386 287L387 288L386 287M550 287L551 288L550 287M384 288L385 289L384 288M419 288L420 289L419 288M549 288L550 289L549 288M648 288L649 289L648 288M383 289L384 290L383 289M420 289C423.062 294.069 426.456 299.024 427.505 305C430.168 320.177 413.074 329.669 400.001 327.677C392.265 326.499 387.245 322.265 381 318C388.674 334.409 415.43 333.384 425.442 319.996C432.359 310.748 431.094 294.286 420 289M548 289L549 290L548 289M624.333 289.667C624.278 289.722 624.222 290.778 624.667 290.333C624.722 290.278 624.778 289.222 624.333 289.667M647 289L648 290L647 289M547 290L548 291L547 290M381.333 291.667C381.278 291.722 381.222 292.778 381.667 292.333C381.722 292.278 381.778 291.222 381.333 291.667M546.333 291.667C546.278 291.722 546.222 292.778 546.667 292.333C546.722 292.278 546.778 291.222 546.333 291.667M646 291L647 292L646 291M645 292L646 293L645 292M380 293L381 294L380 293M522 293L522 296C522.696 294.446 522.696 294.554 522 293M545 293L546 294L545 293M301 294C302.872 295.723 303.464 295.967 306 296L306 313C308.191 307.778 307 300.632 307 295L301 294z"/>
<path style="fill:#b25f5c; stroke:none;" d="M326.333 294.667C326.278 294.722 326.222 295.778 326.667 295.333C326.722 295.278 326.778 294.222 326.333 294.667z"/>
<path style="fill:#e1b794; stroke:none;" d="M340 294C341.642 295.731 342.694 296.382 345 297C343.536 295.032 342.394 294.648 340 294z"/>
<path style="fill:#b25f5c; stroke:none;" d="M364.333 294.667C364.278 294.722 364.222 295.778 364.667 295.333C364.722 295.278 364.778 294.222 364.333 294.667z"/>
<path style="fill:#e1b794; stroke:none;" d="M644 294L645 295L644 294M118 295C118.661 296.396 118.964 296.814 120 298C115.36 299.616 110.286 305.385 113.117 310.772C115.747 315.775 122.909 314.157 126 311C123.835 311.781 121.396 312.988 119.042 312.292C113.924 310.779 113.924 304.624 117.395 301.448C123.865 295.528 128.284 304.325 127 310C132.615 302.587 125.496 295.94 118 295M379 295L380 296L379 295M544.333 295.667C544.278 295.722 544.222 296.778 544.667 296.333C544.722 296.278 544.778 295.222 544.333 295.667M176 296C176.598 297.195 176.466 296.977 178 298C175.912 298.744 174.276 299.366 172.885 301.228C166.52 309.751 176.878 318.272 184 311C181.845 311.778 179.395 312.994 177.053 312.292C172.62 310.964 171.96 305.512 174.667 302.279C177.458 298.947 183.536 298.726 185.382 303.212C186.283 305.402 185.509 307.831 185 310C190.82 302.317 183.683 296.357 176 296M378 296L377 303C378.466 300.55 378.965 298.705 378 296M400 314C398.616 311.247 396.739 308.23 397.362 305.004C398.334 299.965 404.75 296.704 408.393 301.282C410.426 303.839 409.529 307.097 409 310C412.292 305.18 410.589 295.479 402.997 296.833C394.04 298.429 392.174 309.983 400 314M570 296C567.543 298.577 564.214 300.544 562.897 304.015C559.878 311.974 567.751 314.826 574 313C571.306 312.534 568.526 312.832 566.434 310.678C562.849 306.986 565.103 301.061 570.005 299.966C572.66 299.373 575.568 301.144 578 302C575.969 298.708 573.457 297.553 570 296M643.333 296.667C643.278 296.722 643.222 297.778 643.667 297.333C643.722 297.278 643.778 296.222 643.333 296.667M543 297L543 300C543.696 298.446 543.696 298.554 543 297M673 313C670.315 312.536 667.515 312.839 665.438 310.678C661.968 307.071 664.249 301.045 669.015 299.966C671.66 299.368 674.578 301.147 677 302C676.081 300.511 675.436 299.299 673.862 298.377C664.464 292.876 655.463 311.627 667.979 313.688C669.833 313.993 671.254 313.497 673 313M152.333 298.667C152.278 298.722 152.222 299.778 152.667 299.333C152.722 299.278 152.778 298.222 152.333 298.667M324 298L324 301C324.696 299.446 324.696 299.554 324 298z"/>
<path style="fill:#fffefe; stroke:none;" d="M402.019 298.836C394.171 301.26 396.365 316.399 404.946 313.238C412.314 310.524 411.073 296.041 402.019 298.836z"/>
<path style="fill:#e1b794; stroke:none;" d="M642.333 298.667C642.278 298.722 642.222 299.778 642.667 299.333C642.722 299.278 642.778 298.222 642.333 298.667z"/>
<path style="fill:#fffefe; stroke:none;" d="M119.105 299.782C111.287 302.662 114.255 315.083 122.956 312.343C131.352 309.698 127.609 296.651 119.105 299.782M178.043 299.616C170.186 301.53 171.242 314.281 179.985 312.586C188.556 310.925 187.373 297.342 178.043 299.616z"/>
<path style="fill:#e1b794; stroke:none;" d="M473 299L473 302C473.696 300.446 473.696 300.554 473 299z"/>
<path style="fill:#fffefe; stroke:none;" d="M569.019 299.786C560.837 302.533 564.499 315.605 572.906 312.253C580.857 309.083 577.5 296.939 569.019 299.786z"/>
<path style="fill:#b25f5c; stroke:none;" d="M627 299L628 300L627 299z"/>
<path style="fill:#fffefe; stroke:none;" d="M668.044 299.786C659.982 302.549 663.442 315.558 671.956 312.253C679.985 309.136 676.442 296.909 668.044 299.786z"/>
<path style="fill:#e1b794; stroke:none;" d="M112 300L113 301L112 300M151 300L151 310C152.346 306.793 152.346 303.207 151 300M170 300L171 301L170 300M474 302L474 307C474.83 304.969 474.83 304.031 474 302z"/>
<path style="fill:#b25f5c; stroke:none;" d="M624 302L625 303L624 302z"/>
<path style="fill:#fffefe; stroke:none;" d="M493.333 303.667C493.278 303.722 493.222 304.778 493.667 304.333C493.722 304.278 493.778 303.222 493.333 303.667z"/>
<path style="fill:#e1b794; stroke:none;" d="M110 304C110.684 305.58 110.805 305.777 112 307L112 304L110 304M475 307L475 310C475.696 308.446 475.696 308.554 475 307M377 308L377 311C377.696 309.446 377.696 309.554 377 308M577 308L578 309L577 308M676 308L677 309L676 308M576.333 309.667C576.278 309.722 576.222 310.778 576.667 310.333C576.722 310.278 576.778 309.222 576.333 309.667M152.333 310.667C152.278 310.722 152.222 311.778 152.667 311.333C152.722 311.278 152.778 310.222 152.333 310.667M642.333 310.667C642.278 310.722 642.222 311.778 642.667 311.333C642.722 311.278 642.778 310.222 642.333 310.667M675 310L676 311L675 310M378 311L378 314C378.696 312.446 378.696 312.554 378 311M408 311L409 312L408 311M504 311C502.924 315.157 502.919 321.299 500.107 324.682C496.03 329.587 484.445 326.688 479 326C483.219 330.566 496.515 332.758 501.262 327.486C504.038 324.402 504.466 317.968 505 314C505.562 315.801 505.824 317.122 506 319C507.146 316.194 506.692 313.929 506 311L504 311M575 311L576 312L575 311M674 311L675 312L674 311M214.333 312.667C214.278 312.722 214.222 313.778 214.667 313.333C214.722 313.278 214.778 312.222 214.333 312.667M407 312L408 313L407 312M643 312L643 315C643.696 313.446 643.696 313.554 643 312M405.667 313.333C405.222 313.778 406.278 313.722 406.333 313.667C406.778 313.222 405.722 313.278 405.667 313.333M476 313L476 316C476.696 314.446 476.696 314.554 476 313M144 314L145 315L144 314M215 314L215 317C215.696 315.446 215.696 315.554 215 314M272 314L272 317C272.696 315.446 272.696 315.554 272 314M298 314C298.051 318.057 298.106 322.034 299 326C289.737 327.802 282.989 328.786 276 321C275.146 325.242 279.208 328.005 283 329.196C291.101 331.741 302.161 329.319 300.812 319.019C300.498 316.623 299.834 315.396 298 314M379.333 314.667C379.278 314.722 379.222 315.778 379.667 315.333C379.722 315.278 379.778 314.222 379.333 314.667M401 314C402.248 314.685 402.548 314.749 404 315C402.752 314.315 402.452 314.251 401 314M644 315L645 316L644 315M380.333 316.667C380.278 316.722 380.222 317.778 380.667 317.333C380.722 317.278 380.778 316.222 380.333 316.667M477 316L477 321C477.83 318.97 477.83 318.03 477 316M216.333 317.667C216.278 317.722 216.222 318.778 216.667 318.333C216.722 318.278 216.778 317.222 216.333 317.667M273 317L273 320C273.696 318.446 273.696 318.554 273 317M217 319L218 320L217 319M344 319L344 325C344.951 322.715 344.951 321.285 344 319M112 320L113 321L112 320M218 320C222.341 329.091 234.442 331.118 243 327C238.71 325.676 233.657 326.952 229.116 326.035C224.995 325.203 221.502 322.152 218 320M274 320L275 321L274 320M507.333 320.667C507.278 320.722 507.222 321.778 507.667 321.333C507.722 321.278 507.778 320.222 507.333 320.667M478 321L478 324C478.696 322.446 478.696 322.554 478 321z"/>
<path style="fill:#b25f5c; stroke:none;" d="M112 322L113 323L112 322z"/>
<path style="fill:#e1b794; stroke:none;" d="M244 322C243.769 324.126 243.754 325.879 244 328C245.225 325.987 245.645 324.341 246 322L244 322M243 328L244 329L243 328M242 330L243 331L242 330M241 331L242 332L241 331M233 332L234 333L233 332M235 332C236.506 332.683 237.315 332.826 239 333C237.494 332.317 236.685 332.174 235 332M232 333L232 339C232.951 336.715 232.951 335.285 232 333z"/>
<path style="fill:#fc9e43; stroke:none;" d="M97 341L98 342L97 341z"/>
</svg>
